{"glyphs":{"0":{"ha":1217,"x_min":37,"x_max":1217,"o":"m 1217 314 l 38 314 l 38 476 l 485 476 l 485 478 l 485 490 q 485 491 485 491 l 485 493 q 486 499 485 496 q 487 505 487 502 q 487 509 487 506 q 489 514 488 511 q 540 591 501 561 q 628 621 578 621 q 700 602 667 621 q 752 550 733 582 q 771 478 771 517 l 771 476 l 1217 476 l 1217 314 m 629 343 q 695 361 665 343 q 743 410 725 379 q 761 476 761 440 q 743 542 761 511 q 695 590 725 572 q 629 607 665 607 q 562 590 593 607 q 514 542 532 572 q 497 476 497 511 q 514 409 497 440 q 562 361 532 379 q 629 343 593 343 m 689 575 q 697 570 693 573 q 706 564 701 567 l 548 564 q 566 577 554 570 q 585 585 579 583 q 628 594 602 594 q 672 585 650 594 l 689 575 m 716 555 q 745 476 745 517 q 739 435 745 454 q 718 399 735 420 l 563 399 l 716 555 m 539 395 q 516 433 523 415 q 509 476 509 453 q 510 494 509 488 q 517 517 511 507 q 537 550 523 536 l 694 550 l 539 395 m 64 423 l 90 423 l 90 347 l 119 347 l 119 423 l 145 423 l 145 450 l 64 450 l 64 423 m 187 379 l 196 379 l 208 356 q 220 347 213 347 l 246 347 l 228 379 q 210 389 220 389 l 213 389 q 228 397 220 389 q 236 414 236 404 q 225 439 236 429 q 199 450 214 450 l 157 450 l 157 347 l 187 347 l 187 379 m 286 347 l 286 450 l 257 450 l 257 347 l 286 347 m 341 450 l 296 347 l 320 347 q 333 357 327 347 l 336 364 l 371 364 l 376 357 q 388 347 381 347 l 411 347 l 367 450 l 341 450 m 422 347 l 487 347 l 487 374 l 450 374 l 450 450 l 422 450 l 422 347 m 847 450 q 809 435 824 450 q 795 397 795 420 q 809 359 795 373 q 847 344 824 344 q 886 359 871 344 q 901 397 901 373 q 886 435 901 420 q 847 450 871 450 m 980 412 q 983 392 980 400 l 951 438 q 946 445 949 444 q 939 447 944 447 l 914 447 l 914 346 l 945 346 l 945 386 q 942 405 945 391 l 976 352 q 989 346 982 346 l 1010 346 l 1010 447 l 980 447 l 980 412 m 1030 346 l 1095 346 l 1095 373 l 1059 373 l 1059 447 l 1030 447 l 1030 346 m 1153 376 q 1155 386 1153 382 l 1192 447 l 1164 447 q 1153 441 1156 447 l 1141 421 q 1139 412 1139 417 q 1136 405 1138 408 q 1133 421 1136 413 l 1122 441 q 1110 447 1118 447 l 1083 447 l 1120 386 q 1122 376 1122 383 l 1122 346 l 1153 346 l 1153 376 m 197 421 q 205 414 205 421 q 203 408 205 411 q 198 406 201 406 l 187 406 l 187 421 l 197 421 m 847 373 q 830 379 837 373 q 823 397 823 386 q 830 414 823 407 q 847 421 837 421 q 864 414 857 421 q 870 397 870 407 q 864 379 870 386 q 847 373 857 373 m 349 398 q 352 405 350 399 q 353 417 353 411 l 355 417 q 358 398 355 404 l 364 385 l 344 385 l 349 398 m 586 364 q 550 386 568 372 l 706 386 q 689 373 691 374 q 681 369 686 372 q 672 364 676 365 q 662 362 668 364 q 649 359 656 360 q 628 356 639 356 q 586 364 604 356 m 43 218 l 50 218 l 50 247 l 78 247 l 78 254 l 50 254 l 50 277 l 84 277 l 84 285 l 43 285 l 43 218 m 121 224 q 108 230 113 224 q 102 244 102 235 l 102 285 l 95 285 l 95 244 q 102 224 95 231 q 121 217 109 217 q 141 224 133 217 q 149 244 149 232 l 149 285 l 140 285 l 140 244 q 135 229 140 234 q 121 224 130 224 m 166 218 l 202 218 l 202 225 l 174 225 l 174 285 l 166 285 l 166 218 m 217 218 l 254 218 l 254 225 l 223 225 l 223 285 l 217 285 l 217 218 m 346 285 q 343 284 345 285 q 342 282 342 284 l 321 233 q 320 226 320 230 l 319 226 q 318 233 319 230 l 296 282 q 291 285 296 285 l 286 285 l 316 218 l 323 218 l 351 285 l 346 285 m 403 218 l 403 225 l 368 225 l 368 248 l 397 248 l 397 256 l 368 256 l 368 277 l 403 277 l 403 285 l 362 285 l 362 218 l 403 218 m 426 246 l 435 246 l 455 221 q 463 218 459 218 l 467 218 l 447 245 q 444 247 447 247 l 444 247 q 455 253 450 248 q 461 265 461 258 q 455 279 461 273 q 441 285 449 285 l 417 285 l 417 218 l 426 218 l 426 246 m 472 227 q 482 220 476 223 q 493 217 488 217 q 509 222 503 217 q 514 237 514 228 q 495 257 514 252 q 484 268 484 262 q 494 278 484 278 q 506 275 500 278 q 510 277 508 274 l 511 279 q 494 285 506 285 q 481 281 486 285 q 475 268 475 276 q 493 250 475 257 q 508 237 508 244 q 504 227 508 231 q 493 224 500 224 q 479 230 486 226 q 476 230 479 231 q 473 228 474 230 l 472 227 m 536 218 l 536 285 l 530 285 l 530 218 l 536 218 m 586 285 q 561 275 571 285 q 551 251 551 265 q 561 227 551 237 q 586 217 571 217 q 611 226 601 217 q 621 251 621 236 q 611 276 621 266 q 586 285 601 285 m 680 235 q 681 230 680 231 l 646 283 q 640 285 643 285 l 634 285 l 634 218 l 642 218 l 642 270 l 641 275 l 680 220 q 682 218 680 218 l 689 218 l 689 285 l 680 285 l 680 235 m 586 224 q 567 232 576 224 q 558 251 558 240 q 566 270 558 262 q 586 278 575 278 q 605 270 597 278 q 613 251 613 262 q 605 232 613 240 q 586 224 597 224 m 441 277 q 449 274 445 277 q 453 265 453 270 q 449 257 453 261 q 441 254 445 254 l 426 254 l 426 277 l 441 277 m 1198 252 q 1196 256 1198 254 l 1178 273 l 1176 270 q 1177 264 1173 267 l 1186 255 l 727 255 l 727 248 l 1185 248 l 1177 239 q 1176 233 1174 236 l 1178 230 l 1196 248 q 1198 252 1198 249 m 514 184 q 479 170 493 184 q 464 134 464 156 q 478 99 464 113 q 514 84 492 84 q 551 99 536 84 q 566 134 566 113 q 551 170 566 155 q 514 184 536 184 m 761 100 q 800 84 780 84 q 826 93 816 84 q 836 116 836 102 q 806 149 836 143 q 796 155 796 152 q 800 158 796 158 q 806 157 801 158 q 812 155 810 155 q 825 163 821 155 l 830 172 q 817 181 825 178 q 800 184 808 184 q 776 176 786 184 q 767 155 767 168 q 775 136 767 143 q 800 123 783 129 q 806 116 806 121 q 800 111 806 111 q 791 113 795 111 q 786 116 787 115 q 778 118 783 118 q 765 111 771 118 l 761 100 m 883 134 q 897 99 883 113 q 932 84 911 84 q 954 90 944 84 q 969 104 965 96 l 963 113 q 953 117 959 117 q 944 114 947 117 q 931 111 936 111 q 916 117 922 111 q 910 134 910 124 q 916 151 910 144 q 931 158 922 158 q 939 156 936 158 q 944 154 942 155 q 952 151 947 151 q 963 155 959 151 l 969 164 q 954 178 965 172 q 932 184 944 184 q 897 170 911 184 q 883 134 883 155 m 1027 184 q 991 170 1005 184 q 976 134 976 156 q 991 99 976 113 q 1027 84 1005 84 q 1063 99 1049 84 q 1078 134 1078 113 q 1063 170 1078 156 q 1027 184 1049 184 m 116 85 l 116 113 l 89 113 q 75 108 81 113 l 113 158 q 116 170 116 162 l 116 183 l 41 183 l 41 157 l 69 157 q 78 161 75 157 l 43 111 q 38 106 40 108 q 37 99 37 103 l 37 85 l 116 85 m 196 85 l 196 113 l 157 113 l 157 122 l 189 122 l 189 146 l 157 146 l 157 157 l 196 157 l 196 183 l 130 183 l 130 85 l 196 85 m 202 157 l 228 157 l 228 85 l 256 85 l 256 157 l 279 157 l 279 183 l 202 183 l 202 157 m 313 183 l 270 85 l 292 85 q 299 88 296 85 q 304 96 302 91 l 307 102 l 342 102 l 345 96 q 351 88 346 91 q 358 85 355 85 l 380 85 l 338 183 l 313 183 m 388 85 l 417 85 l 417 119 l 449 119 l 449 143 l 417 143 l 417 157 l 455 157 l 455 183 l 388 183 l 388 85 m 640 149 q 643 131 640 137 l 614 174 q 609 181 612 179 q 601 183 607 183 l 579 183 l 579 85 l 608 85 l 608 125 q 604 142 608 134 l 605 142 l 638 91 q 649 85 642 85 l 669 85 l 669 183 l 640 183 l 640 149 m 680 157 l 704 157 l 704 85 l 733 85 l 733 157 l 759 157 l 759 183 l 680 183 l 680 157 m 1181 183 q 1170 174 1175 183 l 1153 139 q 1150 128 1150 135 l 1148 128 q 1145 139 1148 135 l 1129 174 q 1123 180 1126 178 q 1116 183 1121 183 l 1092 183 l 1092 85 l 1120 85 l 1120 128 q 1116 143 1120 134 l 1118 143 l 1136 102 q 1150 94 1139 94 q 1161 102 1157 94 l 1180 143 q 1178 136 1179 140 q 1178 128 1178 132 l 1178 85 l 1205 85 l 1205 183 l 1181 183 m 514 111 q 498 117 505 111 q 492 134 492 124 q 498 151 492 144 q 514 158 505 158 q 530 151 524 158 q 536 134 536 145 q 530 117 536 124 q 514 111 524 111 m 1027 111 q 1011 117 1018 111 q 1005 134 1005 124 q 1011 151 1005 145 q 1027 158 1018 158 q 1044 151 1036 158 q 1051 134 1051 144 q 1044 117 1051 124 q 1027 111 1036 111 m 321 134 q 324 152 324 141 l 326 152 q 329 134 326 139 l 335 120 l 316 120 l 321 134 m 844 99 q 848 88 844 93 q 859 84 852 84 q 869 88 865 84 q 873 99 873 93 q 869 110 873 105 q 859 114 865 114 q 848 110 852 114 q 844 99 844 105 z "},"1":{"ha":1217,"x_min":37,"x_max":1217,"o":"m 1217 314 l 38 314 l 38 476 l 485 476 l 485 478 l 485 490 q 485 491 485 491 l 485 493 q 486 499 485 496 q 487 505 487 502 q 487 509 487 506 q 489 514 488 511 q 540 591 501 561 q 628 621 578 621 q 700 602 667 621 q 752 550 733 582 q 771 478 771 517 l 771 476 l 1217 476 l 1217 314 m 629 343 q 695 361 665 343 q 743 410 725 379 q 761 476 761 440 q 743 542 761 511 q 695 590 725 572 q 629 607 665 607 q 562 590 593 607 q 514 542 532 572 q 497 476 497 511 q 514 409 497 440 q 562 361 532 379 q 629 343 593 343 m 689 575 q 697 570 693 573 q 706 564 701 567 l 548 564 q 566 577 554 570 q 585 585 579 583 q 628 594 602 594 q 672 585 650 594 l 689 575 m 716 555 q 745 476 745 517 q 739 435 745 454 q 718 399 735 420 l 563 399 l 716 555 m 539 395 q 516 433 523 415 q 509 476 509 453 q 510 494 509 488 q 517 517 511 507 q 537 550 523 536 l 694 550 l 539 395 m 64 423 l 90 423 l 90 347 l 119 347 l 119 423 l 145 423 l 145 450 l 64 450 l 64 423 m 187 379 l 196 379 l 208 356 q 220 347 213 347 l 246 347 l 228 379 q 210 389 220 389 l 213 389 q 228 397 220 389 q 236 414 236 404 q 225 439 236 429 q 199 450 214 450 l 157 450 l 157 347 l 187 347 l 187 379 m 286 347 l 286 450 l 257 450 l 257 347 l 286 347 m 341 450 l 296 347 l 320 347 q 333 357 327 347 l 336 364 l 371 364 l 376 357 q 388 347 381 347 l 411 347 l 367 450 l 341 450 m 422 347 l 487 347 l 487 374 l 450 374 l 450 450 l 422 450 l 422 347 m 847 450 q 809 435 824 450 q 795 397 795 420 q 809 359 795 373 q 847 344 824 344 q 886 359 871 344 q 901 397 901 373 q 886 435 901 420 q 847 450 871 450 m 980 412 q 983 392 980 400 l 951 438 q 946 445 949 444 q 939 447 944 447 l 914 447 l 914 346 l 945 346 l 945 386 q 942 405 945 391 l 976 352 q 989 346 982 346 l 1010 346 l 1010 447 l 980 447 l 980 412 m 1030 346 l 1095 346 l 1095 373 l 1059 373 l 1059 447 l 1030 447 l 1030 346 m 1153 376 q 1155 386 1153 382 l 1192 447 l 1164 447 q 1153 441 1156 447 l 1141 421 q 1139 412 1139 417 q 1136 405 1138 408 q 1133 421 1136 413 l 1122 441 q 1110 447 1118 447 l 1083 447 l 1120 386 q 1122 376 1122 383 l 1122 346 l 1153 346 l 1153 376 m 197 421 q 205 414 205 421 q 203 408 205 411 q 198 406 201 406 l 187 406 l 187 421 l 197 421 m 847 373 q 830 379 837 373 q 823 397 823 386 q 830 414 823 407 q 847 421 837 421 q 864 414 857 421 q 870 397 870 407 q 864 379 870 386 q 847 373 857 373 m 349 398 q 352 405 350 399 q 353 417 353 411 l 355 417 q 358 398 355 404 l 364 385 l 344 385 l 349 398 m 586 364 q 550 386 568 372 l 706 386 q 689 373 691 374 q 681 369 686 372 q 672 364 676 365 q 662 362 668 364 q 649 359 656 360 q 628 356 639 356 q 586 364 604 356 m 43 218 l 50 218 l 50 247 l 78 247 l 78 254 l 50 254 l 50 277 l 84 277 l 84 285 l 43 285 l 43 218 m 121 224 q 108 230 113 224 q 102 244 102 235 l 102 285 l 95 285 l 95 244 q 102 224 95 231 q 121 217 109 217 q 141 224 133 217 q 149 244 149 232 l 149 285 l 140 285 l 140 244 q 135 229 140 234 q 121 224 130 224 m 166 218 l 202 218 l 202 225 l 174 225 l 174 285 l 166 285 l 166 218 m 217 218 l 254 218 l 254 225 l 223 225 l 223 285 l 217 285 l 217 218 m 346 285 q 343 284 345 285 q 342 282 342 284 l 321 233 q 320 226 320 230 l 319 226 q 318 233 319 230 l 296 282 q 291 285 296 285 l 286 285 l 316 218 l 323 218 l 351 285 l 346 285 m 403 218 l 403 225 l 368 225 l 368 248 l 397 248 l 397 256 l 368 256 l 368 277 l 403 277 l 403 285 l 362 285 l 362 218 l 403 218 m 426 246 l 435 246 l 455 221 q 463 218 459 218 l 467 218 l 447 245 q 444 247 447 247 l 444 247 q 455 253 450 248 q 461 265 461 258 q 455 279 461 273 q 441 285 449 285 l 417 285 l 417 218 l 426 218 l 426 246 m 472 227 q 482 220 476 223 q 493 217 488 217 q 509 222 503 217 q 514 237 514 228 q 495 257 514 252 q 484 268 484 262 q 494 278 484 278 q 506 275 500 278 q 510 277 508 274 l 511 279 q 494 285 506 285 q 481 281 486 285 q 475 268 475 276 q 493 250 475 257 q 508 237 508 244 q 504 227 508 231 q 493 224 500 224 q 479 230 486 226 q 476 230 479 231 q 473 228 474 230 l 472 227 m 536 218 l 536 285 l 530 285 l 530 218 l 536 218 m 586 285 q 561 275 571 285 q 551 251 551 265 q 561 227 551 237 q 586 217 571 217 q 611 226 601 217 q 621 251 621 236 q 611 276 621 266 q 586 285 601 285 m 680 235 q 681 230 680 231 l 646 283 q 640 285 643 285 l 634 285 l 634 218 l 642 218 l 642 270 l 641 275 l 680 220 q 682 218 680 218 l 689 218 l 689 285 l 680 285 l 680 235 m 586 224 q 567 232 576 224 q 558 251 558 240 q 566 270 558 262 q 586 278 575 278 q 605 270 597 278 q 613 251 613 262 q 605 232 613 240 q 586 224 597 224 m 441 277 q 449 274 445 277 q 453 265 453 270 q 449 257 453 261 q 441 254 445 254 l 426 254 l 426 277 l 441 277 m 1198 252 q 1196 256 1198 254 l 1178 273 l 1176 270 q 1177 264 1173 267 l 1186 255 l 727 255 l 727 248 l 1185 248 l 1177 239 q 1176 233 1174 236 l 1178 230 l 1196 248 q 1198 252 1198 249 m 514 184 q 479 170 493 184 q 464 134 464 156 q 478 99 464 113 q 514 84 492 84 q 551 99 536 84 q 566 134 566 113 q 551 170 566 155 q 514 184 536 184 m 761 100 q 800 84 780 84 q 826 93 816 84 q 836 116 836 102 q 806 149 836 143 q 796 155 796 152 q 800 158 796 158 q 806 157 801 158 q 812 155 810 155 q 825 163 821 155 l 830 172 q 817 181 825 178 q 800 184 808 184 q 776 176 786 184 q 767 155 767 168 q 775 136 767 143 q 800 123 783 129 q 806 116 806 121 q 800 111 806 111 q 791 113 795 111 q 786 116 787 115 q 778 118 783 118 q 765 111 771 118 l 761 100 m 883 134 q 897 99 883 113 q 932 84 911 84 q 954 90 944 84 q 969 104 965 96 l 963 113 q 953 117 959 117 q 944 114 947 117 q 931 111 936 111 q 916 117 922 111 q 910 134 910 124 q 916 151 910 144 q 931 158 922 158 q 939 156 936 158 q 944 154 942 155 q 952 151 947 151 q 963 155 959 151 l 969 164 q 954 178 965 172 q 932 184 944 184 q 897 170 911 184 q 883 134 883 155 m 1027 184 q 991 170 1005 184 q 976 134 976 156 q 991 99 976 113 q 1027 84 1005 84 q 1063 99 1049 84 q 1078 134 1078 113 q 1063 170 1078 156 q 1027 184 1049 184 m 116 85 l 116 113 l 89 113 q 75 108 81 113 l 113 158 q 116 170 116 162 l 116 183 l 41 183 l 41 157 l 69 157 q 78 161 75 157 l 43 111 q 38 106 40 108 q 37 99 37 103 l 37 85 l 116 85 m 196 85 l 196 113 l 157 113 l 157 122 l 189 122 l 189 146 l 157 146 l 157 157 l 196 157 l 196 183 l 130 183 l 130 85 l 196 85 m 202 157 l 228 157 l 228 85 l 256 85 l 256 157 l 279 157 l 279 183 l 202 183 l 202 157 m 313 183 l 270 85 l 292 85 q 299 88 296 85 q 304 96 302 91 l 307 102 l 342 102 l 345 96 q 351 88 346 91 q 358 85 355 85 l 380 85 l 338 183 l 313 183 m 388 85 l 417 85 l 417 119 l 449 119 l 449 143 l 417 143 l 417 157 l 455 157 l 455 183 l 388 183 l 388 85 m 640 149 q 643 131 640 137 l 614 174 q 609 181 612 179 q 601 183 607 183 l 579 183 l 579 85 l 608 85 l 608 125 q 604 142 608 134 l 605 142 l 638 91 q 649 85 642 85 l 669 85 l 669 183 l 640 183 l 640 149 m 680 157 l 704 157 l 704 85 l 733 85 l 733 157 l 759 157 l 759 183 l 680 183 l 680 157 m 1181 183 q 1170 174 1175 183 l 1153 139 q 1150 128 1150 135 l 1148 128 q 1145 139 1148 135 l 1129 174 q 1123 180 1126 178 q 1116 183 1121 183 l 1092 183 l 1092 85 l 1120 85 l 1120 128 q 1116 143 1120 134 l 1118 143 l 1136 102 q 1150 94 1139 94 q 1161 102 1157 94 l 1180 143 q 1178 136 1179 140 q 1178 128 1178 132 l 1178 85 l 1205 85 l 1205 183 l 1181 183 m 514 111 q 498 117 505 111 q 492 134 492 124 q 498 151 492 144 q 514 158 505 158 q 530 151 524 158 q 536 134 536 145 q 530 117 536 124 q 514 111 524 111 m 1027 111 q 1011 117 1018 111 q 1005 134 1005 124 q 1011 151 1005 145 q 1027 158 1018 158 q 1044 151 1036 158 q 1051 134 1051 144 q 1044 117 1051 124 q 1027 111 1036 111 m 321 134 q 324 152 324 141 l 326 152 q 329 134 326 139 l 335 120 l 316 120 l 321 134 m 844 99 q 848 88 844 93 q 859 84 852 84 q 869 88 865 84 q 873 99 873 93 q 869 110 873 105 q 859 114 865 114 q 848 110 852 114 q 844 99 844 105 z "},"2":{"ha":1217,"x_min":37,"x_max":1217,"o":"m 1217 314 l 38 314 l 38 476 l 485 476 l 485 478 l 485 490 q 485 491 485 491 l 485 493 q 486 499 485 496 q 487 505 487 502 q 487 509 487 506 q 489 514 488 511 q 540 591 501 561 q 628 621 578 621 q 700 602 667 621 q 752 550 733 582 q 771 478 771 517 l 771 476 l 1217 476 l 1217 314 m 629 343 q 695 361 665 343 q 743 410 725 379 q 761 476 761 440 q 743 542 761 511 q 695 590 725 572 q 629 607 665 607 q 562 590 593 607 q 514 542 532 572 q 497 476 497 511 q 514 409 497 440 q 562 361 532 379 q 629 343 593 343 m 689 575 q 697 570 693 573 q 706 564 701 567 l 548 564 q 566 577 554 570 q 585 585 579 583 q 628 594 602 594 q 672 585 650 594 l 689 575 m 716 555 q 745 476 745 517 q 739 435 745 454 q 718 399 735 420 l 563 399 l 716 555 m 539 395 q 516 433 523 415 q 509 476 509 453 q 510 494 509 488 q 517 517 511 507 q 537 550 523 536 l 694 550 l 539 395 m 64 423 l 90 423 l 90 347 l 119 347 l 119 423 l 145 423 l 145 450 l 64 450 l 64 423 m 187 379 l 196 379 l 208 356 q 220 347 213 347 l 246 347 l 228 379 q 210 389 220 389 l 213 389 q 228 397 220 389 q 236 414 236 404 q 225 439 236 429 q 199 450 214 450 l 157 450 l 157 347 l 187 347 l 187 379 m 286 347 l 286 450 l 257 450 l 257 347 l 286 347 m 341 450 l 296 347 l 320 347 q 333 357 327 347 l 336 364 l 371 364 l 376 357 q 388 347 381 347 l 411 347 l 367 450 l 341 450 m 422 347 l 487 347 l 487 374 l 450 374 l 450 450 l 422 450 l 422 347 m 847 450 q 809 435 824 450 q 795 397 795 420 q 809 359 795 373 q 847 344 824 344 q 886 359 871 344 q 901 397 901 373 q 886 435 901 420 q 847 450 871 450 m 980 412 q 983 392 980 400 l 951 438 q 946 445 949 444 q 939 447 944 447 l 914 447 l 914 346 l 945 346 l 945 386 q 942 405 945 391 l 976 352 q 989 346 982 346 l 1010 346 l 1010 447 l 980 447 l 980 412 m 1030 346 l 1095 346 l 1095 373 l 1059 373 l 1059 447 l 1030 447 l 1030 346 m 1153 376 q 1155 386 1153 382 l 1192 447 l 1164 447 q 1153 441 1156 447 l 1141 421 q 1139 412 1139 417 q 1136 405 1138 408 q 1133 421 1136 413 l 1122 441 q 1110 447 1118 447 l 1083 447 l 1120 386 q 1122 376 1122 383 l 1122 346 l 1153 346 l 1153 376 m 197 421 q 205 414 205 421 q 203 408 205 411 q 198 406 201 406 l 187 406 l 187 421 l 197 421 m 847 373 q 830 379 837 373 q 823 397 823 386 q 830 414 823 407 q 847 421 837 421 q 864 414 857 421 q 870 397 870 407 q 864 379 870 386 q 847 373 857 373 m 349 398 q 352 405 350 399 q 353 417 353 411 l 355 417 q 358 398 355 404 l 364 385 l 344 385 l 349 398 m 586 364 q 550 386 568 372 l 706 386 q 689 373 691 374 q 681 369 686 372 q 672 364 676 365 q 662 362 668 364 q 649 359 656 360 q 628 356 639 356 q 586 364 604 356 m 43 218 l 50 218 l 50 247 l 78 247 l 78 254 l 50 254 l 50 277 l 84 277 l 84 285 l 43 285 l 43 218 m 121 224 q 108 230 113 224 q 102 244 102 235 l 102 285 l 95 285 l 95 244 q 102 224 95 231 q 121 217 109 217 q 141 224 133 217 q 149 244 149 232 l 149 285 l 140 285 l 140 244 q 135 229 140 234 q 121 224 130 224 m 166 218 l 202 218 l 202 225 l 174 225 l 174 285 l 166 285 l 166 218 m 217 218 l 254 218 l 254 225 l 223 225 l 223 285 l 217 285 l 217 218 m 346 285 q 343 284 345 285 q 342 282 342 284 l 321 233 q 320 226 320 230 l 319 226 q 318 233 319 230 l 296 282 q 291 285 296 285 l 286 285 l 316 218 l 323 218 l 351 285 l 346 285 m 403 218 l 403 225 l 368 225 l 368 248 l 397 248 l 397 256 l 368 256 l 368 277 l 403 277 l 403 285 l 362 285 l 362 218 l 403 218 m 426 246 l 435 246 l 455 221 q 463 218 459 218 l 467 218 l 447 245 q 444 247 447 247 l 444 247 q 455 253 450 248 q 461 265 461 258 q 455 279 461 273 q 441 285 449 285 l 417 285 l 417 218 l 426 218 l 426 246 m 472 227 q 482 220 476 223 q 493 217 488 217 q 509 222 503 217 q 514 237 514 228 q 495 257 514 252 q 484 268 484 262 q 494 278 484 278 q 506 275 500 278 q 510 277 508 274 l 511 279 q 494 285 506 285 q 481 281 486 285 q 475 268 475 276 q 493 250 475 257 q 508 237 508 244 q 504 227 508 231 q 493 224 500 224 q 479 230 486 226 q 476 230 479 231 q 473 228 474 230 l 472 227 m 536 218 l 536 285 l 530 285 l 530 218 l 536 218 m 586 285 q 561 275 571 285 q 551 251 551 265 q 561 227 551 237 q 586 217 571 217 q 611 226 601 217 q 621 251 621 236 q 611 276 621 266 q 586 285 601 285 m 680 235 q 681 230 680 231 l 646 283 q 640 285 643 285 l 634 285 l 634 218 l 642 218 l 642 270 l 641 275 l 680 220 q 682 218 680 218 l 689 218 l 689 285 l 680 285 l 680 235 m 586 224 q 567 232 576 224 q 558 251 558 240 q 566 270 558 262 q 586 278 575 278 q 605 270 597 278 q 613 251 613 262 q 605 232 613 240 q 586 224 597 224 m 441 277 q 449 274 445 277 q 453 265 453 270 q 449 257 453 261 q 441 254 445 254 l 426 254 l 426 277 l 441 277 m 1198 252 q 1196 256 1198 254 l 1178 273 l 1176 270 q 1177 264 1173 267 l 1186 255 l 727 255 l 727 248 l 1185 248 l 1177 239 q 1176 233 1174 236 l 1178 230 l 1196 248 q 1198 252 1198 249 m 514 184 q 479 170 493 184 q 464 134 464 156 q 478 99 464 113 q 514 84 492 84 q 551 99 536 84 q 566 134 566 113 q 551 170 566 155 q 514 184 536 184 m 761 100 q 800 84 780 84 q 826 93 816 84 q 836 116 836 102 q 806 149 836 143 q 796 155 796 152 q 800 158 796 158 q 806 157 801 158 q 812 155 810 155 q 825 163 821 155 l 830 172 q 817 181 825 178 q 800 184 808 184 q 776 176 786 184 q 767 155 767 168 q 775 136 767 143 q 800 123 783 129 q 806 116 806 121 q 800 111 806 111 q 791 113 795 111 q 786 116 787 115 q 778 118 783 118 q 765 111 771 118 l 761 100 m 883 134 q 897 99 883 113 q 932 84 911 84 q 954 90 944 84 q 969 104 965 96 l 963 113 q 953 117 959 117 q 944 114 947 117 q 931 111 936 111 q 916 117 922 111 q 910 134 910 124 q 916 151 910 144 q 931 158 922 158 q 939 156 936 158 q 944 154 942 155 q 952 151 947 151 q 963 155 959 151 l 969 164 q 954 178 965 172 q 932 184 944 184 q 897 170 911 184 q 883 134 883 155 m 1027 184 q 991 170 1005 184 q 976 134 976 156 q 991 99 976 113 q 1027 84 1005 84 q 1063 99 1049 84 q 1078 134 1078 113 q 1063 170 1078 156 q 1027 184 1049 184 m 116 85 l 116 113 l 89 113 q 75 108 81 113 l 113 158 q 116 170 116 162 l 116 183 l 41 183 l 41 157 l 69 157 q 78 161 75 157 l 43 111 q 38 106 40 108 q 37 99 37 103 l 37 85 l 116 85 m 196 85 l 196 113 l 157 113 l 157 122 l 189 122 l 189 146 l 157 146 l 157 157 l 196 157 l 196 183 l 130 183 l 130 85 l 196 85 m 202 157 l 228 157 l 228 85 l 256 85 l 256 157 l 279 157 l 279 183 l 202 183 l 202 157 m 313 183 l 270 85 l 292 85 q 299 88 296 85 q 304 96 302 91 l 307 102 l 342 102 l 345 96 q 351 88 346 91 q 358 85 355 85 l 380 85 l 338 183 l 313 183 m 388 85 l 417 85 l 417 119 l 449 119 l 449 143 l 417 143 l 417 157 l 455 157 l 455 183 l 388 183 l 388 85 m 640 149 q 643 131 640 137 l 614 174 q 609 181 612 179 q 601 183 607 183 l 579 183 l 579 85 l 608 85 l 608 125 q 604 142 608 134 l 605 142 l 638 91 q 649 85 642 85 l 669 85 l 669 183 l 640 183 l 640 149 m 680 157 l 704 157 l 704 85 l 733 85 l 733 157 l 759 157 l 759 183 l 680 183 l 680 157 m 1181 183 q 1170 174 1175 183 l 1153 139 q 1150 128 1150 135 l 1148 128 q 1145 139 1148 135 l 1129 174 q 1123 180 1126 178 q 1116 183 1121 183 l 1092 183 l 1092 85 l 1120 85 l 1120 128 q 1116 143 1120 134 l 1118 143 l 1136 102 q 1150 94 1139 94 q 1161 102 1157 94 l 1180 143 q 1178 136 1179 140 q 1178 128 1178 132 l 1178 85 l 1205 85 l 1205 183 l 1181 183 m 514 111 q 498 117 505 111 q 492 134 492 124 q 498 151 492 144 q 514 158 505 158 q 530 151 524 158 q 536 134 536 145 q 530 117 536 124 q 514 111 524 111 m 1027 111 q 1011 117 1018 111 q 1005 134 1005 124 q 1011 151 1005 145 q 1027 158 1018 158 q 1044 151 1036 158 q 1051 134 1051 144 q 1044 117 1051 124 q 1027 111 1036 111 m 321 134 q 324 152 324 141 l 326 152 q 329 134 326 139 l 335 120 l 316 120 l 321 134 m 844 99 q 848 88 844 93 q 859 84 852 84 q 869 88 865 84 q 873 99 873 93 q 869 110 873 105 q 859 114 865 114 q 848 110 852 114 q 844 99 844 105 z "},"3":{"ha":1217,"x_min":37,"x_max":1217,"o":"m 1217 314 l 38 314 l 38 476 l 485 476 l 485 478 l 485 490 q 485 491 485 491 l 485 493 q 486 499 485 496 q 487 505 487 502 q 487 509 487 506 q 489 514 488 511 q 540 591 501 561 q 628 621 578 621 q 700 602 667 621 q 752 550 733 582 q 771 478 771 517 l 771 476 l 1217 476 l 1217 314 m 629 343 q 695 361 665 343 q 743 410 725 379 q 761 476 761 440 q 743 542 761 511 q 695 590 725 572 q 629 607 665 607 q 562 590 593 607 q 514 542 532 572 q 497 476 497 511 q 514 409 497 440 q 562 361 532 379 q 629 343 593 343 m 689 575 q 697 570 693 573 q 706 564 701 567 l 548 564 q 566 577 554 570 q 585 585 579 583 q 628 594 602 594 q 672 585 650 594 l 689 575 m 716 555 q 745 476 745 517 q 739 435 745 454 q 718 399 735 420 l 563 399 l 716 555 m 539 395 q 516 433 523 415 q 509 476 509 453 q 510 494 509 488 q 517 517 511 507 q 537 550 523 536 l 694 550 l 539 395 m 64 423 l 90 423 l 90 347 l 119 347 l 119 423 l 145 423 l 145 450 l 64 450 l 64 423 m 187 379 l 196 379 l 208 356 q 220 347 213 347 l 246 347 l 228 379 q 210 389 220 389 l 213 389 q 228 397 220 389 q 236 414 236 404 q 225 439 236 429 q 199 450 214 450 l 157 450 l 157 347 l 187 347 l 187 379 m 286 347 l 286 450 l 257 450 l 257 347 l 286 347 m 341 450 l 296 347 l 320 347 q 333 357 327 347 l 336 364 l 371 364 l 376 357 q 388 347 381 347 l 411 347 l 367 450 l 341 450 m 422 347 l 487 347 l 487 374 l 450 374 l 450 450 l 422 450 l 422 347 m 847 450 q 809 435 824 450 q 795 397 795 420 q 809 359 795 373 q 847 344 824 344 q 886 359 871 344 q 901 397 901 373 q 886 435 901 420 q 847 450 871 450 m 980 412 q 983 392 980 400 l 951 438 q 946 445 949 444 q 939 447 944 447 l 914 447 l 914 346 l 945 346 l 945 386 q 942 405 945 391 l 976 352 q 989 346 982 346 l 1010 346 l 1010 447 l 980 447 l 980 412 m 1030 346 l 1095 346 l 1095 373 l 1059 373 l 1059 447 l 1030 447 l 1030 346 m 1153 376 q 1155 386 1153 382 l 1192 447 l 1164 447 q 1153 441 1156 447 l 1141 421 q 1139 412 1139 417 q 1136 405 1138 408 q 1133 421 1136 413 l 1122 441 q 1110 447 1118 447 l 1083 447 l 1120 386 q 1122 376 1122 383 l 1122 346 l 1153 346 l 1153 376 m 197 421 q 205 414 205 421 q 203 408 205 411 q 198 406 201 406 l 187 406 l 187 421 l 197 421 m 847 373 q 830 379 837 373 q 823 397 823 386 q 830 414 823 407 q 847 421 837 421 q 864 414 857 421 q 870 397 870 407 q 864 379 870 386 q 847 373 857 373 m 349 398 q 352 405 350 399 q 353 417 353 411 l 355 417 q 358 398 355 404 l 364 385 l 344 385 l 349 398 m 586 364 q 550 386 568 372 l 706 386 q 689 373 691 374 q 681 369 686 372 q 672 364 676 365 q 662 362 668 364 q 649 359 656 360 q 628 356 639 356 q 586 364 604 356 m 43 218 l 50 218 l 50 247 l 78 247 l 78 254 l 50 254 l 50 277 l 84 277 l 84 285 l 43 285 l 43 218 m 121 224 q 108 230 113 224 q 102 244 102 235 l 102 285 l 95 285 l 95 244 q 102 224 95 231 q 121 217 109 217 q 141 224 133 217 q 149 244 149 232 l 149 285 l 140 285 l 140 244 q 135 229 140 234 q 121 224 130 224 m 166 218 l 202 218 l 202 225 l 174 225 l 174 285 l 166 285 l 166 218 m 217 218 l 254 218 l 254 225 l 223 225 l 223 285 l 217 285 l 217 218 m 346 285 q 343 284 345 285 q 342 282 342 284 l 321 233 q 320 226 320 230 l 319 226 q 318 233 319 230 l 296 282 q 291 285 296 285 l 286 285 l 316 218 l 323 218 l 351 285 l 346 285 m 403 218 l 403 225 l 368 225 l 368 248 l 397 248 l 397 256 l 368 256 l 368 277 l 403 277 l 403 285 l 362 285 l 362 218 l 403 218 m 426 246 l 435 246 l 455 221 q 463 218 459 218 l 467 218 l 447 245 q 444 247 447 247 l 444 247 q 455 253 450 248 q 461 265 461 258 q 455 279 461 273 q 441 285 449 285 l 417 285 l 417 218 l 426 218 l 426 246 m 472 227 q 482 220 476 223 q 493 217 488 217 q 509 222 503 217 q 514 237 514 228 q 495 257 514 252 q 484 268 484 262 q 494 278 484 278 q 506 275 500 278 q 510 277 508 274 l 511 279 q 494 285 506 285 q 481 281 486 285 q 475 268 475 276 q 493 250 475 257 q 508 237 508 244 q 504 227 508 231 q 493 224 500 224 q 479 230 486 226 q 476 230 479 231 q 473 228 474 230 l 472 227 m 536 218 l 536 285 l 530 285 l 530 218 l 536 218 m 586 285 q 561 275 571 285 q 551 251 551 265 q 561 227 551 237 q 586 217 571 217 q 611 226 601 217 q 621 251 621 236 q 611 276 621 266 q 586 285 601 285 m 680 235 q 681 230 680 231 l 646 283 q 640 285 643 285 l 634 285 l 634 218 l 642 218 l 642 270 l 641 275 l 680 220 q 682 218 680 218 l 689 218 l 689 285 l 680 285 l 680 235 m 586 224 q 567 232 576 224 q 558 251 558 240 q 566 270 558 262 q 586 278 575 278 q 605 270 597 278 q 613 251 613 262 q 605 232 613 240 q 586 224 597 224 m 441 277 q 449 274 445 277 q 453 265 453 270 q 449 257 453 261 q 441 254 445 254 l 426 254 l 426 277 l 441 277 m 1198 252 q 1196 256 1198 254 l 1178 273 l 1176 270 q 1177 264 1173 267 l 1186 255 l 727 255 l 727 248 l 1185 248 l 1177 239 q 1176 233 1174 236 l 1178 230 l 1196 248 q 1198 252 1198 249 m 514 184 q 479 170 493 184 q 464 134 464 156 q 478 99 464 113 q 514 84 492 84 q 551 99 536 84 q 566 134 566 113 q 551 170 566 155 q 514 184 536 184 m 761 100 q 800 84 780 84 q 826 93 816 84 q 836 116 836 102 q 806 149 836 143 q 796 155 796 152 q 800 158 796 158 q 806 157 801 158 q 812 155 810 155 q 825 163 821 155 l 830 172 q 817 181 825 178 q 800 184 808 184 q 776 176 786 184 q 767 155 767 168 q 775 136 767 143 q 800 123 783 129 q 806 116 806 121 q 800 111 806 111 q 791 113 795 111 q 786 116 787 115 q 778 118 783 118 q 765 111 771 118 l 761 100 m 883 134 q 897 99 883 113 q 932 84 911 84 q 954 90 944 84 q 969 104 965 96 l 963 113 q 953 117 959 117 q 944 114 947 117 q 931 111 936 111 q 916 117 922 111 q 910 134 910 124 q 916 151 910 144 q 931 158 922 158 q 939 156 936 158 q 944 154 942 155 q 952 151 947 151 q 963 155 959 151 l 969 164 q 954 178 965 172 q 932 184 944 184 q 897 170 911 184 q 883 134 883 155 m 1027 184 q 991 170 1005 184 q 976 134 976 156 q 991 99 976 113 q 1027 84 1005 84 q 1063 99 1049 84 q 1078 134 1078 113 q 1063 170 1078 156 q 1027 184 1049 184 m 116 85 l 116 113 l 89 113 q 75 108 81 113 l 113 158 q 116 170 116 162 l 116 183 l 41 183 l 41 157 l 69 157 q 78 161 75 157 l 43 111 q 38 106 40 108 q 37 99 37 103 l 37 85 l 116 85 m 196 85 l 196 113 l 157 113 l 157 122 l 189 122 l 189 146 l 157 146 l 157 157 l 196 157 l 196 183 l 130 183 l 130 85 l 196 85 m 202 157 l 228 157 l 228 85 l 256 85 l 256 157 l 279 157 l 279 183 l 202 183 l 202 157 m 313 183 l 270 85 l 292 85 q 299 88 296 85 q 304 96 302 91 l 307 102 l 342 102 l 345 96 q 351 88 346 91 q 358 85 355 85 l 380 85 l 338 183 l 313 183 m 388 85 l 417 85 l 417 119 l 449 119 l 449 143 l 417 143 l 417 157 l 455 157 l 455 183 l 388 183 l 388 85 m 640 149 q 643 131 640 137 l 614 174 q 609 181 612 179 q 601 183 607 183 l 579 183 l 579 85 l 608 85 l 608 125 q 604 142 608 134 l 605 142 l 638 91 q 649 85 642 85 l 669 85 l 669 183 l 640 183 l 640 149 m 680 157 l 704 157 l 704 85 l 733 85 l 733 157 l 759 157 l 759 183 l 680 183 l 680 157 m 1181 183 q 1170 174 1175 183 l 1153 139 q 1150 128 1150 135 l 1148 128 q 1145 139 1148 135 l 1129 174 q 1123 180 1126 178 q 1116 183 1121 183 l 1092 183 l 1092 85 l 1120 85 l 1120 128 q 1116 143 1120 134 l 1118 143 l 1136 102 q 1150 94 1139 94 q 1161 102 1157 94 l 1180 143 q 1178 136 1179 140 q 1178 128 1178 132 l 1178 85 l 1205 85 l 1205 183 l 1181 183 m 514 111 q 498 117 505 111 q 492 134 492 124 q 498 151 492 144 q 514 158 505 158 q 530 151 524 158 q 536 134 536 145 q 530 117 536 124 q 514 111 524 111 m 1027 111 q 1011 117 1018 111 q 1005 134 1005 124 q 1011 151 1005 145 q 1027 158 1018 158 q 1044 151 1036 158 q 1051 134 1051 144 q 1044 117 1051 124 q 1027 111 1036 111 m 321 134 q 324 152 324 141 l 326 152 q 329 134 326 139 l 335 120 l 316 120 l 321 134 m 844 99 q 848 88 844 93 q 859 84 852 84 q 869 88 865 84 q 873 99 873 93 q 869 110 873 105 q 859 114 865 114 q 848 110 852 114 q 844 99 844 105 z "},"4":{"ha":1217,"x_min":37,"x_max":1217,"o":"m 1217 314 l 38 314 l 38 476 l 485 476 l 485 478 l 485 490 q 485 491 485 491 l 485 493 q 486 499 485 496 q 487 505 487 502 q 487 509 487 506 q 489 514 488 511 q 540 591 501 561 q 628 621 578 621 q 700 602 667 621 q 752 550 733 582 q 771 478 771 517 l 771 476 l 1217 476 l 1217 314 m 629 343 q 695 361 665 343 q 743 410 725 379 q 761 476 761 440 q 743 542 761 511 q 695 590 725 572 q 629 607 665 607 q 562 590 593 607 q 514 542 532 572 q 497 476 497 511 q 514 409 497 440 q 562 361 532 379 q 629 343 593 343 m 689 575 q 697 570 693 573 q 706 564 701 567 l 548 564 q 566 577 554 570 q 585 585 579 583 q 628 594 602 594 q 672 585 650 594 l 689 575 m 716 555 q 745 476 745 517 q 739 435 745 454 q 718 399 735 420 l 563 399 l 716 555 m 539 395 q 516 433 523 415 q 509 476 509 453 q 510 494 509 488 q 517 517 511 507 q 537 550 523 536 l 694 550 l 539 395 m 64 423 l 90 423 l 90 347 l 119 347 l 119 423 l 145 423 l 145 450 l 64 450 l 64 423 m 187 379 l 196 379 l 208 356 q 220 347 213 347 l 246 347 l 228 379 q 210 389 220 389 l 213 389 q 228 397 220 389 q 236 414 236 404 q 225 439 236 429 q 199 450 214 450 l 157 450 l 157 347 l 187 347 l 187 379 m 286 347 l 286 450 l 257 450 l 257 347 l 286 347 m 341 450 l 296 347 l 320 347 q 333 357 327 347 l 336 364 l 371 364 l 376 357 q 388 347 381 347 l 411 347 l 367 450 l 341 450 m 422 347 l 487 347 l 487 374 l 450 374 l 450 450 l 422 450 l 422 347 m 847 450 q 809 435 824 450 q 795 397 795 420 q 809 359 795 373 q 847 344 824 344 q 886 359 871 344 q 901 397 901 373 q 886 435 901 420 q 847 450 871 450 m 980 412 q 983 392 980 400 l 951 438 q 946 445 949 444 q 939 447 944 447 l 914 447 l 914 346 l 945 346 l 945 386 q 942 405 945 391 l 976 352 q 989 346 982 346 l 1010 346 l 1010 447 l 980 447 l 980 412 m 1030 346 l 1095 346 l 1095 373 l 1059 373 l 1059 447 l 1030 447 l 1030 346 m 1153 376 q 1155 386 1153 382 l 1192 447 l 1164 447 q 1153 441 1156 447 l 1141 421 q 1139 412 1139 417 q 1136 405 1138 408 q 1133 421 1136 413 l 1122 441 q 1110 447 1118 447 l 1083 447 l 1120 386 q 1122 376 1122 383 l 1122 346 l 1153 346 l 1153 376 m 197 421 q 205 414 205 421 q 203 408 205 411 q 198 406 201 406 l 187 406 l 187 421 l 197 421 m 847 373 q 830 379 837 373 q 823 397 823 386 q 830 414 823 407 q 847 421 837 421 q 864 414 857 421 q 870 397 870 407 q 864 379 870 386 q 847 373 857 373 m 349 398 q 352 405 350 399 q 353 417 353 411 l 355 417 q 358 398 355 404 l 364 385 l 344 385 l 349 398 m 586 364 q 550 386 568 372 l 706 386 q 689 373 691 374 q 681 369 686 372 q 672 364 676 365 q 662 362 668 364 q 649 359 656 360 q 628 356 639 356 q 586 364 604 356 m 43 218 l 50 218 l 50 247 l 78 247 l 78 254 l 50 254 l 50 277 l 84 277 l 84 285 l 43 285 l 43 218 m 121 224 q 108 230 113 224 q 102 244 102 235 l 102 285 l 95 285 l 95 244 q 102 224 95 231 q 121 217 109 217 q 141 224 133 217 q 149 244 149 232 l 149 285 l 140 285 l 140 244 q 135 229 140 234 q 121 224 130 224 m 166 218 l 202 218 l 202 225 l 174 225 l 174 285 l 166 285 l 166 218 m 217 218 l 254 218 l 254 225 l 223 225 l 223 285 l 217 285 l 217 218 m 346 285 q 343 284 345 285 q 342 282 342 284 l 321 233 q 320 226 320 230 l 319 226 q 318 233 319 230 l 296 282 q 291 285 296 285 l 286 285 l 316 218 l 323 218 l 351 285 l 346 285 m 403 218 l 403 225 l 368 225 l 368 248 l 397 248 l 397 256 l 368 256 l 368 277 l 403 277 l 403 285 l 362 285 l 362 218 l 403 218 m 426 246 l 435 246 l 455 221 q 463 218 459 218 l 467 218 l 447 245 q 444 247 447 247 l 444 247 q 455 253 450 248 q 461 265 461 258 q 455 279 461 273 q 441 285 449 285 l 417 285 l 417 218 l 426 218 l 426 246 m 472 227 q 482 220 476 223 q 493 217 488 217 q 509 222 503 217 q 514 237 514 228 q 495 257 514 252 q 484 268 484 262 q 494 278 484 278 q 506 275 500 278 q 510 277 508 274 l 511 279 q 494 285 506 285 q 481 281 486 285 q 475 268 475 276 q 493 250 475 257 q 508 237 508 244 q 504 227 508 231 q 493 224 500 224 q 479 230 486 226 q 476 230 479 231 q 473 228 474 230 l 472 227 m 536 218 l 536 285 l 530 285 l 530 218 l 536 218 m 586 285 q 561 275 571 285 q 551 251 551 265 q 561 227 551 237 q 586 217 571 217 q 611 226 601 217 q 621 251 621 236 q 611 276 621 266 q 586 285 601 285 m 680 235 q 681 230 680 231 l 646 283 q 640 285 643 285 l 634 285 l 634 218 l 642 218 l 642 270 l 641 275 l 680 220 q 682 218 680 218 l 689 218 l 689 285 l 680 285 l 680 235 m 586 224 q 567 232 576 224 q 558 251 558 240 q 566 270 558 262 q 586 278 575 278 q 605 270 597 278 q 613 251 613 262 q 605 232 613 240 q 586 224 597 224 m 441 277 q 449 274 445 277 q 453 265 453 270 q 449 257 453 261 q 441 254 445 254 l 426 254 l 426 277 l 441 277 m 1198 252 q 1196 256 1198 254 l 1178 273 l 1176 270 q 1177 264 1173 267 l 1186 255 l 727 255 l 727 248 l 1185 248 l 1177 239 q 1176 233 1174 236 l 1178 230 l 1196 248 q 1198 252 1198 249 m 514 184 q 479 170 493 184 q 464 134 464 156 q 478 99 464 113 q 514 84 492 84 q 551 99 536 84 q 566 134 566 113 q 551 170 566 155 q 514 184 536 184 m 761 100 q 800 84 780 84 q 826 93 816 84 q 836 116 836 102 q 806 149 836 143 q 796 155 796 152 q 800 158 796 158 q 806 157 801 158 q 812 155 810 155 q 825 163 821 155 l 830 172 q 817 181 825 178 q 800 184 808 184 q 776 176 786 184 q 767 155 767 168 q 775 136 767 143 q 800 123 783 129 q 806 116 806 121 q 800 111 806 111 q 791 113 795 111 q 786 116 787 115 q 778 118 783 118 q 765 111 771 118 l 761 100 m 883 134 q 897 99 883 113 q 932 84 911 84 q 954 90 944 84 q 969 104 965 96 l 963 113 q 953 117 959 117 q 944 114 947 117 q 931 111 936 111 q 916 117 922 111 q 910 134 910 124 q 916 151 910 144 q 931 158 922 158 q 939 156 936 158 q 944 154 942 155 q 952 151 947 151 q 963 155 959 151 l 969 164 q 954 178 965 172 q 932 184 944 184 q 897 170 911 184 q 883 134 883 155 m 1027 184 q 991 170 1005 184 q 976 134 976 156 q 991 99 976 113 q 1027 84 1005 84 q 1063 99 1049 84 q 1078 134 1078 113 q 1063 170 1078 156 q 1027 184 1049 184 m 116 85 l 116 113 l 89 113 q 75 108 81 113 l 113 158 q 116 170 116 162 l 116 183 l 41 183 l 41 157 l 69 157 q 78 161 75 157 l 43 111 q 38 106 40 108 q 37 99 37 103 l 37 85 l 116 85 m 196 85 l 196 113 l 157 113 l 157 122 l 189 122 l 189 146 l 157 146 l 157 157 l 196 157 l 196 183 l 130 183 l 130 85 l 196 85 m 202 157 l 228 157 l 228 85 l 256 85 l 256 157 l 279 157 l 279 183 l 202 183 l 202 157 m 313 183 l 270 85 l 292 85 q 299 88 296 85 q 304 96 302 91 l 307 102 l 342 102 l 345 96 q 351 88 346 91 q 358 85 355 85 l 380 85 l 338 183 l 313 183 m 388 85 l 417 85 l 417 119 l 449 119 l 449 143 l 417 143 l 417 157 l 455 157 l 455 183 l 388 183 l 388 85 m 640 149 q 643 131 640 137 l 614 174 q 609 181 612 179 q 601 183 607 183 l 579 183 l 579 85 l 608 85 l 608 125 q 604 142 608 134 l 605 142 l 638 91 q 649 85 642 85 l 669 85 l 669 183 l 640 183 l 640 149 m 680 157 l 704 157 l 704 85 l 733 85 l 733 157 l 759 157 l 759 183 l 680 183 l 680 157 m 1181 183 q 1170 174 1175 183 l 1153 139 q 1150 128 1150 135 l 1148 128 q 1145 139 1148 135 l 1129 174 q 1123 180 1126 178 q 1116 183 1121 183 l 1092 183 l 1092 85 l 1120 85 l 1120 128 q 1116 143 1120 134 l 1118 143 l 1136 102 q 1150 94 1139 94 q 1161 102 1157 94 l 1180 143 q 1178 136 1179 140 q 1178 128 1178 132 l 1178 85 l 1205 85 l 1205 183 l 1181 183 m 514 111 q 498 117 505 111 q 492 134 492 124 q 498 151 492 144 q 514 158 505 158 q 530 151 524 158 q 536 134 536 145 q 530 117 536 124 q 514 111 524 111 m 1027 111 q 1011 117 1018 111 q 1005 134 1005 124 q 1011 151 1005 145 q 1027 158 1018 158 q 1044 151 1036 158 q 1051 134 1051 144 q 1044 117 1051 124 q 1027 111 1036 111 m 321 134 q 324 152 324 141 l 326 152 q 329 134 326 139 l 335 120 l 316 120 l 321 134 m 844 99 q 848 88 844 93 q 859 84 852 84 q 869 88 865 84 q 873 99 873 93 q 869 110 873 105 q 859 114 865 114 q 848 110 852 114 q 844 99 844 105 z "},"5":{"ha":1217,"x_min":37,"x_max":1217,"o":"m 1217 314 l 38 314 l 38 476 l 485 476 l 485 478 l 485 490 q 485 491 485 491 l 485 493 q 486 499 485 496 q 487 505 487 502 q 487 509 487 506 q 489 514 488 511 q 540 591 501 561 q 628 621 578 621 q 700 602 667 621 q 752 550 733 582 q 771 478 771 517 l 771 476 l 1217 476 l 1217 314 m 629 343 q 695 361 665 343 q 743 410 725 379 q 761 476 761 440 q 743 542 761 511 q 695 590 725 572 q 629 607 665 607 q 562 590 593 607 q 514 542 532 572 q 497 476 497 511 q 514 409 497 440 q 562 361 532 379 q 629 343 593 343 m 689 575 q 697 570 693 573 q 706 564 701 567 l 548 564 q 566 577 554 570 q 585 585 579 583 q 628 594 602 594 q 672 585 650 594 l 689 575 m 716 555 q 745 476 745 517 q 739 435 745 454 q 718 399 735 420 l 563 399 l 716 555 m 539 395 q 516 433 523 415 q 509 476 509 453 q 510 494 509 488 q 517 517 511 507 q 537 550 523 536 l 694 550 l 539 395 m 64 423 l 90 423 l 90 347 l 119 347 l 119 423 l 145 423 l 145 450 l 64 450 l 64 423 m 187 379 l 196 379 l 208 356 q 220 347 213 347 l 246 347 l 228 379 q 210 389 220 389 l 213 389 q 228 397 220 389 q 236 414 236 404 q 225 439 236 429 q 199 450 214 450 l 157 450 l 157 347 l 187 347 l 187 379 m 286 347 l 286 450 l 257 450 l 257 347 l 286 347 m 341 450 l 296 347 l 320 347 q 333 357 327 347 l 336 364 l 371 364 l 376 357 q 388 347 381 347 l 411 347 l 367 450 l 341 450 m 422 347 l 487 347 l 487 374 l 450 374 l 450 450 l 422 450 l 422 347 m 847 450 q 809 435 824 450 q 795 397 795 420 q 809 359 795 373 q 847 344 824 344 q 886 359 871 344 q 901 397 901 373 q 886 435 901 420 q 847 450 871 450 m 980 412 q 983 392 980 400 l 951 438 q 946 445 949 444 q 939 447 944 447 l 914 447 l 914 346 l 945 346 l 945 386 q 942 405 945 391 l 976 352 q 989 346 982 346 l 1010 346 l 1010 447 l 980 447 l 980 412 m 1030 346 l 1095 346 l 1095 373 l 1059 373 l 1059 447 l 1030 447 l 1030 346 m 1153 376 q 1155 386 1153 382 l 1192 447 l 1164 447 q 1153 441 1156 447 l 1141 421 q 1139 412 1139 417 q 1136 405 1138 408 q 1133 421 1136 413 l 1122 441 q 1110 447 1118 447 l 1083 447 l 1120 386 q 1122 376 1122 383 l 1122 346 l 1153 346 l 1153 376 m 197 421 q 205 414 205 421 q 203 408 205 411 q 198 406 201 406 l 187 406 l 187 421 l 197 421 m 847 373 q 830 379 837 373 q 823 397 823 386 q 830 414 823 407 q 847 421 837 421 q 864 414 857 421 q 870 397 870 407 q 864 379 870 386 q 847 373 857 373 m 349 398 q 352 405 350 399 q 353 417 353 411 l 355 417 q 358 398 355 404 l 364 385 l 344 385 l 349 398 m 586 364 q 550 386 568 372 l 706 386 q 689 373 691 374 q 681 369 686 372 q 672 364 676 365 q 662 362 668 364 q 649 359 656 360 q 628 356 639 356 q 586 364 604 356 m 43 218 l 50 218 l 50 247 l 78 247 l 78 254 l 50 254 l 50 277 l 84 277 l 84 285 l 43 285 l 43 218 m 121 224 q 108 230 113 224 q 102 244 102 235 l 102 285 l 95 285 l 95 244 q 102 224 95 231 q 121 217 109 217 q 141 224 133 217 q 149 244 149 232 l 149 285 l 140 285 l 140 244 q 135 229 140 234 q 121 224 130 224 m 166 218 l 202 218 l 202 225 l 174 225 l 174 285 l 166 285 l 166 218 m 217 218 l 254 218 l 254 225 l 223 225 l 223 285 l 217 285 l 217 218 m 346 285 q 343 284 345 285 q 342 282 342 284 l 321 233 q 320 226 320 230 l 319 226 q 318 233 319 230 l 296 282 q 291 285 296 285 l 286 285 l 316 218 l 323 218 l 351 285 l 346 285 m 403 218 l 403 225 l 368 225 l 368 248 l 397 248 l 397 256 l 368 256 l 368 277 l 403 277 l 403 285 l 362 285 l 362 218 l 403 218 m 426 246 l 435 246 l 455 221 q 463 218 459 218 l 467 218 l 447 245 q 444 247 447 247 l 444 247 q 455 253 450 248 q 461 265 461 258 q 455 279 461 273 q 441 285 449 285 l 417 285 l 417 218 l 426 218 l 426 246 m 472 227 q 482 220 476 223 q 493 217 488 217 q 509 222 503 217 q 514 237 514 228 q 495 257 514 252 q 484 268 484 262 q 494 278 484 278 q 506 275 500 278 q 510 277 508 274 l 511 279 q 494 285 506 285 q 481 281 486 285 q 475 268 475 276 q 493 250 475 257 q 508 237 508 244 q 504 227 508 231 q 493 224 500 224 q 479 230 486 226 q 476 230 479 231 q 473 228 474 230 l 472 227 m 536 218 l 536 285 l 530 285 l 530 218 l 536 218 m 586 285 q 561 275 571 285 q 551 251 551 265 q 561 227 551 237 q 586 217 571 217 q 611 226 601 217 q 621 251 621 236 q 611 276 621 266 q 586 285 601 285 m 680 235 q 681 230 680 231 l 646 283 q 640 285 643 285 l 634 285 l 634 218 l 642 218 l 642 270 l 641 275 l 680 220 q 682 218 680 218 l 689 218 l 689 285 l 680 285 l 680 235 m 586 224 q 567 232 576 224 q 558 251 558 240 q 566 270 558 262 q 586 278 575 278 q 605 270 597 278 q 613 251 613 262 q 605 232 613 240 q 586 224 597 224 m 441 277 q 449 274 445 277 q 453 265 453 270 q 449 257 453 261 q 441 254 445 254 l 426 254 l 426 277 l 441 277 m 1198 252 q 1196 256 1198 254 l 1178 273 l 1176 270 q 1177 264 1173 267 l 1186 255 l 727 255 l 727 248 l 1185 248 l 1177 239 q 1176 233 1174 236 l 1178 230 l 1196 248 q 1198 252 1198 249 m 514 184 q 479 170 493 184 q 464 134 464 156 q 478 99 464 113 q 514 84 492 84 q 551 99 536 84 q 566 134 566 113 q 551 170 566 155 q 514 184 536 184 m 761 100 q 800 84 780 84 q 826 93 816 84 q 836 116 836 102 q 806 149 836 143 q 796 155 796 152 q 800 158 796 158 q 806 157 801 158 q 812 155 810 155 q 825 163 821 155 l 830 172 q 817 181 825 178 q 800 184 808 184 q 776 176 786 184 q 767 155 767 168 q 775 136 767 143 q 800 123 783 129 q 806 116 806 121 q 800 111 806 111 q 791 113 795 111 q 786 116 787 115 q 778 118 783 118 q 765 111 771 118 l 761 100 m 883 134 q 897 99 883 113 q 932 84 911 84 q 954 90 944 84 q 969 104 965 96 l 963 113 q 953 117 959 117 q 944 114 947 117 q 931 111 936 111 q 916 117 922 111 q 910 134 910 124 q 916 151 910 144 q 931 158 922 158 q 939 156 936 158 q 944 154 942 155 q 952 151 947 151 q 963 155 959 151 l 969 164 q 954 178 965 172 q 932 184 944 184 q 897 170 911 184 q 883 134 883 155 m 1027 184 q 991 170 1005 184 q 976 134 976 156 q 991 99 976 113 q 1027 84 1005 84 q 1063 99 1049 84 q 1078 134 1078 113 q 1063 170 1078 156 q 1027 184 1049 184 m 116 85 l 116 113 l 89 113 q 75 108 81 113 l 113 158 q 116 170 116 162 l 116 183 l 41 183 l 41 157 l 69 157 q 78 161 75 157 l 43 111 q 38 106 40 108 q 37 99 37 103 l 37 85 l 116 85 m 196 85 l 196 113 l 157 113 l 157 122 l 189 122 l 189 146 l 157 146 l 157 157 l 196 157 l 196 183 l 130 183 l 130 85 l 196 85 m 202 157 l 228 157 l 228 85 l 256 85 l 256 157 l 279 157 l 279 183 l 202 183 l 202 157 m 313 183 l 270 85 l 292 85 q 299 88 296 85 q 304 96 302 91 l 307 102 l 342 102 l 345 96 q 351 88 346 91 q 358 85 355 85 l 380 85 l 338 183 l 313 183 m 388 85 l 417 85 l 417 119 l 449 119 l 449 143 l 417 143 l 417 157 l 455 157 l 455 183 l 388 183 l 388 85 m 640 149 q 643 131 640 137 l 614 174 q 609 181 612 179 q 601 183 607 183 l 579 183 l 579 85 l 608 85 l 608 125 q 604 142 608 134 l 605 142 l 638 91 q 649 85 642 85 l 669 85 l 669 183 l 640 183 l 640 149 m 680 157 l 704 157 l 704 85 l 733 85 l 733 157 l 759 157 l 759 183 l 680 183 l 680 157 m 1181 183 q 1170 174 1175 183 l 1153 139 q 1150 128 1150 135 l 1148 128 q 1145 139 1148 135 l 1129 174 q 1123 180 1126 178 q 1116 183 1121 183 l 1092 183 l 1092 85 l 1120 85 l 1120 128 q 1116 143 1120 134 l 1118 143 l 1136 102 q 1150 94 1139 94 q 1161 102 1157 94 l 1180 143 q 1178 136 1179 140 q 1178 128 1178 132 l 1178 85 l 1205 85 l 1205 183 l 1181 183 m 514 111 q 498 117 505 111 q 492 134 492 124 q 498 151 492 144 q 514 158 505 158 q 530 151 524 158 q 536 134 536 145 q 530 117 536 124 q 514 111 524 111 m 1027 111 q 1011 117 1018 111 q 1005 134 1005 124 q 1011 151 1005 145 q 1027 158 1018 158 q 1044 151 1036 158 q 1051 134 1051 144 q 1044 117 1051 124 q 1027 111 1036 111 m 321 134 q 324 152 324 141 l 326 152 q 329 134 326 139 l 335 120 l 316 120 l 321 134 m 844 99 q 848 88 844 93 q 859 84 852 84 q 869 88 865 84 q 873 99 873 93 q 869 110 873 105 q 859 114 865 114 q 848 110 852 114 q 844 99 844 105 z "},"6":{"ha":1217,"x_min":37,"x_max":1217,"o":"m 1217 314 l 38 314 l 38 476 l 485 476 l 485 478 l 485 490 q 485 491 485 491 l 485 493 q 486 499 485 496 q 487 505 487 502 q 487 509 487 506 q 489 514 488 511 q 540 591 501 561 q 628 621 578 621 q 700 602 667 621 q 752 550 733 582 q 771 478 771 517 l 771 476 l 1217 476 l 1217 314 m 629 343 q 695 361 665 343 q 743 410 725 379 q 761 476 761 440 q 743 542 761 511 q 695 590 725 572 q 629 607 665 607 q 562 590 593 607 q 514 542 532 572 q 497 476 497 511 q 514 409 497 440 q 562 361 532 379 q 629 343 593 343 m 689 575 q 697 570 693 573 q 706 564 701 567 l 548 564 q 566 577 554 570 q 585 585 579 583 q 628 594 602 594 q 672 585 650 594 l 689 575 m 716 555 q 745 476 745 517 q 739 435 745 454 q 718 399 735 420 l 563 399 l 716 555 m 539 395 q 516 433 523 415 q 509 476 509 453 q 510 494 509 488 q 517 517 511 507 q 537 550 523 536 l 694 550 l 539 395 m 64 423 l 90 423 l 90 347 l 119 347 l 119 423 l 145 423 l 145 450 l 64 450 l 64 423 m 187 379 l 196 379 l 208 356 q 220 347 213 347 l 246 347 l 228 379 q 210 389 220 389 l 213 389 q 228 397 220 389 q 236 414 236 404 q 225 439 236 429 q 199 450 214 450 l 157 450 l 157 347 l 187 347 l 187 379 m 286 347 l 286 450 l 257 450 l 257 347 l 286 347 m 341 450 l 296 347 l 320 347 q 333 357 327 347 l 336 364 l 371 364 l 376 357 q 388 347 381 347 l 411 347 l 367 450 l 341 450 m 422 347 l 487 347 l 487 374 l 450 374 l 450 450 l 422 450 l 422 347 m 847 450 q 809 435 824 450 q 795 397 795 420 q 809 359 795 373 q 847 344 824 344 q 886 359 871 344 q 901 397 901 373 q 886 435 901 420 q 847 450 871 450 m 980 412 q 983 392 980 400 l 951 438 q 946 445 949 444 q 939 447 944 447 l 914 447 l 914 346 l 945 346 l 945 386 q 942 405 945 391 l 976 352 q 989 346 982 346 l 1010 346 l 1010 447 l 980 447 l 980 412 m 1030 346 l 1095 346 l 1095 373 l 1059 373 l 1059 447 l 1030 447 l 1030 346 m 1153 376 q 1155 386 1153 382 l 1192 447 l 1164 447 q 1153 441 1156 447 l 1141 421 q 1139 412 1139 417 q 1136 405 1138 408 q 1133 421 1136 413 l 1122 441 q 1110 447 1118 447 l 1083 447 l 1120 386 q 1122 376 1122 383 l 1122 346 l 1153 346 l 1153 376 m 197 421 q 205 414 205 421 q 203 408 205 411 q 198 406 201 406 l 187 406 l 187 421 l 197 421 m 847 373 q 830 379 837 373 q 823 397 823 386 q 830 414 823 407 q 847 421 837 421 q 864 414 857 421 q 870 397 870 407 q 864 379 870 386 q 847 373 857 373 m 349 398 q 352 405 350 399 q 353 417 353 411 l 355 417 q 358 398 355 404 l 364 385 l 344 385 l 349 398 m 586 364 q 550 386 568 372 l 706 386 q 689 373 691 374 q 681 369 686 372 q 672 364 676 365 q 662 362 668 364 q 649 359 656 360 q 628 356 639 356 q 586 364 604 356 m 43 218 l 50 218 l 50 247 l 78 247 l 78 254 l 50 254 l 50 277 l 84 277 l 84 285 l 43 285 l 43 218 m 121 224 q 108 230 113 224 q 102 244 102 235 l 102 285 l 95 285 l 95 244 q 102 224 95 231 q 121 217 109 217 q 141 224 133 217 q 149 244 149 232 l 149 285 l 140 285 l 140 244 q 135 229 140 234 q 121 224 130 224 m 166 218 l 202 218 l 202 225 l 174 225 l 174 285 l 166 285 l 166 218 m 217 218 l 254 218 l 254 225 l 223 225 l 223 285 l 217 285 l 217 218 m 346 285 q 343 284 345 285 q 342 282 342 284 l 321 233 q 320 226 320 230 l 319 226 q 318 233 319 230 l 296 282 q 291 285 296 285 l 286 285 l 316 218 l 323 218 l 351 285 l 346 285 m 403 218 l 403 225 l 368 225 l 368 248 l 397 248 l 397 256 l 368 256 l 368 277 l 403 277 l 403 285 l 362 285 l 362 218 l 403 218 m 426 246 l 435 246 l 455 221 q 463 218 459 218 l 467 218 l 447 245 q 444 247 447 247 l 444 247 q 455 253 450 248 q 461 265 461 258 q 455 279 461 273 q 441 285 449 285 l 417 285 l 417 218 l 426 218 l 426 246 m 472 227 q 482 220 476 223 q 493 217 488 217 q 509 222 503 217 q 514 237 514 228 q 495 257 514 252 q 484 268 484 262 q 494 278 484 278 q 506 275 500 278 q 510 277 508 274 l 511 279 q 494 285 506 285 q 481 281 486 285 q 475 268 475 276 q 493 250 475 257 q 508 237 508 244 q 504 227 508 231 q 493 224 500 224 q 479 230 486 226 q 476 230 479 231 q 473 228 474 230 l 472 227 m 536 218 l 536 285 l 530 285 l 530 218 l 536 218 m 586 285 q 561 275 571 285 q 551 251 551 265 q 561 227 551 237 q 586 217 571 217 q 611 226 601 217 q 621 251 621 236 q 611 276 621 266 q 586 285 601 285 m 680 235 q 681 230 680 231 l 646 283 q 640 285 643 285 l 634 285 l 634 218 l 642 218 l 642 270 l 641 275 l 680 220 q 682 218 680 218 l 689 218 l 689 285 l 680 285 l 680 235 m 586 224 q 567 232 576 224 q 558 251 558 240 q 566 270 558 262 q 586 278 575 278 q 605 270 597 278 q 613 251 613 262 q 605 232 613 240 q 586 224 597 224 m 441 277 q 449 274 445 277 q 453 265 453 270 q 449 257 453 261 q 441 254 445 254 l 426 254 l 426 277 l 441 277 m 1198 252 q 1196 256 1198 254 l 1178 273 l 1176 270 q 1177 264 1173 267 l 1186 255 l 727 255 l 727 248 l 1185 248 l 1177 239 q 1176 233 1174 236 l 1178 230 l 1196 248 q 1198 252 1198 249 m 514 184 q 479 170 493 184 q 464 134 464 156 q 478 99 464 113 q 514 84 492 84 q 551 99 536 84 q 566 134 566 113 q 551 170 566 155 q 514 184 536 184 m 761 100 q 800 84 780 84 q 826 93 816 84 q 836 116 836 102 q 806 149 836 143 q 796 155 796 152 q 800 158 796 158 q 806 157 801 158 q 812 155 810 155 q 825 163 821 155 l 830 172 q 817 181 825 178 q 800 184 808 184 q 776 176 786 184 q 767 155 767 168 q 775 136 767 143 q 800 123 783 129 q 806 116 806 121 q 800 111 806 111 q 791 113 795 111 q 786 116 787 115 q 778 118 783 118 q 765 111 771 118 l 761 100 m 883 134 q 897 99 883 113 q 932 84 911 84 q 954 90 944 84 q 969 104 965 96 l 963 113 q 953 117 959 117 q 944 114 947 117 q 931 111 936 111 q 916 117 922 111 q 910 134 910 124 q 916 151 910 144 q 931 158 922 158 q 939 156 936 158 q 944 154 942 155 q 952 151 947 151 q 963 155 959 151 l 969 164 q 954 178 965 172 q 932 184 944 184 q 897 170 911 184 q 883 134 883 155 m 1027 184 q 991 170 1005 184 q 976 134 976 156 q 991 99 976 113 q 1027 84 1005 84 q 1063 99 1049 84 q 1078 134 1078 113 q 1063 170 1078 156 q 1027 184 1049 184 m 116 85 l 116 113 l 89 113 q 75 108 81 113 l 113 158 q 116 170 116 162 l 116 183 l 41 183 l 41 157 l 69 157 q 78 161 75 157 l 43 111 q 38 106 40 108 q 37 99 37 103 l 37 85 l 116 85 m 196 85 l 196 113 l 157 113 l 157 122 l 189 122 l 189 146 l 157 146 l 157 157 l 196 157 l 196 183 l 130 183 l 130 85 l 196 85 m 202 157 l 228 157 l 228 85 l 256 85 l 256 157 l 279 157 l 279 183 l 202 183 l 202 157 m 313 183 l 270 85 l 292 85 q 299 88 296 85 q 304 96 302 91 l 307 102 l 342 102 l 345 96 q 351 88 346 91 q 358 85 355 85 l 380 85 l 338 183 l 313 183 m 388 85 l 417 85 l 417 119 l 449 119 l 449 143 l 417 143 l 417 157 l 455 157 l 455 183 l 388 183 l 388 85 m 640 149 q 643 131 640 137 l 614 174 q 609 181 612 179 q 601 183 607 183 l 579 183 l 579 85 l 608 85 l 608 125 q 604 142 608 134 l 605 142 l 638 91 q 649 85 642 85 l 669 85 l 669 183 l 640 183 l 640 149 m 680 157 l 704 157 l 704 85 l 733 85 l 733 157 l 759 157 l 759 183 l 680 183 l 680 157 m 1181 183 q 1170 174 1175 183 l 1153 139 q 1150 128 1150 135 l 1148 128 q 1145 139 1148 135 l 1129 174 q 1123 180 1126 178 q 1116 183 1121 183 l 1092 183 l 1092 85 l 1120 85 l 1120 128 q 1116 143 1120 134 l 1118 143 l 1136 102 q 1150 94 1139 94 q 1161 102 1157 94 l 1180 143 q 1178 136 1179 140 q 1178 128 1178 132 l 1178 85 l 1205 85 l 1205 183 l 1181 183 m 514 111 q 498 117 505 111 q 492 134 492 124 q 498 151 492 144 q 514 158 505 158 q 530 151 524 158 q 536 134 536 145 q 530 117 536 124 q 514 111 524 111 m 1027 111 q 1011 117 1018 111 q 1005 134 1005 124 q 1011 151 1005 145 q 1027 158 1018 158 q 1044 151 1036 158 q 1051 134 1051 144 q 1044 117 1051 124 q 1027 111 1036 111 m 321 134 q 324 152 324 141 l 326 152 q 329 134 326 139 l 335 120 l 316 120 l 321 134 m 844 99 q 848 88 844 93 q 859 84 852 84 q 869 88 865 84 q 873 99 873 93 q 869 110 873 105 q 859 114 865 114 q 848 110 852 114 q 844 99 844 105 z "},"7":{"ha":1217,"x_min":37,"x_max":1217,"o":"m 1217 314 l 38 314 l 38 476 l 485 476 l 485 478 l 485 490 q 485 491 485 491 l 485 493 q 486 499 485 496 q 487 505 487 502 q 487 509 487 506 q 489 514 488 511 q 540 591 501 561 q 628 621 578 621 q 700 602 667 621 q 752 550 733 582 q 771 478 771 517 l 771 476 l 1217 476 l 1217 314 m 629 343 q 695 361 665 343 q 743 410 725 379 q 761 476 761 440 q 743 542 761 511 q 695 590 725 572 q 629 607 665 607 q 562 590 593 607 q 514 542 532 572 q 497 476 497 511 q 514 409 497 440 q 562 361 532 379 q 629 343 593 343 m 689 575 q 697 570 693 573 q 706 564 701 567 l 548 564 q 566 577 554 570 q 585 585 579 583 q 628 594 602 594 q 672 585 650 594 l 689 575 m 716 555 q 745 476 745 517 q 739 435 745 454 q 718 399 735 420 l 563 399 l 716 555 m 539 395 q 516 433 523 415 q 509 476 509 453 q 510 494 509 488 q 517 517 511 507 q 537 550 523 536 l 694 550 l 539 395 m 64 423 l 90 423 l 90 347 l 119 347 l 119 423 l 145 423 l 145 450 l 64 450 l 64 423 m 187 379 l 196 379 l 208 356 q 220 347 213 347 l 246 347 l 228 379 q 210 389 220 389 l 213 389 q 228 397 220 389 q 236 414 236 404 q 225 439 236 429 q 199 450 214 450 l 157 450 l 157 347 l 187 347 l 187 379 m 286 347 l 286 450 l 257 450 l 257 347 l 286 347 m 341 450 l 296 347 l 320 347 q 333 357 327 347 l 336 364 l 371 364 l 376 357 q 388 347 381 347 l 411 347 l 367 450 l 341 450 m 422 347 l 487 347 l 487 374 l 450 374 l 450 450 l 422 450 l 422 347 m 847 450 q 809 435 824 450 q 795 397 795 420 q 809 359 795 373 q 847 344 824 344 q 886 359 871 344 q 901 397 901 373 q 886 435 901 420 q 847 450 871 450 m 980 412 q 983 392 980 400 l 951 438 q 946 445 949 444 q 939 447 944 447 l 914 447 l 914 346 l 945 346 l 945 386 q 942 405 945 391 l 976 352 q 989 346 982 346 l 1010 346 l 1010 447 l 980 447 l 980 412 m 1030 346 l 1095 346 l 1095 373 l 1059 373 l 1059 447 l 1030 447 l 1030 346 m 1153 376 q 1155 386 1153 382 l 1192 447 l 1164 447 q 1153 441 1156 447 l 1141 421 q 1139 412 1139 417 q 1136 405 1138 408 q 1133 421 1136 413 l 1122 441 q 1110 447 1118 447 l 1083 447 l 1120 386 q 1122 376 1122 383 l 1122 346 l 1153 346 l 1153 376 m 197 421 q 205 414 205 421 q 203 408 205 411 q 198 406 201 406 l 187 406 l 187 421 l 197 421 m 847 373 q 830 379 837 373 q 823 397 823 386 q 830 414 823 407 q 847 421 837 421 q 864 414 857 421 q 870 397 870 407 q 864 379 870 386 q 847 373 857 373 m 349 398 q 352 405 350 399 q 353 417 353 411 l 355 417 q 358 398 355 404 l 364 385 l 344 385 l 349 398 m 586 364 q 550 386 568 372 l 706 386 q 689 373 691 374 q 681 369 686 372 q 672 364 676 365 q 662 362 668 364 q 649 359 656 360 q 628 356 639 356 q 586 364 604 356 m 43 218 l 50 218 l 50 247 l 78 247 l 78 254 l 50 254 l 50 277 l 84 277 l 84 285 l 43 285 l 43 218 m 121 224 q 108 230 113 224 q 102 244 102 235 l 102 285 l 95 285 l 95 244 q 102 224 95 231 q 121 217 109 217 q 141 224 133 217 q 149 244 149 232 l 149 285 l 140 285 l 140 244 q 135 229 140 234 q 121 224 130 224 m 166 218 l 202 218 l 202 225 l 174 225 l 174 285 l 166 285 l 166 218 m 217 218 l 254 218 l 254 225 l 223 225 l 223 285 l 217 285 l 217 218 m 346 285 q 343 284 345 285 q 342 282 342 284 l 321 233 q 320 226 320 230 l 319 226 q 318 233 319 230 l 296 282 q 291 285 296 285 l 286 285 l 316 218 l 323 218 l 351 285 l 346 285 m 403 218 l 403 225 l 368 225 l 368 248 l 397 248 l 397 256 l 368 256 l 368 277 l 403 277 l 403 285 l 362 285 l 362 218 l 403 218 m 426 246 l 435 246 l 455 221 q 463 218 459 218 l 467 218 l 447 245 q 444 247 447 247 l 444 247 q 455 253 450 248 q 461 265 461 258 q 455 279 461 273 q 441 285 449 285 l 417 285 l 417 218 l 426 218 l 426 246 m 472 227 q 482 220 476 223 q 493 217 488 217 q 509 222 503 217 q 514 237 514 228 q 495 257 514 252 q 484 268 484 262 q 494 278 484 278 q 506 275 500 278 q 510 277 508 274 l 511 279 q 494 285 506 285 q 481 281 486 285 q 475 268 475 276 q 493 250 475 257 q 508 237 508 244 q 504 227 508 231 q 493 224 500 224 q 479 230 486 226 q 476 230 479 231 q 473 228 474 230 l 472 227 m 536 218 l 536 285 l 530 285 l 530 218 l 536 218 m 586 285 q 561 275 571 285 q 551 251 551 265 q 561 227 551 237 q 586 217 571 217 q 611 226 601 217 q 621 251 621 236 q 611 276 621 266 q 586 285 601 285 m 680 235 q 681 230 680 231 l 646 283 q 640 285 643 285 l 634 285 l 634 218 l 642 218 l 642 270 l 641 275 l 680 220 q 682 218 680 218 l 689 218 l 689 285 l 680 285 l 680 235 m 586 224 q 567 232 576 224 q 558 251 558 240 q 566 270 558 262 q 586 278 575 278 q 605 270 597 278 q 613 251 613 262 q 605 232 613 240 q 586 224 597 224 m 441 277 q 449 274 445 277 q 453 265 453 270 q 449 257 453 261 q 441 254 445 254 l 426 254 l 426 277 l 441 277 m 1198 252 q 1196 256 1198 254 l 1178 273 l 1176 270 q 1177 264 1173 267 l 1186 255 l 727 255 l 727 248 l 1185 248 l 1177 239 q 1176 233 1174 236 l 1178 230 l 1196 248 q 1198 252 1198 249 m 514 184 q 479 170 493 184 q 464 134 464 156 q 478 99 464 113 q 514 84 492 84 q 551 99 536 84 q 566 134 566 113 q 551 170 566 155 q 514 184 536 184 m 761 100 q 800 84 780 84 q 826 93 816 84 q 836 116 836 102 q 806 149 836 143 q 796 155 796 152 q 800 158 796 158 q 806 157 801 158 q 812 155 810 155 q 825 163 821 155 l 830 172 q 817 181 825 178 q 800 184 808 184 q 776 176 786 184 q 767 155 767 168 q 775 136 767 143 q 800 123 783 129 q 806 116 806 121 q 800 111 806 111 q 791 113 795 111 q 786 116 787 115 q 778 118 783 118 q 765 111 771 118 l 761 100 m 883 134 q 897 99 883 113 q 932 84 911 84 q 954 90 944 84 q 969 104 965 96 l 963 113 q 953 117 959 117 q 944 114 947 117 q 931 111 936 111 q 916 117 922 111 q 910 134 910 124 q 916 151 910 144 q 931 158 922 158 q 939 156 936 158 q 944 154 942 155 q 952 151 947 151 q 963 155 959 151 l 969 164 q 954 178 965 172 q 932 184 944 184 q 897 170 911 184 q 883 134 883 155 m 1027 184 q 991 170 1005 184 q 976 134 976 156 q 991 99 976 113 q 1027 84 1005 84 q 1063 99 1049 84 q 1078 134 1078 113 q 1063 170 1078 156 q 1027 184 1049 184 m 116 85 l 116 113 l 89 113 q 75 108 81 113 l 113 158 q 116 170 116 162 l 116 183 l 41 183 l 41 157 l 69 157 q 78 161 75 157 l 43 111 q 38 106 40 108 q 37 99 37 103 l 37 85 l 116 85 m 196 85 l 196 113 l 157 113 l 157 122 l 189 122 l 189 146 l 157 146 l 157 157 l 196 157 l 196 183 l 130 183 l 130 85 l 196 85 m 202 157 l 228 157 l 228 85 l 256 85 l 256 157 l 279 157 l 279 183 l 202 183 l 202 157 m 313 183 l 270 85 l 292 85 q 299 88 296 85 q 304 96 302 91 l 307 102 l 342 102 l 345 96 q 351 88 346 91 q 358 85 355 85 l 380 85 l 338 183 l 313 183 m 388 85 l 417 85 l 417 119 l 449 119 l 449 143 l 417 143 l 417 157 l 455 157 l 455 183 l 388 183 l 388 85 m 640 149 q 643 131 640 137 l 614 174 q 609 181 612 179 q 601 183 607 183 l 579 183 l 579 85 l 608 85 l 608 125 q 604 142 608 134 l 605 142 l 638 91 q 649 85 642 85 l 669 85 l 669 183 l 640 183 l 640 149 m 680 157 l 704 157 l 704 85 l 733 85 l 733 157 l 759 157 l 759 183 l 680 183 l 680 157 m 1181 183 q 1170 174 1175 183 l 1153 139 q 1150 128 1150 135 l 1148 128 q 1145 139 1148 135 l 1129 174 q 1123 180 1126 178 q 1116 183 1121 183 l 1092 183 l 1092 85 l 1120 85 l 1120 128 q 1116 143 1120 134 l 1118 143 l 1136 102 q 1150 94 1139 94 q 1161 102 1157 94 l 1180 143 q 1178 136 1179 140 q 1178 128 1178 132 l 1178 85 l 1205 85 l 1205 183 l 1181 183 m 514 111 q 498 117 505 111 q 492 134 492 124 q 498 151 492 144 q 514 158 505 158 q 530 151 524 158 q 536 134 536 145 q 530 117 536 124 q 514 111 524 111 m 1027 111 q 1011 117 1018 111 q 1005 134 1005 124 q 1011 151 1005 145 q 1027 158 1018 158 q 1044 151 1036 158 q 1051 134 1051 144 q 1044 117 1051 124 q 1027 111 1036 111 m 321 134 q 324 152 324 141 l 326 152 q 329 134 326 139 l 335 120 l 316 120 l 321 134 m 844 99 q 848 88 844 93 q 859 84 852 84 q 869 88 865 84 q 873 99 873 93 q 869 110 873 105 q 859 114 865 114 q 848 110 852 114 q 844 99 844 105 z "},"8":{"ha":1217,"x_min":37,"x_max":1217,"o":"m 1217 314 l 38 314 l 38 476 l 485 476 l 485 478 l 485 490 q 485 491 485 491 l 485 493 q 486 499 485 496 q 487 505 487 502 q 487 509 487 506 q 489 514 488 511 q 540 591 501 561 q 628 621 578 621 q 700 602 667 621 q 752 550 733 582 q 771 478 771 517 l 771 476 l 1217 476 l 1217 314 m 629 343 q 695 361 665 343 q 743 410 725 379 q 761 476 761 440 q 743 542 761 511 q 695 590 725 572 q 629 607 665 607 q 562 590 593 607 q 514 542 532 572 q 497 476 497 511 q 514 409 497 440 q 562 361 532 379 q 629 343 593 343 m 689 575 q 697 570 693 573 q 706 564 701 567 l 548 564 q 566 577 554 570 q 585 585 579 583 q 628 594 602 594 q 672 585 650 594 l 689 575 m 716 555 q 745 476 745 517 q 739 435 745 454 q 718 399 735 420 l 563 399 l 716 555 m 539 395 q 516 433 523 415 q 509 476 509 453 q 510 494 509 488 q 517 517 511 507 q 537 550 523 536 l 694 550 l 539 395 m 64 423 l 90 423 l 90 347 l 119 347 l 119 423 l 145 423 l 145 450 l 64 450 l 64 423 m 187 379 l 196 379 l 208 356 q 220 347 213 347 l 246 347 l 228 379 q 210 389 220 389 l 213 389 q 228 397 220 389 q 236 414 236 404 q 225 439 236 429 q 199 450 214 450 l 157 450 l 157 347 l 187 347 l 187 379 m 286 347 l 286 450 l 257 450 l 257 347 l 286 347 m 341 450 l 296 347 l 320 347 q 333 357 327 347 l 336 364 l 371 364 l 376 357 q 388 347 381 347 l 411 347 l 367 450 l 341 450 m 422 347 l 487 347 l 487 374 l 450 374 l 450 450 l 422 450 l 422 347 m 847 450 q 809 435 824 450 q 795 397 795 420 q 809 359 795 373 q 847 344 824 344 q 886 359 871 344 q 901 397 901 373 q 886 435 901 420 q 847 450 871 450 m 980 412 q 983 392 980 400 l 951 438 q 946 445 949 444 q 939 447 944 447 l 914 447 l 914 346 l 945 346 l 945 386 q 942 405 945 391 l 976 352 q 989 346 982 346 l 1010 346 l 1010 447 l 980 447 l 980 412 m 1030 346 l 1095 346 l 1095 373 l 1059 373 l 1059 447 l 1030 447 l 1030 346 m 1153 376 q 1155 386 1153 382 l 1192 447 l 1164 447 q 1153 441 1156 447 l 1141 421 q 1139 412 1139 417 q 1136 405 1138 408 q 1133 421 1136 413 l 1122 441 q 1110 447 1118 447 l 1083 447 l 1120 386 q 1122 376 1122 383 l 1122 346 l 1153 346 l 1153 376 m 197 421 q 205 414 205 421 q 203 408 205 411 q 198 406 201 406 l 187 406 l 187 421 l 197 421 m 847 373 q 830 379 837 373 q 823 397 823 386 q 830 414 823 407 q 847 421 837 421 q 864 414 857 421 q 870 397 870 407 q 864 379 870 386 q 847 373 857 373 m 349 398 q 352 405 350 399 q 353 417 353 411 l 355 417 q 358 398 355 404 l 364 385 l 344 385 l 349 398 m 586 364 q 550 386 568 372 l 706 386 q 689 373 691 374 q 681 369 686 372 q 672 364 676 365 q 662 362 668 364 q 649 359 656 360 q 628 356 639 356 q 586 364 604 356 m 43 218 l 50 218 l 50 247 l 78 247 l 78 254 l 50 254 l 50 277 l 84 277 l 84 285 l 43 285 l 43 218 m 121 224 q 108 230 113 224 q 102 244 102 235 l 102 285 l 95 285 l 95 244 q 102 224 95 231 q 121 217 109 217 q 141 224 133 217 q 149 244 149 232 l 149 285 l 140 285 l 140 244 q 135 229 140 234 q 121 224 130 224 m 166 218 l 202 218 l 202 225 l 174 225 l 174 285 l 166 285 l 166 218 m 217 218 l 254 218 l 254 225 l 223 225 l 223 285 l 217 285 l 217 218 m 346 285 q 343 284 345 285 q 342 282 342 284 l 321 233 q 320 226 320 230 l 319 226 q 318 233 319 230 l 296 282 q 291 285 296 285 l 286 285 l 316 218 l 323 218 l 351 285 l 346 285 m 403 218 l 403 225 l 368 225 l 368 248 l 397 248 l 397 256 l 368 256 l 368 277 l 403 277 l 403 285 l 362 285 l 362 218 l 403 218 m 426 246 l 435 246 l 455 221 q 463 218 459 218 l 467 218 l 447 245 q 444 247 447 247 l 444 247 q 455 253 450 248 q 461 265 461 258 q 455 279 461 273 q 441 285 449 285 l 417 285 l 417 218 l 426 218 l 426 246 m 472 227 q 482 220 476 223 q 493 217 488 217 q 509 222 503 217 q 514 237 514 228 q 495 257 514 252 q 484 268 484 262 q 494 278 484 278 q 506 275 500 278 q 510 277 508 274 l 511 279 q 494 285 506 285 q 481 281 486 285 q 475 268 475 276 q 493 250 475 257 q 508 237 508 244 q 504 227 508 231 q 493 224 500 224 q 479 230 486 226 q 476 230 479 231 q 473 228 474 230 l 472 227 m 536 218 l 536 285 l 530 285 l 530 218 l 536 218 m 586 285 q 561 275 571 285 q 551 251 551 265 q 561 227 551 237 q 586 217 571 217 q 611 226 601 217 q 621 251 621 236 q 611 276 621 266 q 586 285 601 285 m 680 235 q 681 230 680 231 l 646 283 q 640 285 643 285 l 634 285 l 634 218 l 642 218 l 642 270 l 641 275 l 680 220 q 682 218 680 218 l 689 218 l 689 285 l 680 285 l 680 235 m 586 224 q 567 232 576 224 q 558 251 558 240 q 566 270 558 262 q 586 278 575 278 q 605 270 597 278 q 613 251 613 262 q 605 232 613 240 q 586 224 597 224 m 441 277 q 449 274 445 277 q 453 265 453 270 q 449 257 453 261 q 441 254 445 254 l 426 254 l 426 277 l 441 277 m 1198 252 q 1196 256 1198 254 l 1178 273 l 1176 270 q 1177 264 1173 267 l 1186 255 l 727 255 l 727 248 l 1185 248 l 1177 239 q 1176 233 1174 236 l 1178 230 l 1196 248 q 1198 252 1198 249 m 514 184 q 479 170 493 184 q 464 134 464 156 q 478 99 464 113 q 514 84 492 84 q 551 99 536 84 q 566 134 566 113 q 551 170 566 155 q 514 184 536 184 m 761 100 q 800 84 780 84 q 826 93 816 84 q 836 116 836 102 q 806 149 836 143 q 796 155 796 152 q 800 158 796 158 q 806 157 801 158 q 812 155 810 155 q 825 163 821 155 l 830 172 q 817 181 825 178 q 800 184 808 184 q 776 176 786 184 q 767 155 767 168 q 775 136 767 143 q 800 123 783 129 q 806 116 806 121 q 800 111 806 111 q 791 113 795 111 q 786 116 787 115 q 778 118 783 118 q 765 111 771 118 l 761 100 m 883 134 q 897 99 883 113 q 932 84 911 84 q 954 90 944 84 q 969 104 965 96 l 963 113 q 953 117 959 117 q 944 114 947 117 q 931 111 936 111 q 916 117 922 111 q 910 134 910 124 q 916 151 910 144 q 931 158 922 158 q 939 156 936 158 q 944 154 942 155 q 952 151 947 151 q 963 155 959 151 l 969 164 q 954 178 965 172 q 932 184 944 184 q 897 170 911 184 q 883 134 883 155 m 1027 184 q 991 170 1005 184 q 976 134 976 156 q 991 99 976 113 q 1027 84 1005 84 q 1063 99 1049 84 q 1078 134 1078 113 q 1063 170 1078 156 q 1027 184 1049 184 m 116 85 l 116 113 l 89 113 q 75 108 81 113 l 113 158 q 116 170 116 162 l 116 183 l 41 183 l 41 157 l 69 157 q 78 161 75 157 l 43 111 q 38 106 40 108 q 37 99 37 103 l 37 85 l 116 85 m 196 85 l 196 113 l 157 113 l 157 122 l 189 122 l 189 146 l 157 146 l 157 157 l 196 157 l 196 183 l 130 183 l 130 85 l 196 85 m 202 157 l 228 157 l 228 85 l 256 85 l 256 157 l 279 157 l 279 183 l 202 183 l 202 157 m 313 183 l 270 85 l 292 85 q 299 88 296 85 q 304 96 302 91 l 307 102 l 342 102 l 345 96 q 351 88 346 91 q 358 85 355 85 l 380 85 l 338 183 l 313 183 m 388 85 l 417 85 l 417 119 l 449 119 l 449 143 l 417 143 l 417 157 l 455 157 l 455 183 l 388 183 l 388 85 m 640 149 q 643 131 640 137 l 614 174 q 609 181 612 179 q 601 183 607 183 l 579 183 l 579 85 l 608 85 l 608 125 q 604 142 608 134 l 605 142 l 638 91 q 649 85 642 85 l 669 85 l 669 183 l 640 183 l 640 149 m 680 157 l 704 157 l 704 85 l 733 85 l 733 157 l 759 157 l 759 183 l 680 183 l 680 157 m 1181 183 q 1170 174 1175 183 l 1153 139 q 1150 128 1150 135 l 1148 128 q 1145 139 1148 135 l 1129 174 q 1123 180 1126 178 q 1116 183 1121 183 l 1092 183 l 1092 85 l 1120 85 l 1120 128 q 1116 143 1120 134 l 1118 143 l 1136 102 q 1150 94 1139 94 q 1161 102 1157 94 l 1180 143 q 1178 136 1179 140 q 1178 128 1178 132 l 1178 85 l 1205 85 l 1205 183 l 1181 183 m 514 111 q 498 117 505 111 q 492 134 492 124 q 498 151 492 144 q 514 158 505 158 q 530 151 524 158 q 536 134 536 145 q 530 117 536 124 q 514 111 524 111 m 1027 111 q 1011 117 1018 111 q 1005 134 1005 124 q 1011 151 1005 145 q 1027 158 1018 158 q 1044 151 1036 158 q 1051 134 1051 144 q 1044 117 1051 124 q 1027 111 1036 111 m 321 134 q 324 152 324 141 l 326 152 q 329 134 326 139 l 335 120 l 316 120 l 321 134 m 844 99 q 848 88 844 93 q 859 84 852 84 q 869 88 865 84 q 873 99 873 93 q 869 110 873 105 q 859 114 865 114 q 848 110 852 114 q 844 99 844 105 z "},"9":{"ha":1217,"x_min":37,"x_max":1217,"o":"m 1217 314 l 38 314 l 38 476 l 485 476 l 485 478 l 485 490 q 485 491 485 491 l 485 493 q 486 499 485 496 q 487 505 487 502 q 487 509 487 506 q 489 514 488 511 q 540 591 501 561 q 628 621 578 621 q 700 602 667 621 q 752 550 733 582 q 771 478 771 517 l 771 476 l 1217 476 l 1217 314 m 629 343 q 695 361 665 343 q 743 410 725 379 q 761 476 761 440 q 743 542 761 511 q 695 590 725 572 q 629 607 665 607 q 562 590 593 607 q 514 542 532 572 q 497 476 497 511 q 514 409 497 440 q 562 361 532 379 q 629 343 593 343 m 689 575 q 697 570 693 573 q 706 564 701 567 l 548 564 q 566 577 554 570 q 585 585 579 583 q 628 594 602 594 q 672 585 650 594 l 689 575 m 716 555 q 745 476 745 517 q 739 435 745 454 q 718 399 735 420 l 563 399 l 716 555 m 539 395 q 516 433 523 415 q 509 476 509 453 q 510 494 509 488 q 517 517 511 507 q 537 550 523 536 l 694 550 l 539 395 m 64 423 l 90 423 l 90 347 l 119 347 l 119 423 l 145 423 l 145 450 l 64 450 l 64 423 m 187 379 l 196 379 l 208 356 q 220 347 213 347 l 246 347 l 228 379 q 210 389 220 389 l 213 389 q 228 397 220 389 q 236 414 236 404 q 225 439 236 429 q 199 450 214 450 l 157 450 l 157 347 l 187 347 l 187 379 m 286 347 l 286 450 l 257 450 l 257 347 l 286 347 m 341 450 l 296 347 l 320 347 q 333 357 327 347 l 336 364 l 371 364 l 376 357 q 388 347 381 347 l 411 347 l 367 450 l 341 450 m 422 347 l 487 347 l 487 374 l 450 374 l 450 450 l 422 450 l 422 347 m 847 450 q 809 435 824 450 q 795 397 795 420 q 809 359 795 373 q 847 344 824 344 q 886 359 871 344 q 901 397 901 373 q 886 435 901 420 q 847 450 871 450 m 980 412 q 983 392 980 400 l 951 438 q 946 445 949 444 q 939 447 944 447 l 914 447 l 914 346 l 945 346 l 945 386 q 942 405 945 391 l 976 352 q 989 346 982 346 l 1010 346 l 1010 447 l 980 447 l 980 412 m 1030 346 l 1095 346 l 1095 373 l 1059 373 l 1059 447 l 1030 447 l 1030 346 m 1153 376 q 1155 386 1153 382 l 1192 447 l 1164 447 q 1153 441 1156 447 l 1141 421 q 1139 412 1139 417 q 1136 405 1138 408 q 1133 421 1136 413 l 1122 441 q 1110 447 1118 447 l 1083 447 l 1120 386 q 1122 376 1122 383 l 1122 346 l 1153 346 l 1153 376 m 197 421 q 205 414 205 421 q 203 408 205 411 q 198 406 201 406 l 187 406 l 187 421 l 197 421 m 847 373 q 830 379 837 373 q 823 397 823 386 q 830 414 823 407 q 847 421 837 421 q 864 414 857 421 q 870 397 870 407 q 864 379 870 386 q 847 373 857 373 m 349 398 q 352 405 350 399 q 353 417 353 411 l 355 417 q 358 398 355 404 l 364 385 l 344 385 l 349 398 m 586 364 q 550 386 568 372 l 706 386 q 689 373 691 374 q 681 369 686 372 q 672 364 676 365 q 662 362 668 364 q 649 359 656 360 q 628 356 639 356 q 586 364 604 356 m 43 218 l 50 218 l 50 247 l 78 247 l 78 254 l 50 254 l 50 277 l 84 277 l 84 285 l 43 285 l 43 218 m 121 224 q 108 230 113 224 q 102 244 102 235 l 102 285 l 95 285 l 95 244 q 102 224 95 231 q 121 217 109 217 q 141 224 133 217 q 149 244 149 232 l 149 285 l 140 285 l 140 244 q 135 229 140 234 q 121 224 130 224 m 166 218 l 202 218 l 202 225 l 174 225 l 174 285 l 166 285 l 166 218 m 217 218 l 254 218 l 254 225 l 223 225 l 223 285 l 217 285 l 217 218 m 346 285 q 343 284 345 285 q 342 282 342 284 l 321 233 q 320 226 320 230 l 319 226 q 318 233 319 230 l 296 282 q 291 285 296 285 l 286 285 l 316 218 l 323 218 l 351 285 l 346 285 m 403 218 l 403 225 l 368 225 l 368 248 l 397 248 l 397 256 l 368 256 l 368 277 l 403 277 l 403 285 l 362 285 l 362 218 l 403 218 m 426 246 l 435 246 l 455 221 q 463 218 459 218 l 467 218 l 447 245 q 444 247 447 247 l 444 247 q 455 253 450 248 q 461 265 461 258 q 455 279 461 273 q 441 285 449 285 l 417 285 l 417 218 l 426 218 l 426 246 m 472 227 q 482 220 476 223 q 493 217 488 217 q 509 222 503 217 q 514 237 514 228 q 495 257 514 252 q 484 268 484 262 q 494 278 484 278 q 506 275 500 278 q 510 277 508 274 l 511 279 q 494 285 506 285 q 481 281 486 285 q 475 268 475 276 q 493 250 475 257 q 508 237 508 244 q 504 227 508 231 q 493 224 500 224 q 479 230 486 226 q 476 230 479 231 q 473 228 474 230 l 472 227 m 536 218 l 536 285 l 530 285 l 530 218 l 536 218 m 586 285 q 561 275 571 285 q 551 251 551 265 q 561 227 551 237 q 586 217 571 217 q 611 226 601 217 q 621 251 621 236 q 611 276 621 266 q 586 285 601 285 m 680 235 q 681 230 680 231 l 646 283 q 640 285 643 285 l 634 285 l 634 218 l 642 218 l 642 270 l 641 275 l 680 220 q 682 218 680 218 l 689 218 l 689 285 l 680 285 l 680 235 m 586 224 q 567 232 576 224 q 558 251 558 240 q 566 270 558 262 q 586 278 575 278 q 605 270 597 278 q 613 251 613 262 q 605 232 613 240 q 586 224 597 224 m 441 277 q 449 274 445 277 q 453 265 453 270 q 449 257 453 261 q 441 254 445 254 l 426 254 l 426 277 l 441 277 m 1198 252 q 1196 256 1198 254 l 1178 273 l 1176 270 q 1177 264 1173 267 l 1186 255 l 727 255 l 727 248 l 1185 248 l 1177 239 q 1176 233 1174 236 l 1178 230 l 1196 248 q 1198 252 1198 249 m 514 184 q 479 170 493 184 q 464 134 464 156 q 478 99 464 113 q 514 84 492 84 q 551 99 536 84 q 566 134 566 113 q 551 170 566 155 q 514 184 536 184 m 761 100 q 800 84 780 84 q 826 93 816 84 q 836 116 836 102 q 806 149 836 143 q 796 155 796 152 q 800 158 796 158 q 806 157 801 158 q 812 155 810 155 q 825 163 821 155 l 830 172 q 817 181 825 178 q 800 184 808 184 q 776 176 786 184 q 767 155 767 168 q 775 136 767 143 q 800 123 783 129 q 806 116 806 121 q 800 111 806 111 q 791 113 795 111 q 786 116 787 115 q 778 118 783 118 q 765 111 771 118 l 761 100 m 883 134 q 897 99 883 113 q 932 84 911 84 q 954 90 944 84 q 969 104 965 96 l 963 113 q 953 117 959 117 q 944 114 947 117 q 931 111 936 111 q 916 117 922 111 q 910 134 910 124 q 916 151 910 144 q 931 158 922 158 q 939 156 936 158 q 944 154 942 155 q 952 151 947 151 q 963 155 959 151 l 969 164 q 954 178 965 172 q 932 184 944 184 q 897 170 911 184 q 883 134 883 155 m 1027 184 q 991 170 1005 184 q 976 134 976 156 q 991 99 976 113 q 1027 84 1005 84 q 1063 99 1049 84 q 1078 134 1078 113 q 1063 170 1078 156 q 1027 184 1049 184 m 116 85 l 116 113 l 89 113 q 75 108 81 113 l 113 158 q 116 170 116 162 l 116 183 l 41 183 l 41 157 l 69 157 q 78 161 75 157 l 43 111 q 38 106 40 108 q 37 99 37 103 l 37 85 l 116 85 m 196 85 l 196 113 l 157 113 l 157 122 l 189 122 l 189 146 l 157 146 l 157 157 l 196 157 l 196 183 l 130 183 l 130 85 l 196 85 m 202 157 l 228 157 l 228 85 l 256 85 l 256 157 l 279 157 l 279 183 l 202 183 l 202 157 m 313 183 l 270 85 l 292 85 q 299 88 296 85 q 304 96 302 91 l 307 102 l 342 102 l 345 96 q 351 88 346 91 q 358 85 355 85 l 380 85 l 338 183 l 313 183 m 388 85 l 417 85 l 417 119 l 449 119 l 449 143 l 417 143 l 417 157 l 455 157 l 455 183 l 388 183 l 388 85 m 640 149 q 643 131 640 137 l 614 174 q 609 181 612 179 q 601 183 607 183 l 579 183 l 579 85 l 608 85 l 608 125 q 604 142 608 134 l 605 142 l 638 91 q 649 85 642 85 l 669 85 l 669 183 l 640 183 l 640 149 m 680 157 l 704 157 l 704 85 l 733 85 l 733 157 l 759 157 l 759 183 l 680 183 l 680 157 m 1181 183 q 1170 174 1175 183 l 1153 139 q 1150 128 1150 135 l 1148 128 q 1145 139 1148 135 l 1129 174 q 1123 180 1126 178 q 1116 183 1121 183 l 1092 183 l 1092 85 l 1120 85 l 1120 128 q 1116 143 1120 134 l 1118 143 l 1136 102 q 1150 94 1139 94 q 1161 102 1157 94 l 1180 143 q 1178 136 1179 140 q 1178 128 1178 132 l 1178 85 l 1205 85 l 1205 183 l 1181 183 m 514 111 q 498 117 505 111 q 492 134 492 124 q 498 151 492 144 q 514 158 505 158 q 530 151 524 158 q 536 134 536 145 q 530 117 536 124 q 514 111 524 111 m 1027 111 q 1011 117 1018 111 q 1005 134 1005 124 q 1011 151 1005 145 q 1027 158 1018 158 q 1044 151 1036 158 q 1051 134 1051 144 q 1044 117 1051 124 q 1027 111 1036 111 m 321 134 q 324 152 324 141 l 326 152 q 329 134 326 139 l 335 120 l 316 120 l 321 134 m 844 99 q 848 88 844 93 q 859 84 852 84 q 869 88 865 84 q 873 99 873 93 q 869 110 873 105 q 859 114 865 114 q 848 110 852 114 q 844 99 844 105 z "}," ":{"ha":358,"x_min":0,"x_max":0,"o":""},"":{"ha":1217,"x_min":37,"x_max":1217,"o":"m 1217 314 l 38 314 l 38 476 l 485 476 l 485 478 l 485 490 q 485 491 485 491 l 485 493 q 486 499 485 496 q 487 505 487 502 q 487 509 487 506 q 489 514 488 511 q 540 591 501 561 q 628 621 578 621 q 700 602 667 621 q 752 550 733 582 q 771 478 771 517 l 771 476 l 1217 476 l 1217 314 m 629 343 q 695 361 665 343 q 743 410 725 379 q 761 476 761 440 q 743 542 761 511 q 695 590 725 572 q 629 607 665 607 q 562 590 593 607 q 514 542 532 572 q 497 476 497 511 q 514 409 497 440 q 562 361 532 379 q 629 343 593 343 m 689 575 q 697 570 693 573 q 706 564 701 567 l 548 564 q 566 577 554 570 q 585 585 579 583 q 628 594 602 594 q 672 585 650 594 l 689 575 m 716 555 q 745 476 745 517 q 739 435 745 454 q 718 399 735 420 l 563 399 l 716 555 m 539 395 q 516 433 523 415 q 509 476 509 453 q 510 494 509 488 q 517 517 511 507 q 537 550 523 536 l 694 550 l 539 395 m 64 423 l 90 423 l 90 347 l 119 347 l 119 423 l 145 423 l 145 450 l 64 450 l 64 423 m 187 379 l 196 379 l 208 356 q 220 347 213 347 l 246 347 l 228 379 q 210 389 220 389 l 213 389 q 228 397 220 389 q 236 414 236 404 q 225 439 236 429 q 199 450 214 450 l 157 450 l 157 347 l 187 347 l 187 379 m 286 347 l 286 450 l 257 450 l 257 347 l 286 347 m 341 450 l 296 347 l 320 347 q 333 357 327 347 l 336 364 l 371 364 l 376 357 q 388 347 381 347 l 411 347 l 367 450 l 341 450 m 422 347 l 487 347 l 487 374 l 450 374 l 450 450 l 422 450 l 422 347 m 847 450 q 809 435 824 450 q 795 397 795 420 q 809 359 795 373 q 847 344 824 344 q 886 359 871 344 q 901 397 901 373 q 886 435 901 420 q 847 450 871 450 m 980 412 q 983 392 980 400 l 951 438 q 946 445 949 444 q 939 447 944 447 l 914 447 l 914 346 l 945 346 l 945 386 q 942 405 945 391 l 976 352 q 989 346 982 346 l 1010 346 l 1010 447 l 980 447 l 980 412 m 1030 346 l 1095 346 l 1095 373 l 1059 373 l 1059 447 l 1030 447 l 1030 346 m 1153 376 q 1155 386 1153 382 l 1192 447 l 1164 447 q 1153 441 1156 447 l 1141 421 q 1139 412 1139 417 q 1136 405 1138 408 q 1133 421 1136 413 l 1122 441 q 1110 447 1118 447 l 1083 447 l 1120 386 q 1122 376 1122 383 l 1122 346 l 1153 346 l 1153 376 m 197 421 q 205 414 205 421 q 203 408 205 411 q 198 406 201 406 l 187 406 l 187 421 l 197 421 m 847 373 q 830 379 837 373 q 823 397 823 386 q 830 414 823 407 q 847 421 837 421 q 864 414 857 421 q 870 397 870 407 q 864 379 870 386 q 847 373 857 373 m 349 398 q 352 405 350 399 q 353 417 353 411 l 355 417 q 358 398 355 404 l 364 385 l 344 385 l 349 398 m 586 364 q 550 386 568 372 l 706 386 q 689 373 691 374 q 681 369 686 372 q 672 364 676 365 q 662 362 668 364 q 649 359 656 360 q 628 356 639 356 q 586 364 604 356 m 43 218 l 50 218 l 50 247 l 78 247 l 78 254 l 50 254 l 50 277 l 84 277 l 84 285 l 43 285 l 43 218 m 121 224 q 108 230 113 224 q 102 244 102 235 l 102 285 l 95 285 l 95 244 q 102 224 95 231 q 121 217 109 217 q 141 224 133 217 q 149 244 149 232 l 149 285 l 140 285 l 140 244 q 135 229 140 234 q 121 224 130 224 m 166 218 l 202 218 l 202 225 l 174 225 l 174 285 l 166 285 l 166 218 m 217 218 l 254 218 l 254 225 l 223 225 l 223 285 l 217 285 l 217 218 m 346 285 q 343 284 345 285 q 342 282 342 284 l 321 233 q 320 226 320 230 l 319 226 q 318 233 319 230 l 296 282 q 291 285 296 285 l 286 285 l 316 218 l 323 218 l 351 285 l 346 285 m 403 218 l 403 225 l 368 225 l 368 248 l 397 248 l 397 256 l 368 256 l 368 277 l 403 277 l 403 285 l 362 285 l 362 218 l 403 218 m 426 246 l 435 246 l 455 221 q 463 218 459 218 l 467 218 l 447 245 q 444 247 447 247 l 444 247 q 455 253 450 248 q 461 265 461 258 q 455 279 461 273 q 441 285 449 285 l 417 285 l 417 218 l 426 218 l 426 246 m 472 227 q 482 220 476 223 q 493 217 488 217 q 509 222 503 217 q 514 237 514 228 q 495 257 514 252 q 484 268 484 262 q 494 278 484 278 q 506 275 500 278 q 510 277 508 274 l 511 279 q 494 285 506 285 q 481 281 486 285 q 475 268 475 276 q 493 250 475 257 q 508 237 508 244 q 504 227 508 231 q 493 224 500 224 q 479 230 486 226 q 476 230 479 231 q 473 228 474 230 l 472 227 m 536 218 l 536 285 l 530 285 l 530 218 l 536 218 m 586 285 q 561 275 571 285 q 551 251 551 265 q 561 227 551 237 q 586 217 571 217 q 611 226 601 217 q 621 251 621 236 q 611 276 621 266 q 586 285 601 285 m 680 235 q 681 230 680 231 l 646 283 q 640 285 643 285 l 634 285 l 634 218 l 642 218 l 642 270 l 641 275 l 680 220 q 682 218 680 218 l 689 218 l 689 285 l 680 285 l 680 235 m 586 224 q 567 232 576 224 q 558 251 558 240 q 566 270 558 262 q 586 278 575 278 q 605 270 597 278 q 613 251 613 262 q 605 232 613 240 q 586 224 597 224 m 441 277 q 449 274 445 277 q 453 265 453 270 q 449 257 453 261 q 441 254 445 254 l 426 254 l 426 277 l 441 277 m 1198 252 q 1196 256 1198 254 l 1178 273 l 1176 270 q 1177 264 1173 267 l 1186 255 l 727 255 l 727 248 l 1185 248 l 1177 239 q 1176 233 1174 236 l 1178 230 l 1196 248 q 1198 252 1198 249 m 514 184 q 479 170 493 184 q 464 134 464 156 q 478 99 464 113 q 514 84 492 84 q 551 99 536 84 q 566 134 566 113 q 551 170 566 155 q 514 184 536 184 m 761 100 q 800 84 780 84 q 826 93 816 84 q 836 116 836 102 q 806 149 836 143 q 796 155 796 152 q 800 158 796 158 q 806 157 801 158 q 812 155 810 155 q 825 163 821 155 l 830 172 q 817 181 825 178 q 800 184 808 184 q 776 176 786 184 q 767 155 767 168 q 775 136 767 143 q 800 123 783 129 q 806 116 806 121 q 800 111 806 111 q 791 113 795 111 q 786 116 787 115 q 778 118 783 118 q 765 111 771 118 l 761 100 m 883 134 q 897 99 883 113 q 932 84 911 84 q 954 90 944 84 q 969 104 965 96 l 963 113 q 953 117 959 117 q 944 114 947 117 q 931 111 936 111 q 916 117 922 111 q 910 134 910 124 q 916 151 910 144 q 931 158 922 158 q 939 156 936 158 q 944 154 942 155 q 952 151 947 151 q 963 155 959 151 l 969 164 q 954 178 965 172 q 932 184 944 184 q 897 170 911 184 q 883 134 883 155 m 1027 184 q 991 170 1005 184 q 976 134 976 156 q 991 99 976 113 q 1027 84 1005 84 q 1063 99 1049 84 q 1078 134 1078 113 q 1063 170 1078 156 q 1027 184 1049 184 m 116 85 l 116 113 l 89 113 q 75 108 81 113 l 113 158 q 116 170 116 162 l 116 183 l 41 183 l 41 157 l 69 157 q 78 161 75 157 l 43 111 q 38 106 40 108 q 37 99 37 103 l 37 85 l 116 85 m 196 85 l 196 113 l 157 113 l 157 122 l 189 122 l 189 146 l 157 146 l 157 157 l 196 157 l 196 183 l 130 183 l 130 85 l 196 85 m 202 157 l 228 157 l 228 85 l 256 85 l 256 157 l 279 157 l 279 183 l 202 183 l 202 157 m 313 183 l 270 85 l 292 85 q 299 88 296 85 q 304 96 302 91 l 307 102 l 342 102 l 345 96 q 351 88 346 91 q 358 85 355 85 l 380 85 l 338 183 l 313 183 m 388 85 l 417 85 l 417 119 l 449 119 l 449 143 l 417 143 l 417 157 l 455 157 l 455 183 l 388 183 l 388 85 m 640 149 q 643 131 640 137 l 614 174 q 609 181 612 179 q 601 183 607 183 l 579 183 l 579 85 l 608 85 l 608 125 q 604 142 608 134 l 605 142 l 638 91 q 649 85 642 85 l 669 85 l 669 183 l 640 183 l 640 149 m 680 157 l 704 157 l 704 85 l 733 85 l 733 157 l 759 157 l 759 183 l 680 183 l 680 157 m 1181 183 q 1170 174 1175 183 l 1153 139 q 1150 128 1150 135 l 1148 128 q 1145 139 1148 135 l 1129 174 q 1123 180 1126 178 q 1116 183 1121 183 l 1092 183 l 1092 85 l 1120 85 l 1120 128 q 1116 143 1120 134 l 1118 143 l 1136 102 q 1150 94 1139 94 q 1161 102 1157 94 l 1180 143 q 1178 136 1179 140 q 1178 128 1178 132 l 1178 85 l 1205 85 l 1205 183 l 1181 183 m 514 111 q 498 117 505 111 q 492 134 492 124 q 498 151 492 144 q 514 158 505 158 q 530 151 524 158 q 536 134 536 145 q 530 117 536 124 q 514 111 524 111 m 1027 111 q 1011 117 1018 111 q 1005 134 1005 124 q 1011 151 1005 145 q 1027 158 1018 158 q 1044 151 1036 158 q 1051 134 1051 144 q 1044 117 1051 124 q 1027 111 1036 111 m 321 134 q 324 152 324 141 l 326 152 q 329 134 326 139 l 335 120 l 316 120 l 321 134 m 844 99 q 848 88 844 93 q 859 84 852 84 q 869 88 865 84 q 873 99 873 93 q 869 110 873 105 q 859 114 865 114 q 848 110 852 114 q 844 99 844 105 z "},"A":{"ha":1078,"x_min":17,"x_max":1060,"o":"m 1057 36 q 1060 22 1060 29 q 1053 6 1060 12 q 1033 0 1046 0 l 780 0 q 745 26 753 0 l 709 142 l 368 142 l 332 26 q 296 0 323 0 l 45 0 q 24 6 31 0 q 17 23 17 13 q 19 36 17 29 l 397 1026 q 432 1051 405 1051 l 647 1051 q 683 1026 674 1051 l 1057 36 m 624 397 l 553 627 l 538 682 l 525 627 l 454 397 l 624 397 z "},"B":{"ha":976,"x_min":75,"x_max":929,"o":"m 106 0 q 75 31 75 0 l 75 1018 q 106 1049 75 1049 l 514 1049 q 708 1013 624 1049 q 837 911 792 977 q 883 757 883 845 q 868 676 883 716 q 828 606 853 636 q 773 564 803 576 q 854 508 818 546 q 909 419 889 470 q 929 313 929 367 q 884 149 929 220 q 755 39 839 78 q 558 0 671 0 l 106 0 m 486 654 q 549 674 526 654 q 572 724 572 693 q 551 768 572 752 q 494 783 529 783 l 384 783 l 384 654 l 486 654 m 529 256 q 594 281 570 256 q 618 347 618 305 q 606 388 618 369 q 572 420 594 408 q 521 432 550 432 l 384 432 l 384 256 l 529 256 z "},"C":{"ha":958,"x_min":37,"x_max":928,"o":"m 585 -19 q 307 54 432 -19 q 109 253 181 128 q 37 527 37 378 q 109 801 37 677 q 307 998 181 925 q 585 1070 432 1070 q 761 1042 677 1070 q 914 964 845 1015 q 927 940 927 953 q 920 920 927 930 l 777 733 q 753 720 768 720 q 733 727 744 720 q 661 761 700 748 q 585 774 623 774 q 469 741 523 774 q 383 652 415 709 q 350 526 350 595 q 383 399 350 457 q 470 309 416 342 q 585 276 523 276 q 662 286 630 276 q 735 325 694 296 q 756 332 745 332 q 780 319 770 332 l 919 131 q 928 109 928 119 q 916 89 928 98 q 762 9 847 37 q 585 -19 677 -19 z "},"D":{"ha":1072,"x_min":75,"x_max":1035,"o":"m 106 0 q 75 31 75 0 l 75 1018 q 106 1049 75 1049 l 479 1049 q 760 981 632 1049 q 961 793 887 912 q 1035 526 1035 673 q 961 258 1035 378 q 761 69 888 137 q 482 0 634 0 l 106 0 m 492 296 q 612 324 559 296 q 693 405 664 352 q 722 526 722 457 q 693 645 722 593 q 612 725 664 697 q 492 753 559 753 l 383 753 l 383 296 l 492 296 z "},"E":{"ha":894,"x_min":75,"x_max":856,"o":"m 856 31 q 848 8 856 16 q 825 0 840 0 l 106 0 q 75 31 75 0 l 75 1018 q 106 1049 75 1049 l 814 1049 q 837 1041 829 1049 q 845 1018 845 1033 l 845 803 q 814 772 845 772 l 383 772 l 383 656 l 708 656 q 731 648 723 656 q 739 625 739 640 l 739 429 q 708 397 739 397 l 383 397 l 383 277 l 825 277 q 856 246 856 277 l 856 31 z "},"F":{"ha":822,"x_min":75,"x_max":800,"o":"m 383 31 q 352 0 383 0 l 106 0 q 75 31 75 0 l 75 1018 q 106 1049 75 1049 l 768 1049 q 792 1041 783 1049 q 800 1018 800 1033 l 800 802 q 792 779 800 787 q 768 771 783 771 l 383 771 l 383 592 l 663 592 q 694 561 694 592 l 694 364 q 663 332 694 332 l 383 332 l 383 31 z "},"G":{"ha":996,"x_min":37,"x_max":948,"o":"m 657 458 q 665 481 657 473 q 688 489 674 489 l 916 489 q 948 458 948 489 l 948 119 q 929 81 948 94 q 771 7 859 34 q 585 -19 682 -19 q 307 55 432 -19 q 109 253 181 128 q 37 526 37 378 q 109 801 37 677 q 307 998 181 925 q 585 1070 432 1070 q 762 1042 677 1070 q 915 963 846 1015 q 928 940 928 954 q 921 920 928 930 l 778 733 q 755 720 768 720 q 735 727 746 720 q 585 774 659 774 q 469 741 523 774 q 383 652 415 709 q 350 526 350 594 q 383 397 350 456 q 470 303 416 338 q 585 268 524 268 l 622 268 q 657 270 644 268 l 657 458 z "},"H":{"ha":1085,"x_min":75,"x_max":1010,"o":"m 383 31 q 352 0 383 0 l 106 0 q 75 31 75 0 l 75 1018 q 106 1049 75 1049 l 352 1049 q 383 1018 383 1049 l 383 700 l 701 700 l 701 1018 q 709 1041 701 1033 q 733 1049 718 1049 l 979 1049 q 1002 1041 994 1049 q 1010 1018 1010 1033 l 1010 31 q 1002 8 1010 16 q 979 0 994 0 l 733 0 q 709 8 718 0 q 701 31 701 16 l 701 405 l 383 405 l 383 31 z "},"I":{"ha":458,"x_min":75,"x_max":383,"o":"m 383 31 q 352 0 383 0 l 106 0 q 75 31 75 0 l 75 1018 q 106 1049 75 1049 l 352 1049 q 383 1018 383 1049 l 383 31 z "},"J":{"ha":696,"x_min":4,"x_max":636,"o":"m 269 -23 q 143 -4 209 -23 q 16 57 76 14 q 4 80 4 67 q 11 102 4 90 l 129 303 q 151 317 137 317 q 172 308 161 317 q 266 273 231 273 q 328 355 328 273 l 328 1018 q 358 1049 328 1049 l 605 1049 q 628 1041 620 1049 q 636 1018 636 1033 l 636 334 q 592 144 636 225 q 464 20 547 63 q 269 -23 382 -23 z "},"K":{"ha":1066,"x_min":75,"x_max":1048,"o":"m 1042 37 q 1048 19 1048 28 q 1041 5 1048 10 q 1021 0 1033 0 l 723 0 q 701 5 710 0 q 685 21 692 10 l 475 376 l 383 264 l 383 31 q 352 0 383 0 l 106 0 q 75 31 75 0 l 75 1018 q 106 1049 75 1049 l 352 1049 q 383 1018 383 1049 l 383 683 l 649 1031 q 687 1049 662 1049 l 989 1049 q 1009 1044 1002 1049 q 1016 1031 1016 1039 q 1007 1011 1016 1022 l 675 612 l 1042 37 z "},"L":{"ha":803,"x_min":75,"x_max":788,"o":"m 788 31 q 780 8 788 16 q 756 0 771 0 l 106 0 q 75 31 75 0 l 75 1018 q 106 1049 75 1049 l 352 1049 q 383 1018 383 1049 l 383 295 l 756 295 q 780 287 771 295 q 788 264 788 279 l 788 31 z "},"M":{"ha":1343,"x_min":40,"x_max":1306,"o":"m 352 30 q 320 0 349 0 l 71 0 q 47 9 55 0 q 42 33 40 17 l 173 1020 q 184 1042 175 1034 q 207 1049 193 1049 l 495 1049 q 529 1022 523 1049 l 671 426 l 813 1022 q 847 1049 820 1049 l 1136 1049 q 1160 1042 1151 1049 q 1170 1020 1169 1034 l 1302 32 q 1272 -1 1306 -1 l 1023 -1 q 990 29 993 -1 l 934 553 l 815 27 q 781 0 808 0 l 566 0 q 532 27 538 0 l 412 553 l 352 30 z "},"N":{"ha":1075,"x_min":75,"x_max":1001,"o":"m 374 31 q 366 8 374 16 q 343 0 358 0 l 106 0 q 75 31 75 0 l 75 1018 q 106 1049 75 1049 l 359 1049 q 381 1044 372 1049 q 397 1028 390 1039 l 700 525 l 700 1018 q 709 1041 700 1033 q 732 1049 717 1049 l 969 1049 q 992 1041 984 1049 q 1001 1018 1001 1033 l 1001 31 q 992 8 1001 16 q 969 0 984 0 l 746 0 q 709 21 723 0 l 374 564 l 374 31 z "},"O":{"ha":1169,"x_min":37,"x_max":1131,"o":"m 585 -19 q 307 54 432 -19 q 109 253 181 128 q 37 527 37 378 q 109 801 37 677 q 307 998 181 925 q 585 1070 432 1070 q 862 998 736 1070 q 1059 801 987 925 q 1131 527 1131 677 q 1059 253 1131 378 q 862 54 987 128 q 585 -19 736 -19 m 585 276 q 700 309 646 276 q 786 399 754 342 q 818 526 818 457 q 786 652 818 595 q 700 741 753 709 q 585 774 646 774 q 469 741 523 774 q 383 652 415 709 q 350 526 350 595 q 383 399 350 457 q 470 309 416 342 q 585 276 523 276 z "},"P":{"ha":934,"x_min":75,"x_max":909,"o":"m 383 31 q 352 0 383 0 l 106 0 q 75 31 75 0 l 75 1018 q 106 1049 75 1049 l 525 1049 q 727 1003 640 1049 q 862 875 815 957 q 909 692 909 794 q 864 497 909 582 q 733 366 819 413 q 529 319 647 319 l 383 319 l 383 31 m 503 597 q 552 609 529 597 q 587 643 574 621 q 600 689 600 664 q 572 747 600 724 q 504 771 544 771 l 383 771 l 383 597 l 503 597 z "},"Q":{"ha":1169,"x_min":37,"x_max":1131,"o":"m 1131 527 q 1081 295 1131 403 q 941 109 1031 186 q 735 -1 851 31 l 735 -182 q 727 -205 735 -197 q 703 -214 718 -214 l 457 -214 q 426 -182 426 -214 l 426 1 q 224 112 312 35 q 86 297 135 190 q 37 527 37 405 q 109 801 37 677 q 307 998 181 925 q 585 1070 432 1070 q 862 998 736 1070 q 1059 801 987 925 q 1131 527 1131 677 m 585 276 q 700 309 646 276 q 786 399 754 342 q 818 526 818 457 q 786 652 818 595 q 700 741 753 709 q 585 774 646 774 q 469 741 523 774 q 383 652 415 709 q 350 526 350 595 q 383 399 350 457 q 470 309 416 342 q 585 276 523 276 z "},"R":{"ha":989,"x_min":75,"x_max":959,"o":"m 106 0 q 75 31 75 0 l 75 1018 q 106 1049 75 1049 l 540 1049 q 734 1003 649 1049 q 867 874 819 957 q 914 687 914 792 q 768 403 914 502 l 954 37 q 959 21 959 28 q 952 6 959 11 q 931 0 945 0 l 650 0 q 614 23 624 0 l 472 324 l 451 324 l 383 324 l 383 31 q 352 0 383 0 l 106 0 m 511 585 q 575 615 550 585 q 601 686 601 644 q 575 755 601 732 q 514 778 549 778 l 383 778 l 383 585 l 511 585 z "},"S":{"ha":883,"x_min":26,"x_max":849,"o":"m 452 -19 q 223 29 329 -19 q 35 167 116 76 q 26 187 26 178 q 37 211 26 200 l 193 359 q 215 370 205 370 q 237 358 226 370 q 335 289 282 312 q 444 266 387 266 q 536 317 536 266 q 529 348 536 335 q 488 379 521 361 q 383 418 454 397 q 174 532 264 454 q 85 754 85 609 q 121 909 85 838 q 237 1026 156 981 q 444 1071 317 1071 q 649 1032 552 1071 q 821 927 745 992 q 833 904 833 917 q 823 883 833 893 l 680 722 q 657 709 669 709 q 636 718 647 709 q 551 770 597 749 q 457 791 505 791 q 408 778 423 791 q 394 743 394 765 q 406 721 394 730 q 442 701 418 711 q 517 672 465 691 l 537 665 q 710 581 642 626 q 814 473 778 535 q 849 323 849 410 q 801 144 849 222 q 663 24 753 67 q 452 -19 573 -19 z "},"T":{"ha":878,"x_min":19,"x_max":859,"o":"m 593 31 q 562 0 593 0 l 316 0 q 284 31 284 0 l 284 762 l 50 762 q 27 771 35 762 q 19 794 19 779 l 19 1018 q 27 1041 19 1033 q 50 1049 35 1049 l 828 1049 q 851 1041 843 1049 q 859 1018 859 1033 l 859 794 q 851 771 859 779 q 828 762 843 762 l 593 762 l 593 31 z "},"U":{"ha":1036,"x_min":60,"x_max":976,"o":"m 516 -23 q 272 32 375 -23 q 114 184 169 87 q 60 405 60 282 l 60 1018 q 90 1049 60 1049 l 337 1049 q 368 1018 368 1049 l 368 450 q 387 351 368 394 q 439 286 405 309 q 516 264 472 264 q 595 286 561 264 q 648 351 629 309 q 667 450 667 394 l 667 1018 q 675 1041 667 1033 q 698 1049 683 1049 l 945 1049 q 968 1041 960 1049 q 976 1018 976 1033 l 976 405 q 921 184 976 282 q 762 32 866 87 q 516 -23 659 -23 z "},"V":{"ha":1061,"x_min":17,"x_max":1044,"o":"m 668 25 q 632 0 659 0 l 429 0 q 394 25 402 0 l 20 1013 q 17 1027 17 1020 q 24 1043 17 1037 q 45 1049 31 1049 l 310 1049 q 345 1023 337 1049 l 529 438 l 532 438 l 715 1023 q 750 1049 724 1049 l 1017 1049 q 1037 1044 1030 1049 q 1044 1027 1044 1038 q 1041 1013 1044 1020 l 668 25 z "},"W":{"ha":1529,"x_min":17,"x_max":1512,"o":"m 671 25 q 635 0 662 0 l 426 0 q 391 25 399 0 l 19 1013 q 17 1027 17 1020 q 24 1043 17 1037 q 44 1049 31 1049 l 311 1049 q 346 1024 338 1049 l 535 436 l 706 1023 q 719 1043 711 1036 q 741 1049 728 1049 l 1004 1049 q 1024 1043 1017 1049 q 1031 1026 1031 1036 q 1029 1013 1031 1020 l 924 683 l 997 437 l 1184 1023 q 1219 1049 1192 1049 l 1484 1049 q 1505 1043 1498 1049 q 1512 1026 1512 1036 q 1510 1013 1512 1020 l 1134 25 q 1098 0 1125 0 l 892 0 q 856 25 867 0 l 766 283 l 671 25 z "},"X":{"ha":1049,"x_min":19,"x_max":1030,"o":"m 376 22 q 360 5 369 10 q 338 0 352 0 l 45 0 q 25 5 32 0 q 19 19 19 10 q 25 37 19 27 l 334 532 l 43 1012 q 37 1030 37 1022 q 44 1044 37 1039 q 64 1049 51 1049 l 361 1049 q 397 1027 385 1049 l 525 764 l 648 1027 q 685 1049 659 1049 l 983 1049 q 1003 1044 996 1049 q 1010 1029 1010 1038 q 1005 1012 1010 1020 l 727 532 l 1024 37 q 1030 19 1030 28 q 1023 5 1030 10 q 1004 0 1016 0 l 709 0 q 687 5 696 0 q 671 22 678 10 l 524 310 l 376 22 z "},"Y":{"ha":1044,"x_min":17,"x_max":1027,"o":"m 676 31 q 645 0 676 0 l 399 0 q 376 8 384 0 q 367 31 367 16 l 367 388 l 22 1012 q 17 1028 17 1021 q 24 1044 17 1038 q 44 1049 31 1049 l 332 1049 q 368 1025 358 1049 l 524 676 l 674 1025 q 710 1049 684 1049 l 1000 1049 q 1020 1044 1013 1049 q 1027 1028 1027 1038 q 1022 1012 1027 1020 l 676 390 l 676 31 z "},"Z":{"ha":930,"x_min":37,"x_max":893,"o":"m 893 31 q 885 8 893 16 q 862 0 877 0 l 69 0 q 37 31 37 0 l 37 202 q 51 242 37 224 l 451 771 l 77 771 q 54 779 62 771 q 46 802 46 787 l 46 1018 q 54 1041 46 1033 q 77 1049 62 1049 l 831 1049 q 862 1018 862 1049 l 862 862 q 849 822 862 839 l 438 279 l 862 279 q 885 270 877 279 q 893 247 893 262 l 893 31 z "},"":{"ha":1620,"x_min":17,"x_max":1583,"o":"m 1552 277 q 1583 246 1583 277 l 1583 31 q 1552 0 1583 0 l 833 0 q 809 8 818 0 q 801 31 801 16 l 801 131 l 438 131 l 370 19 q 332 -1 357 -1 l 45 -1 q 24 4 31 -1 q 17 19 17 10 q 24 37 17 28 l 711 1030 q 750 1049 724 1049 l 1540 1049 q 1572 1018 1572 1049 l 1572 803 q 1540 772 1572 772 l 1110 772 l 1110 656 l 1434 656 q 1458 648 1449 656 q 1466 625 1466 640 l 1466 429 q 1434 397 1466 397 l 1110 397 l 1110 277 l 1552 277 m 801 415 l 801 697 l 627 415 l 801 415 z "},"":{"ha":1674,"x_min":37,"x_max":1637,"o":"m 1606 277 q 1637 246 1637 277 l 1637 31 q 1606 0 1637 0 l 886 0 q 863 8 871 0 q 855 31 855 16 l 855 32 q 585 -19 727 -19 q 307 54 432 -19 q 109 253 181 128 q 37 527 37 378 q 109 801 37 677 q 307 998 181 925 q 585 1070 432 1070 q 855 1020 727 1070 l 855 1018 q 863 1041 855 1033 q 886 1049 871 1049 l 1594 1049 q 1626 1018 1626 1049 l 1626 803 q 1594 772 1626 772 l 1164 772 l 1164 656 l 1488 656 q 1511 648 1503 656 q 1520 625 1520 640 l 1520 429 q 1488 397 1520 397 l 1164 397 l 1164 277 l 1606 277 m 585 276 q 700 309 646 276 q 786 399 754 342 q 818 526 818 457 q 786 652 818 595 q 700 741 753 709 q 585 774 646 774 q 469 741 523 774 q 383 652 415 709 q 350 526 350 595 q 383 399 350 457 q 470 309 416 342 q 585 276 523 276 z "},"":{"ha":1092,"x_min":-30,"x_max":1054,"o":"m 94 1018 q 125 1049 94 1049 l 499 1049 q 779 981 652 1049 q 980 793 907 912 q 1054 526 1054 673 q 981 258 1054 378 q 780 69 907 137 q 501 0 653 0 l 125 0 q 94 31 94 0 l 94 411 l 1 411 q -22 419 -13 411 q -30 442 -30 427 l -30 618 q -22 641 -30 632 q 1 649 -13 649 l 94 649 l 94 1018 m 511 296 q 631 324 579 296 q 712 405 683 352 q 741 526 741 457 q 712 645 741 593 q 631 725 683 697 q 511 753 579 753 l 402 753 l 402 649 l 565 649 q 596 618 596 649 l 596 442 q 565 411 596 411 l 402 411 l 402 296 l 511 296 z "},"":{"ha":900,"x_min":75,"x_max":862,"o":"m 489 903 q 692 858 608 903 q 819 728 776 813 q 862 526 862 644 q 817 324 862 410 q 689 193 772 238 q 494 147 606 147 l 387 147 l 387 31 q 379 8 387 16 q 355 0 370 0 l 106 0 q 75 31 75 0 l 75 1018 q 106 1049 75 1049 l 355 1049 q 379 1041 370 1049 q 387 1018 387 1033 l 387 903 l 489 903 m 453 432 q 534 455 503 432 q 565 526 565 478 q 534 596 565 574 q 454 618 503 618 l 387 618 l 387 432 l 453 432 z "},"":{"ha":1078,"x_min":60,"x_max":1041,"o":"m 697 -23 q 576 -17 635 -23 q 479 0 518 -10 q 460 28 460 7 q 461 40 460 36 l 523 228 q 552 251 529 251 q 562 249 555 251 l 582 247 q 616 244 590 246 q 658 242 641 242 q 707 264 686 242 q 727 320 727 287 q 698 379 727 357 q 615 402 669 402 q 512 403 534 402 q 489 411 497 403 q 481 435 481 420 l 481 564 q 494 603 481 586 l 610 754 q 487 784 555 784 q 397 743 425 784 q 368 644 368 701 l 368 31 q 360 8 368 16 q 337 0 352 0 l 90 0 q 60 31 60 0 l 60 693 q 112 900 60 815 q 261 1029 164 986 q 489 1072 358 1072 q 702 1041 597 1072 q 898 957 807 1010 q 918 920 918 946 l 918 771 q 915 750 918 759 q 904 733 912 741 l 783 608 q 789 609 784 609 q 908 571 849 609 q 1004 470 966 534 q 1041 329 1041 405 q 994 153 1041 234 q 868 24 947 72 q 697 -23 789 -23 z "},"a":{"ha":1087,"x_min":39,"x_max":989,"o":"m 755 884 q 770 901 761 896 q 792 907 779 907 l 958 907 q 989 876 989 907 l 989 31 q 981 8 989 16 q 958 0 973 0 l 785 0 q 748 23 760 0 l 725 38 q 516 -20 636 -20 q 277 44 387 -20 q 103 216 167 108 q 39 453 39 324 q 103 688 39 580 q 278 859 168 796 q 516 921 388 921 q 728 861 639 921 l 755 884 m 521 258 q 620 282 576 258 q 690 350 665 306 q 716 449 716 394 q 691 548 716 504 q 621 618 665 593 q 523 644 577 644 q 425 619 469 644 q 355 549 381 594 q 330 449 330 504 q 355 349 330 393 q 423 282 379 306 q 521 258 467 258 z "},"b":{"ha":1086,"x_min":98,"x_max":1048,"o":"m 571 921 q 809 859 700 921 q 984 688 919 796 q 1048 453 1048 580 q 984 216 1048 324 q 810 44 920 108 q 571 -20 700 -20 q 362 38 451 -20 l 339 23 q 302 0 327 0 l 129 0 q 106 8 114 0 q 98 31 98 16 l 98 1138 q 129 1169 98 1169 l 357 1169 q 388 1138 388 1169 l 388 886 q 472 912 428 904 q 571 921 517 921 m 566 258 q 664 282 621 258 q 733 349 708 306 q 757 449 757 393 q 732 549 757 504 q 662 619 706 594 q 564 644 618 644 q 466 618 510 644 q 397 548 422 593 q 371 449 371 504 q 397 350 371 394 q 467 282 423 306 q 566 258 511 258 z "},"c":{"ha":873,"x_min":39,"x_max":825,"o":"m 506 -23 q 265 41 372 -23 q 99 212 158 105 q 39 447 39 320 q 98 685 39 577 q 265 858 158 794 q 508 921 372 921 q 673 896 596 921 q 810 825 750 871 q 824 801 824 815 q 817 782 824 792 l 706 621 q 682 606 695 606 q 662 614 674 606 q 595 646 627 635 q 519 657 563 657 q 424 630 468 657 q 354 556 380 603 q 328 447 328 508 q 354 342 328 389 q 425 268 381 295 q 520 241 470 241 q 596 252 563 241 q 662 284 628 262 q 682 291 674 291 q 705 276 694 291 l 817 116 q 825 95 825 104 q 815 76 825 84 q 675 3 753 29 q 506 -23 597 -23 z "},"d":{"ha":1087,"x_min":39,"x_max":989,"o":"m 699 1138 q 730 1169 699 1169 l 958 1169 q 989 1138 989 1169 l 989 31 q 981 8 989 16 q 958 0 973 0 l 785 0 q 748 23 760 0 l 725 38 q 516 -20 636 -20 q 277 44 387 -20 q 103 216 167 108 q 39 453 39 324 q 103 688 39 580 q 278 859 168 796 q 516 921 388 921 q 615 912 570 921 q 699 886 659 904 l 699 1138 m 521 258 q 620 282 576 258 q 690 350 665 306 q 716 449 716 394 q 691 548 716 504 q 621 618 665 593 q 523 644 577 644 q 425 619 469 644 q 355 549 381 594 q 330 449 330 504 q 355 349 330 393 q 423 282 379 306 q 521 258 467 258 z "},"e":{"ha":999,"x_min":39,"x_max":961,"o":"m 516 -23 q 268 41 377 -23 q 99 212 160 105 q 39 448 39 320 q 97 685 39 576 q 259 857 155 793 q 496 921 363 921 q 746 861 641 921 q 906 694 851 800 q 961 450 961 587 q 957 381 961 411 q 924 351 954 351 l 338 351 q 415 264 365 293 q 528 234 465 234 q 604 246 570 234 q 671 279 637 257 q 691 286 680 286 q 713 272 703 286 l 821 118 q 828 99 828 108 q 815 75 828 84 q 678 3 753 28 q 516 -23 603 -23 m 674 562 q 609 646 652 618 q 506 674 565 674 q 402 646 446 674 q 335 562 358 618 l 674 562 z "},"f":{"ha":519,"x_min":-7,"x_max":520,"o":"m 382 31 q 374 8 382 16 q 351 0 366 0 l 122 0 q 99 8 108 0 q 91 31 91 16 l 91 637 l 24 637 q -7 668 -7 637 l -7 876 q 24 907 -7 907 l 91 907 l 91 968 q 128 1126 91 1067 q 244 1210 166 1184 q 450 1237 323 1237 l 486 1237 q 509 1228 501 1237 q 517 1205 517 1220 l 517 1032 q 492 1001 517 1001 l 467 1001 q 399 985 417 1001 q 382 931 382 968 l 382 907 l 489 907 q 520 876 520 907 l 520 668 q 512 645 520 653 q 489 637 504 637 l 382 637 l 382 31 z "},"g":{"ha":1060,"x_min":39,"x_max":962,"o":"m 509 -286 q 317 -263 423 -286 q 137 -192 211 -240 q 122 -168 122 -182 q 127 -149 122 -159 l 217 21 q 241 38 226 38 q 260 32 249 38 q 370 -13 312 3 q 488 -30 429 -30 q 622 1 572 -30 q 673 113 673 32 l 673 115 q 485 74 586 74 q 263 125 366 74 q 100 268 161 177 q 39 471 39 358 q 100 696 39 591 q 265 864 161 801 q 487 927 368 927 q 603 911 551 927 q 698 866 654 895 l 721 884 q 735 901 727 896 q 757 907 744 907 l 930 907 q 962 876 962 907 l 962 143 q 844 -177 962 -67 q 509 -286 727 -286 m 511 324 q 601 349 561 324 q 665 412 642 373 q 688 493 688 451 q 665 581 688 541 q 602 644 642 621 q 512 667 562 667 q 420 644 462 667 q 354 580 379 621 q 330 491 330 540 q 354 412 330 451 q 420 349 379 373 q 511 324 462 324 z "},"h":{"ha":1090,"x_min":98,"x_max":1012,"o":"m 642 921 q 837 870 753 921 q 966 726 921 819 q 1012 510 1012 632 l 1012 31 q 1004 8 1012 16 q 980 0 995 0 l 752 0 q 729 8 737 0 q 721 31 721 16 l 721 477 q 702 571 721 530 q 647 634 682 612 q 566 656 612 656 q 474 632 515 656 q 409 570 432 609 q 386 491 386 532 l 386 31 q 355 0 386 0 l 129 0 q 106 8 114 0 q 98 31 98 16 l 98 1136 q 106 1159 98 1151 q 129 1167 114 1167 l 355 1167 q 386 1136 386 1167 l 386 828 q 511 896 440 870 q 642 921 582 921 z "},"i":{"ha":488,"x_min":98,"x_max":391,"o":"m 128 994 q 98 1025 98 994 l 98 1228 q 128 1259 98 1259 l 359 1259 q 391 1228 391 1259 l 391 1025 q 359 994 391 994 l 128 994 m 389 31 q 381 8 389 16 q 358 0 373 0 l 129 0 q 106 8 114 0 q 98 31 98 16 l 98 876 q 129 907 98 907 l 358 907 q 389 876 389 907 l 389 31 z "},"":{"ha":487,"x_min":98,"x_max":389,"o":"m 389 31 q 381 8 389 16 q 358 0 373 0 l 129 0 q 106 8 114 0 q 98 31 98 16 l 98 876 q 129 907 98 907 l 358 907 q 389 876 389 907 l 389 31 z "},"j":{"ha":482,"x_min":-14,"x_max":385,"o":"m 122 994 q 99 1002 108 994 q 91 1025 91 1010 l 91 1228 q 99 1251 91 1243 q 122 1259 108 1259 l 353 1259 q 376 1251 368 1259 q 385 1228 385 1243 l 385 1025 q 376 1002 385 1010 q 353 994 368 994 l 122 994 m 17 -290 q -6 -282 2 -290 q -14 -258 -14 -273 l -14 -58 q -10 -35 -14 -43 q 2 -27 -6 -27 q 73 -4 53 -27 q 93 68 93 18 l 93 876 q 124 907 93 907 l 351 907 q 382 876 382 907 l 382 67 q 288 -198 382 -106 q 17 -290 194 -290 z "},"":{"ha":479,"x_min":-14,"x_max":382,"o":"m 17 -290 q -6 -282 2 -290 q -14 -258 -14 -273 l -14 -58 q -7 -34 -14 -42 q 17 -27 -1 -27 q 75 -4 57 -27 q 93 68 93 19 l 93 876 q 124 907 93 907 l 351 907 q 382 876 382 907 l 382 67 q 288 -198 382 -106 q 17 -290 194 -290 z "},"k":{"ha":1012,"x_min":98,"x_max":992,"o":"m 985 37 q 992 19 992 28 q 985 5 992 10 q 965 0 977 0 l 694 0 q 672 5 681 0 q 656 21 663 10 l 472 325 l 389 229 l 389 31 q 381 8 389 16 q 358 0 373 0 l 129 0 q 106 8 114 0 q 98 31 98 16 l 98 1136 q 106 1159 98 1151 q 129 1167 114 1167 l 358 1167 q 381 1159 373 1167 q 389 1136 389 1151 l 389 609 l 597 889 q 635 907 610 907 l 942 907 q 962 902 955 907 q 969 889 969 897 q 960 868 969 879 l 669 542 l 985 37 z "},"l":{"ha":484,"x_min":98,"x_max":386,"o":"m 386 31 q 355 0 386 0 l 129 0 q 106 8 114 0 q 98 31 98 16 l 98 1136 q 106 1159 98 1151 q 129 1167 114 1167 l 355 1167 q 386 1136 386 1167 l 386 31 z "},"m":{"ha":1608,"x_min":98,"x_max":1530,"o":"m 1193 930 q 1371 883 1296 930 q 1489 740 1447 835 q 1530 506 1530 644 l 1530 31 q 1499 0 1530 0 l 1270 0 q 1247 8 1255 0 q 1239 31 1239 16 l 1239 497 q 1206 614 1239 572 q 1110 656 1173 656 q 1036 635 1068 656 q 984 582 1004 615 q 960 511 965 549 l 960 31 q 952 8 960 16 q 929 0 944 0 l 700 0 q 669 31 669 0 l 669 497 q 636 614 669 572 q 540 656 603 656 q 461 632 495 656 q 408 569 426 608 q 389 488 389 531 l 389 31 q 381 8 389 16 q 358 0 373 0 l 129 0 q 106 8 114 0 q 98 31 98 16 l 98 876 q 129 907 98 907 l 303 907 q 325 901 317 907 q 340 884 334 896 l 364 851 q 622 930 478 930 q 773 899 706 930 q 886 805 840 868 q 1193 930 1011 930 z "},"n":{"ha":1092,"x_min":98,"x_max":1014,"o":"m 644 921 q 839 870 756 921 q 968 726 923 819 q 1014 510 1014 632 l 1014 31 q 983 0 1014 0 l 755 0 q 724 31 724 0 l 724 477 q 705 571 724 530 q 650 634 685 612 q 568 656 615 656 q 476 632 517 656 q 412 570 435 609 q 389 491 389 532 l 389 31 q 381 8 389 16 q 358 0 373 0 l 129 0 q 106 8 114 0 q 98 31 98 16 l 98 876 q 129 907 98 907 l 303 907 q 340 884 328 907 l 379 819 q 507 893 432 865 q 644 921 581 921 z "},"o":{"ha":1050,"x_min":39,"x_max":1012,"o":"m 522 -23 q 278 40 389 -23 q 103 211 167 103 q 39 447 39 318 q 103 686 39 577 q 279 858 168 795 q 524 921 391 921 q 770 858 659 921 q 947 686 882 795 q 1012 447 1012 577 q 946 211 1012 318 q 769 40 881 103 q 522 -23 656 -23 m 525 255 q 624 280 579 255 q 695 350 669 305 q 721 449 721 394 q 695 548 721 504 q 624 618 669 593 q 525 644 579 644 q 426 618 470 644 q 356 548 382 593 q 330 449 330 504 q 356 350 330 394 q 426 280 382 305 q 525 255 470 255 z "},"p":{"ha":1086,"x_min":98,"x_max":1048,"o":"m 571 921 q 809 859 700 921 q 984 688 919 796 q 1048 453 1048 580 q 984 216 1048 324 q 810 44 920 108 q 571 -20 700 -20 q 389 16 469 -20 l 389 -234 q 381 -257 389 -249 q 358 -265 373 -265 l 129 -265 q 106 -257 114 -265 q 98 -234 98 -249 l 98 876 q 129 907 98 907 l 296 907 q 332 884 320 907 l 359 861 q 571 921 448 921 m 566 258 q 664 282 621 258 q 733 349 708 306 q 757 449 757 393 q 732 549 757 504 q 662 619 706 594 q 564 644 618 644 q 466 618 510 644 q 397 548 422 593 q 371 449 371 504 q 397 350 371 394 q 467 282 423 306 q 566 258 511 258 z "},"q":{"ha":1087,"x_min":39,"x_max":989,"o":"m 755 884 q 770 901 761 896 q 792 907 779 907 l 958 907 q 989 876 989 907 l 989 -234 q 981 -257 989 -249 q 958 -265 973 -265 l 730 -265 q 698 -234 698 -265 l 698 16 q 516 -20 618 -20 q 277 44 387 -20 q 103 216 167 108 q 39 453 39 324 q 103 688 39 580 q 278 859 168 796 q 516 921 388 921 q 728 861 639 921 l 755 884 m 521 258 q 620 282 576 258 q 690 350 665 306 q 716 449 716 394 q 691 548 716 504 q 621 618 665 593 q 523 644 577 644 q 425 619 469 644 q 355 549 381 594 q 330 449 330 504 q 355 349 330 393 q 423 282 379 306 q 521 258 467 258 z "},"r":{"ha":814,"x_min":98,"x_max":803,"o":"m 603 921 q 786 868 696 921 q 803 842 803 856 q 797 825 803 833 l 696 635 q 672 618 687 618 q 654 623 664 618 q 560 650 605 650 q 478 626 517 650 q 414 554 438 603 q 389 436 389 506 l 389 31 q 381 8 389 16 q 358 0 373 0 l 129 0 q 106 8 114 0 q 98 31 98 16 l 98 876 q 129 907 98 907 l 303 907 q 340 884 328 907 l 385 815 q 476 894 420 867 q 603 921 532 921 z "},"s":{"ha":787,"x_min":40,"x_max":745,"o":"m 422 -23 q 223 13 313 -23 q 52 121 134 49 q 40 143 40 132 q 48 165 40 153 l 158 305 q 180 319 168 319 q 202 310 190 319 q 305 257 248 278 q 414 236 362 236 q 453 242 439 236 q 466 264 466 249 q 440 299 466 281 q 338 344 414 317 q 152 451 225 384 q 78 636 78 517 q 116 777 78 712 q 231 881 154 842 q 420 921 308 921 q 576 891 496 921 q 720 798 657 860 q 730 777 730 789 q 719 755 730 765 l 580 611 q 559 600 570 600 q 536 610 548 600 q 477 644 511 630 q 409 657 443 657 q 357 626 357 657 q 370 605 357 615 q 411 584 382 595 q 494 554 440 572 q 681 448 616 514 q 745 268 745 382 q 708 127 745 193 q 597 18 670 60 q 422 -23 523 -23 z "},"t":{"ha":539,"x_min":-2,"x_max":541,"o":"m 382 31 q 374 8 382 16 q 351 0 366 0 l 122 0 q 99 8 108 0 q 91 31 91 16 l 91 637 l 29 637 q 6 645 14 637 q -2 668 -2 653 l -2 876 q 29 907 -2 907 l 90 907 l 90 1071 q 117 1105 90 1100 l 349 1151 q 357 1151 352 1151 q 376 1144 369 1151 q 383 1122 383 1136 l 383 907 l 509 907 q 541 876 541 907 l 541 668 q 532 645 541 653 q 509 637 524 637 l 382 637 l 382 31 z "},"u":{"ha":1092,"x_min":78,"x_max":995,"o":"m 703 876 q 735 907 703 907 l 963 907 q 995 876 995 907 l 995 31 q 963 0 995 0 l 790 0 q 753 23 765 0 l 714 87 q 587 14 661 42 q 448 -14 512 -14 q 253 37 337 -14 q 124 181 170 88 q 78 397 78 274 l 78 876 q 110 907 78 907 l 338 907 q 369 876 369 907 l 369 429 q 388 336 369 377 q 442 273 407 296 q 524 251 478 251 q 616 275 575 251 q 680 336 657 299 q 703 415 703 374 l 703 876 z "},"v":{"ha":978,"x_min":13,"x_max":965,"o":"m 638 25 q 603 0 629 0 l 375 0 q 339 25 348 0 l 16 871 q 13 884 13 877 q 21 901 13 895 q 42 907 28 907 l 298 907 q 335 881 326 907 l 489 352 l 644 881 q 680 907 652 907 l 937 907 q 957 901 950 907 q 965 885 965 895 q 962 871 965 877 l 638 25 z "},"w":{"ha":1421,"x_min":13,"x_max":1408,"o":"m 1089 881 q 1125 907 1097 907 l 1380 907 q 1400 900 1393 907 q 1408 883 1408 894 q 1405 871 1408 877 l 1109 25 q 1073 0 1100 0 l 849 0 q 813 25 822 0 l 706 317 l 611 25 q 576 0 603 0 l 348 0 q 312 25 321 0 l 16 871 q 13 883 13 877 q 21 900 13 894 q 40 907 28 907 l 284 907 q 318 881 311 907 l 464 352 l 579 880 q 591 900 582 894 q 613 907 599 907 l 869 907 q 889 900 882 907 q 896 883 896 894 q 894 871 896 877 l 833 684 l 944 352 l 1089 881 z "},"x":{"ha":989,"x_min":22,"x_max":968,"o":"m 364 21 q 327 0 353 0 l 49 0 q 29 5 36 0 q 22 19 22 10 q 28 38 22 28 l 318 461 l 46 869 q 40 888 40 880 q 47 901 40 896 q 67 907 54 907 l 348 907 q 370 902 361 907 q 385 885 379 897 l 495 668 l 605 885 q 619 902 611 897 q 641 907 628 907 l 924 907 q 943 902 936 907 q 951 888 951 897 q 945 869 951 878 l 681 461 l 963 37 q 968 19 968 28 q 961 5 968 10 q 942 0 954 0 l 662 0 q 641 5 650 0 q 625 21 632 10 l 494 260 l 364 21 z "},"y":{"ha":978,"x_min":13,"x_max":965,"o":"m 550 -240 q 514 -265 541 -265 l 273 -265 q 253 -259 260 -265 q 246 -244 246 -254 q 249 -229 246 -236 l 342 4 l 16 871 q 13 884 13 879 q 20 901 13 895 q 40 907 27 907 l 296 907 q 332 881 325 907 l 487 371 l 644 881 q 680 907 651 907 l 937 907 q 957 901 950 907 q 965 885 965 895 q 962 871 965 877 l 550 -240 z "},"z":{"ha":871,"x_min":49,"x_max":822,"o":"m 822 31 q 791 0 822 0 l 81 0 q 57 8 66 0 q 49 31 49 16 l 49 179 q 63 219 49 201 l 402 642 l 87 642 q 64 650 72 642 q 56 674 56 659 l 56 876 q 87 907 56 907 l 770 907 q 801 876 801 907 l 801 738 q 788 699 801 715 l 436 264 l 791 264 q 822 233 822 264 l 822 31 z "},"":{"ha":1706,"x_min":39,"x_max":1668,"o":"m 502 -23 q 267 40 373 -23 q 100 211 161 103 q 39 447 39 319 q 100 685 39 576 q 267 858 161 794 q 501 921 373 921 q 646 899 583 921 q 759 836 709 877 l 792 883 q 808 901 800 895 q 829 907 816 907 l 912 907 q 926 903 921 907 q 937 893 931 900 q 948 883 943 887 l 964 869 q 1203 921 1075 921 q 1453 861 1348 921 q 1613 694 1558 800 q 1668 450 1668 587 q 1665 381 1668 414 q 1632 351 1661 351 l 1045 351 q 1122 264 1072 293 q 1235 234 1172 234 q 1311 246 1278 234 q 1378 279 1344 257 q 1398 286 1387 286 q 1421 272 1411 286 l 1529 118 q 1536 98 1536 108 q 1523 75 1536 85 q 1385 3 1461 28 q 1223 -23 1310 -23 q 965 35 1085 -23 l 949 24 q 942 18 945 21 q 937 13 939 16 q 926 3 931 7 q 912 0 921 0 l 822 0 q 802 6 810 0 q 786 24 795 11 l 759 61 q 646 -1 709 21 q 502 -23 583 -23 m 1381 562 q 1316 646 1359 618 q 1213 674 1272 674 q 1109 646 1153 674 q 1042 562 1066 618 l 1381 562 m 532 243 q 636 268 590 243 q 709 340 682 293 q 736 447 736 387 q 709 556 736 509 q 637 629 683 603 q 532 655 591 655 q 430 629 477 655 q 355 555 383 603 q 328 447 328 508 q 355 341 328 388 q 430 268 383 294 q 532 243 476 243 z "},"":{"ha":1683,"x_min":39,"x_max":1645,"o":"m 522 -23 q 278 40 389 -23 q 103 211 167 103 q 39 447 39 318 q 103 686 39 577 q 279 858 168 795 q 524 921 391 921 q 705 891 620 921 q 860 803 791 860 q 1004 891 924 860 q 1179 921 1085 921 q 1429 861 1324 921 q 1590 694 1534 800 q 1645 450 1645 587 q 1641 381 1645 411 q 1608 351 1637 351 l 1022 351 q 1099 264 1049 293 q 1212 234 1149 234 q 1287 245 1254 234 q 1355 279 1320 256 q 1374 286 1364 286 q 1397 272 1387 286 l 1505 118 q 1512 99 1512 108 q 1499 75 1512 85 q 1362 3 1437 28 q 1200 -23 1286 -23 q 1016 9 1101 -23 q 862 98 930 40 q 706 9 793 40 q 522 -23 619 -23 m 1358 562 q 1292 646 1335 618 q 1189 674 1249 674 q 1086 646 1130 674 q 1019 562 1042 618 l 1358 562 m 525 255 q 624 280 579 255 q 694 350 668 305 q 721 449 721 394 q 694 548 721 504 q 624 618 668 593 q 525 644 579 644 q 426 618 470 644 q 356 548 382 593 q 330 449 330 504 q 356 350 330 394 q 426 280 382 305 q 525 255 470 255 z "},"":{"ha":1016,"x_min":39,"x_max":978,"o":"m 859 1095 q 866 1076 866 1086 q 848 1052 866 1062 l 752 1002 q 918 713 857 851 q 978 429 978 575 q 916 194 978 296 q 746 34 854 91 q 503 -23 638 -23 q 270 32 376 -23 q 101 186 164 88 q 39 404 39 284 q 91 604 39 510 q 237 755 143 697 q 454 812 332 812 q 473 812 457 812 q 509 808 490 812 q 544 793 528 803 q 497 845 522 821 l 483 859 l 450 842 q 431 836 438 836 q 406 853 416 836 l 358 927 q 352 946 352 936 q 369 971 352 962 l 390 981 q 373 1004 388 983 l 361 1022 q 354 1041 354 1031 q 371 1065 354 1056 l 586 1178 q 603 1184 597 1184 q 629 1168 618 1184 l 661 1124 l 769 1181 q 786 1186 778 1186 q 812 1170 801 1186 l 859 1095 m 505 244 q 615 287 573 244 q 656 411 656 330 q 636 559 656 478 q 598 568 617 566 q 553 570 579 570 l 511 570 q 425 549 464 570 q 365 489 387 527 q 343 404 343 452 q 388 282 343 319 q 505 244 433 244 z "},"":{"ha":1086,"x_min":98,"x_max":1048,"o":"m 571 921 q 809 859 700 921 q 984 688 919 796 q 1048 453 1048 580 q 984 216 1048 324 q 810 44 920 108 q 571 -20 700 -20 q 389 16 469 -20 l 389 -234 q 381 -257 389 -249 q 358 -265 373 -265 l 129 -265 q 106 -257 114 -265 q 98 -234 98 -249 l 98 1136 q 106 1159 98 1151 q 129 1167 114 1167 l 355 1167 q 386 1136 386 1167 l 386 884 q 571 921 464 921 m 566 258 q 664 282 621 258 q 733 349 708 306 q 757 449 757 393 q 732 549 757 504 q 662 619 706 594 q 564 644 618 644 q 466 618 510 644 q 397 548 422 593 q 371 449 371 504 q 397 350 371 394 q 467 282 423 306 q 566 258 511 258 z "},"":{"ha":982,"x_min":98,"x_max":944,"o":"m 129 0 q 106 8 114 0 q 98 31 98 16 l 98 797 q 150 1018 98 933 q 286 1141 202 1103 q 471 1178 370 1178 q 679 1135 591 1178 q 813 1021 767 1092 q 859 866 859 950 q 834 731 859 788 q 753 638 809 674 q 895 534 846 601 q 944 376 944 467 q 895 176 944 261 q 755 46 845 91 q 542 0 664 0 l 500 0 q 476 8 485 0 q 468 31 468 16 l 468 247 q 476 270 468 262 q 500 279 485 279 l 544 279 q 624 304 595 279 q 653 370 653 329 q 622 439 653 417 q 516 461 591 461 q 485 492 485 461 l 485 695 q 491 719 485 712 q 518 727 497 727 q 545 738 532 727 q 566 768 558 749 q 574 810 574 788 q 547 876 574 852 q 473 900 519 900 q 409 868 429 900 q 389 790 389 836 l 389 31 q 381 8 389 16 q 358 0 373 0 l 129 0 z "},"":{"ha":1078,"x_min":17,"x_max":1060,"o":"m 1057 36 q 1060 22 1060 29 q 1053 6 1060 12 q 1033 0 1046 0 l 780 0 q 745 26 753 0 l 709 142 l 368 142 l 332 26 q 296 0 323 0 l 45 0 q 24 6 31 0 q 17 23 17 13 q 19 36 17 29 l 397 1026 q 432 1051 405 1051 l 647 1051 q 683 1026 674 1051 l 1057 36 m 624 397 l 553 627 l 538 682 l 525 627 l 454 397 l 624 397 m 736 1317 q 755 1312 748 1317 q 762 1299 762 1307 q 752 1279 762 1290 l 611 1134 q 594 1122 603 1125 q 573 1118 585 1118 l 417 1118 q 398 1123 405 1118 q 391 1137 391 1128 q 398 1156 391 1146 l 497 1298 q 536 1317 512 1317 l 736 1317 z "},"":{"ha":1078,"x_min":17,"x_max":1060,"o":"m 1057 36 q 1060 22 1060 29 q 1053 6 1060 12 q 1033 0 1046 0 l 780 0 q 745 26 753 0 l 709 142 l 368 142 l 332 26 q 296 0 323 0 l 45 0 q 24 6 31 0 q 17 23 17 13 q 19 36 17 29 l 397 1026 q 432 1051 405 1051 l 647 1051 q 683 1026 674 1051 l 1057 36 m 624 397 l 553 627 l 538 682 l 525 627 l 454 397 l 624 397 m 524 1120 q 356 1170 415 1120 q 287 1302 296 1221 q 293 1325 284 1317 q 317 1334 301 1334 l 438 1334 q 460 1327 453 1334 q 471 1305 467 1319 q 524 1266 483 1266 q 578 1305 566 1266 q 589 1327 582 1319 q 611 1334 597 1334 l 732 1334 q 755 1328 747 1334 q 762 1310 763 1322 q 696 1172 756 1225 q 524 1120 636 1120 z "},"":{"ha":1078,"x_min":17,"x_max":1060,"o":"m 1057 36 q 1060 22 1060 29 q 1053 6 1060 12 q 1033 0 1046 0 l 780 0 q 745 26 753 0 l 709 142 l 368 142 l 332 26 q 296 0 323 0 l 45 0 q 24 6 31 0 q 17 23 17 13 q 19 36 17 29 l 397 1026 q 432 1051 405 1051 l 647 1051 q 683 1026 674 1051 l 1057 36 m 624 397 l 553 627 l 538 682 l 525 627 l 454 397 l 624 397 m 671 1550 q 692 1546 685 1551 q 699 1532 699 1541 q 691 1513 699 1523 l 605 1396 q 589 1381 597 1386 q 568 1377 580 1377 l 473 1375 q 452 1380 459 1374 q 445 1396 445 1385 q 448 1410 445 1403 l 493 1523 q 529 1548 503 1548 l 671 1550 m 525 1107 q 355 1160 414 1107 q 287 1305 296 1213 q 293 1328 285 1320 q 317 1337 302 1337 l 438 1337 q 471 1307 467 1337 q 488 1272 476 1282 q 525 1262 501 1262 q 562 1272 550 1262 q 579 1307 574 1282 q 589 1329 582 1322 q 611 1337 597 1337 l 732 1337 q 763 1310 763 1337 q 697 1161 756 1215 q 525 1107 638 1107 z "},"":{"ha":1078,"x_min":17,"x_max":1060,"o":"m 1057 36 q 1060 22 1060 29 q 1053 6 1060 12 q 1033 0 1046 0 l 780 0 q 745 26 753 0 l 709 142 l 368 142 l 332 26 q 296 0 323 0 l 45 0 q 24 6 31 0 q 17 23 17 13 q 19 36 17 29 l 397 1026 q 432 1051 405 1051 l 647 1051 q 683 1026 674 1051 l 1057 36 m 624 397 l 553 627 l 538 682 l 525 627 l 454 397 l 624 397 m 649 -271 q 618 -302 649 -302 l 438 -302 q 407 -271 407 -302 l 407 -116 q 438 -85 407 -85 l 618 -85 q 649 -116 649 -85 l 649 -271 m 524 1120 q 356 1170 415 1120 q 287 1302 296 1221 q 293 1325 284 1317 q 317 1334 301 1334 l 438 1334 q 460 1327 453 1334 q 471 1305 467 1319 q 524 1266 483 1266 q 578 1305 566 1266 q 589 1327 582 1319 q 611 1334 597 1334 l 732 1334 q 755 1328 747 1334 q 762 1310 763 1322 q 696 1172 756 1225 q 524 1120 636 1120 z "},"":{"ha":1078,"x_min":17,"x_max":1060,"o":"m 1057 36 q 1060 22 1060 29 q 1053 6 1060 12 q 1033 0 1046 0 l 780 0 q 745 26 753 0 l 709 142 l 368 142 l 332 26 q 296 0 323 0 l 45 0 q 24 6 31 0 q 17 23 17 13 q 19 36 17 29 l 397 1026 q 432 1051 405 1051 l 647 1051 q 683 1026 674 1051 l 1057 36 m 624 397 l 553 627 l 538 682 l 525 627 l 454 397 l 624 397 m 599 1410 q 602 1396 602 1403 q 594 1380 602 1386 q 573 1375 587 1375 l 479 1377 q 458 1381 466 1377 q 441 1396 450 1386 l 355 1513 q 348 1532 348 1523 q 355 1546 348 1541 q 376 1550 362 1551 l 518 1548 q 553 1523 543 1548 l 599 1410 m 522 1107 q 351 1159 410 1107 q 284 1305 293 1212 q 291 1328 283 1320 q 315 1337 299 1337 l 435 1337 q 467 1307 463 1337 q 485 1272 472 1282 q 522 1262 497 1262 q 558 1272 546 1262 q 575 1307 570 1282 q 608 1337 579 1337 l 730 1337 q 752 1330 744 1337 q 759 1310 760 1323 q 694 1162 753 1216 q 522 1107 635 1107 z "},"":{"ha":1078,"x_min":17,"x_max":1060,"o":"m 1057 36 q 1060 22 1060 29 q 1053 6 1060 12 q 1033 0 1046 0 l 780 0 q 745 26 753 0 l 709 142 l 368 142 l 332 26 q 296 0 323 0 l 45 0 q 24 6 31 0 q 17 23 17 13 q 19 36 17 29 l 397 1026 q 432 1051 405 1051 l 647 1051 q 683 1026 674 1051 l 1057 36 m 624 397 l 553 627 l 538 682 l 525 627 l 454 397 l 624 397 m 583 1377 q 545 1358 570 1358 q 506 1362 518 1358 q 494 1375 494 1365 q 498 1387 494 1378 q 504 1418 504 1404 q 487 1439 504 1439 q 476 1437 483 1439 q 461 1436 470 1436 q 442 1445 449 1436 q 436 1475 436 1453 q 455 1503 436 1496 q 529 1521 491 1521 q 598 1506 571 1521 q 624 1464 624 1491 q 615 1425 624 1443 q 583 1377 605 1406 m 525 1108 q 355 1161 414 1108 q 287 1306 296 1214 q 293 1330 285 1321 q 317 1338 302 1338 l 438 1338 q 471 1307 467 1338 q 488 1273 476 1284 q 525 1263 501 1263 q 562 1273 550 1263 q 579 1307 574 1283 q 589 1330 582 1322 q 611 1338 597 1338 l 732 1338 q 763 1311 763 1338 q 697 1162 756 1216 q 525 1108 638 1108 z "},"":{"ha":1078,"x_min":17,"x_max":1060,"o":"m 1057 36 q 1060 22 1060 29 q 1053 6 1060 12 q 1033 0 1046 0 l 780 0 q 745 26 753 0 l 709 142 l 368 142 l 332 26 q 296 0 323 0 l 45 0 q 24 6 31 0 q 17 23 17 13 q 19 36 17 29 l 397 1026 q 432 1051 405 1051 l 647 1051 q 683 1026 674 1051 l 1057 36 m 624 397 l 553 627 l 538 682 l 525 627 l 454 397 l 624 397 m 467 1389 q 445 1379 456 1379 q 426 1385 435 1379 q 395 1406 404 1399 q 386 1423 386 1414 q 392 1441 386 1429 q 438 1499 414 1482 q 488 1515 461 1515 q 528 1510 510 1515 q 570 1496 545 1505 q 593 1489 582 1492 q 612 1485 603 1485 q 626 1490 618 1485 q 652 1504 642 1504 q 666 1500 658 1504 q 680 1492 674 1496 q 691 1484 687 1487 q 709 1458 709 1474 q 704 1441 709 1450 q 658 1384 682 1400 q 607 1367 634 1367 q 568 1372 585 1367 q 525 1386 550 1376 q 503 1394 514 1390 q 484 1397 492 1397 q 476 1395 481 1397 q 467 1389 471 1393 m 525 1107 q 355 1161 414 1107 q 287 1306 296 1214 q 293 1330 285 1321 q 317 1338 302 1338 l 438 1338 q 471 1307 467 1338 q 488 1273 476 1283 q 525 1263 501 1263 q 562 1273 550 1263 q 579 1307 574 1283 q 589 1330 582 1322 q 611 1338 597 1338 l 732 1338 q 755 1331 747 1338 q 763 1310 763 1324 q 697 1162 756 1216 q 525 1107 638 1107 z "},"":{"ha":1078,"x_min":17,"x_max":1060,"o":"m 1057 36 q 1060 22 1060 29 q 1053 6 1060 12 q 1033 0 1046 0 l 780 0 q 745 26 753 0 l 709 142 l 368 142 l 332 26 q 296 0 323 0 l 45 0 q 24 6 31 0 q 17 23 17 13 q 19 36 17 29 l 397 1026 q 432 1051 405 1051 l 647 1051 q 683 1026 674 1051 l 1057 36 m 624 397 l 553 627 l 538 682 l 525 627 l 454 397 l 624 397 m 309 1260 q 296 1284 296 1272 q 304 1305 296 1294 l 361 1378 q 385 1390 372 1390 q 405 1383 395 1390 l 526 1293 l 647 1383 q 667 1390 657 1390 q 691 1376 681 1390 l 747 1305 q 755 1284 755 1295 q 742 1260 755 1272 l 568 1124 q 526 1110 550 1110 q 485 1124 503 1110 l 309 1260 z "},"":{"ha":1078,"x_min":17,"x_max":1060,"o":"m 1057 36 q 1060 22 1060 29 q 1053 6 1060 12 q 1033 0 1046 0 l 780 0 q 745 26 753 0 l 709 142 l 368 142 l 332 26 q 296 0 323 0 l 45 0 q 24 6 31 0 q 17 23 17 13 q 19 36 17 29 l 397 1026 q 432 1051 405 1051 l 647 1051 q 683 1026 674 1051 l 1057 36 m 624 397 l 553 627 l 538 682 l 525 627 l 454 397 l 624 397 m 402 1119 q 382 1111 393 1111 q 358 1124 370 1111 l 302 1197 q 293 1217 293 1207 q 307 1241 293 1230 l 483 1378 q 524 1392 500 1392 q 565 1378 548 1392 l 740 1241 q 753 1217 753 1230 q 745 1197 753 1207 l 689 1124 q 666 1111 679 1111 q 645 1119 655 1111 l 523 1208 l 402 1119 z "},"":{"ha":1078,"x_min":17,"x_max":1060,"o":"m 1057 36 q 1060 22 1060 29 q 1053 6 1060 12 q 1033 0 1046 0 l 780 0 q 745 26 753 0 l 709 142 l 368 142 l 332 26 q 296 0 323 0 l 45 0 q 24 6 31 0 q 17 23 17 13 q 19 36 17 29 l 397 1026 q 432 1051 405 1051 l 647 1051 q 683 1026 674 1051 l 1057 36 m 624 397 l 553 627 l 538 682 l 525 627 l 454 397 l 624 397 z "},"":{"ha":1078,"x_min":17,"x_max":1060,"o":"m 1057 36 q 1060 22 1060 29 q 1053 6 1060 12 q 1033 0 1046 0 l 780 0 q 745 26 753 0 l 709 142 l 368 142 l 332 26 q 296 0 323 0 l 45 0 q 24 6 31 0 q 17 23 17 13 q 19 36 17 29 l 397 1026 q 432 1051 405 1051 l 647 1051 q 683 1026 674 1051 l 1057 36 m 624 397 l 553 627 l 538 682 l 525 627 l 454 397 l 624 397 m 649 -271 q 618 -302 649 -302 l 438 -302 q 407 -271 407 -302 l 407 -116 q 438 -85 407 -85 l 618 -85 q 649 -116 649 -85 l 649 -271 m 402 1119 q 382 1111 393 1111 q 358 1124 370 1111 l 302 1197 q 293 1217 293 1207 q 307 1241 293 1230 l 483 1378 q 524 1392 500 1392 q 565 1378 548 1392 l 740 1241 q 753 1217 753 1230 q 745 1197 753 1207 l 689 1124 q 666 1111 679 1111 q 645 1119 655 1111 l 523 1208 l 402 1119 z "},"":{"ha":1078,"x_min":17,"x_max":1060,"o":"m 1057 36 q 1060 22 1060 29 q 1053 6 1060 12 q 1033 0 1046 0 l 780 0 q 745 26 753 0 l 709 142 l 368 142 l 332 26 q 296 0 323 0 l 45 0 q 24 6 31 0 q 17 23 17 13 q 19 36 17 29 l 397 1026 q 432 1051 405 1051 l 647 1051 q 683 1026 674 1051 l 1057 36 m 624 397 l 553 627 l 538 682 l 525 627 l 454 397 l 624 397 m 795 1276 q 812 1251 812 1267 q 806 1233 812 1243 l 766 1160 q 740 1142 756 1142 q 723 1147 732 1142 l 591 1212 l 458 1147 q 442 1142 450 1142 q 416 1160 425 1142 l 376 1234 q 370 1252 370 1244 q 387 1276 370 1267 l 472 1323 l 373 1322 q 335 1342 348 1322 l 273 1422 q 265 1442 265 1434 q 272 1455 265 1450 q 293 1461 279 1461 l 392 1461 q 414 1456 405 1461 q 429 1437 423 1450 l 475 1328 l 476 1325 l 550 1366 q 589 1378 568 1378 q 630 1368 612 1378 l 795 1276 z "},"":{"ha":1078,"x_min":17,"x_max":1060,"o":"m 1057 36 q 1060 22 1060 29 q 1053 6 1060 12 q 1033 0 1046 0 l 780 0 q 745 26 753 0 l 709 142 l 368 142 l 332 26 q 296 0 323 0 l 45 0 q 24 6 31 0 q 17 23 17 13 q 19 36 17 29 l 397 1026 q 432 1051 405 1051 l 647 1051 q 683 1026 674 1051 l 1057 36 m 624 397 l 553 627 l 538 682 l 525 627 l 454 397 l 624 397 m 759 1297 q 721 1278 744 1278 q 690 1282 700 1278 q 680 1295 680 1286 q 682 1305 680 1299 q 687 1331 687 1320 q 671 1350 687 1350 q 665 1349 668 1350 q 652 1348 655 1348 q 637 1352 642 1348 q 629 1368 631 1357 q 627 1381 627 1372 q 647 1409 627 1400 q 709 1423 677 1423 q 771 1410 747 1423 q 795 1372 795 1396 q 787 1338 795 1355 q 759 1297 778 1322 m 402 1101 q 385 1096 394 1096 q 359 1114 369 1096 l 319 1187 q 314 1205 314 1197 q 330 1230 314 1221 l 495 1322 q 514 1330 505 1328 q 536 1331 523 1331 q 575 1321 557 1331 l 739 1230 q 755 1205 755 1221 q 750 1187 755 1197 l 709 1114 q 683 1096 700 1096 q 668 1101 676 1096 l 535 1166 l 402 1101 z "},"":{"ha":1078,"x_min":17,"x_max":1060,"o":"m 1057 36 q 1060 22 1060 29 q 1053 6 1060 12 q 1033 0 1046 0 l 780 0 q 745 26 753 0 l 709 142 l 368 142 l 332 26 q 296 0 323 0 l 45 0 q 24 6 31 0 q 17 23 17 13 q 19 36 17 29 l 397 1026 q 432 1051 405 1051 l 647 1051 q 683 1026 674 1051 l 1057 36 m 624 397 l 553 627 l 538 682 l 525 627 l 454 397 l 624 397 m 450 1384 q 431 1375 441 1375 q 411 1381 423 1375 q 386 1400 394 1393 q 379 1416 379 1408 q 385 1433 379 1422 q 424 1481 403 1468 q 469 1495 444 1495 q 506 1490 489 1495 q 543 1478 523 1486 q 559 1473 547 1477 q 578 1470 570 1470 q 589 1472 582 1470 q 615 1484 606 1484 q 629 1480 621 1484 q 647 1470 638 1476 q 665 1443 665 1459 q 660 1426 665 1434 q 575 1364 626 1364 q 539 1368 556 1364 q 501 1380 523 1372 q 464 1390 475 1390 q 450 1384 458 1390 m 394 1099 q 377 1095 385 1095 q 351 1113 361 1095 l 311 1185 q 305 1204 305 1195 q 322 1228 305 1219 l 487 1319 q 506 1327 497 1325 q 528 1329 515 1329 q 567 1319 549 1329 l 730 1228 q 747 1204 747 1219 q 741 1185 747 1195 l 701 1113 q 675 1095 692 1095 q 659 1099 668 1095 l 526 1164 l 394 1099 z "},"":{"ha":1078,"x_min":17,"x_max":1060,"o":"m 1057 36 q 1060 22 1060 29 q 1053 6 1060 12 q 1033 0 1046 0 l 780 0 q 745 26 753 0 l 709 142 l 368 142 l 332 26 q 296 0 323 0 l 45 0 q 24 6 31 0 q 17 23 17 13 q 19 36 17 29 l 397 1026 q 432 1051 405 1051 l 647 1051 q 683 1026 674 1051 l 1057 36 m 624 397 l 553 627 l 538 682 l 525 627 l 454 397 l 624 397 m 788 1166 q 795 1147 795 1156 q 788 1133 795 1138 q 768 1128 781 1128 l 635 1128 q 597 1144 612 1128 l 476 1268 q 466 1288 466 1278 q 473 1301 466 1296 q 494 1306 481 1306 l 665 1306 q 703 1286 689 1306 l 788 1166 m 480 1166 q 488 1146 488 1156 q 481 1132 488 1137 q 460 1127 473 1127 l 328 1127 q 290 1144 307 1127 l 170 1267 q 159 1288 159 1278 q 166 1301 159 1296 q 186 1305 173 1305 l 357 1305 q 395 1286 381 1305 l 480 1166 z "},"":{"ha":1078,"x_min":17,"x_max":1060,"o":"m 1057 36 q 1060 22 1060 29 q 1053 6 1060 12 q 1033 0 1046 0 l 780 0 q 745 26 753 0 l 709 142 l 368 142 l 332 26 q 296 0 323 0 l 45 0 q 24 6 31 0 q 17 23 17 13 q 19 36 17 29 l 397 1026 q 432 1051 405 1051 l 647 1051 q 683 1026 674 1051 l 1057 36 m 624 397 l 553 627 l 538 682 l 525 627 l 454 397 l 624 397 m 453 1153 q 422 1122 453 1122 l 263 1122 q 231 1153 231 1122 l 231 1322 q 263 1354 231 1354 l 422 1354 q 453 1322 453 1354 l 453 1153 m 820 1153 q 812 1130 820 1138 q 789 1122 803 1122 l 629 1122 q 606 1130 614 1122 q 597 1153 597 1138 l 597 1322 q 606 1346 597 1337 q 629 1354 614 1354 l 789 1354 q 812 1346 803 1354 q 820 1322 820 1337 l 820 1153 z "},"":{"ha":1078,"x_min":17,"x_max":1060,"o":"m 1057 36 q 1060 22 1060 29 q 1053 6 1060 12 q 1033 0 1046 0 l 780 0 q 745 26 753 0 l 709 142 l 368 142 l 332 26 q 296 0 323 0 l 45 0 q 24 6 31 0 q 17 23 17 13 q 19 36 17 29 l 397 1026 q 432 1051 405 1051 l 647 1051 q 683 1026 674 1051 l 1057 36 m 624 397 l 553 627 l 538 682 l 525 627 l 454 397 l 624 397 m 453 1153 q 422 1122 453 1122 l 263 1122 q 231 1153 231 1122 l 231 1322 q 263 1354 231 1354 l 422 1354 q 453 1322 453 1354 l 453 1153 m 820 1153 q 812 1130 820 1138 q 789 1122 803 1122 l 629 1122 q 606 1130 614 1122 q 597 1153 597 1138 l 597 1322 q 606 1346 597 1337 q 629 1354 614 1354 l 789 1354 q 812 1346 803 1354 q 820 1322 820 1337 l 820 1153 m 761 1444 q 730 1413 761 1413 l 341 1413 q 309 1444 309 1413 l 309 1549 q 341 1580 309 1580 l 730 1580 q 761 1549 761 1580 l 761 1444 z "},"":{"ha":1078,"x_min":17,"x_max":1060,"o":"m 1057 36 q 1060 22 1060 29 q 1053 6 1060 12 q 1033 0 1046 0 l 780 0 q 745 26 753 0 l 709 142 l 368 142 l 332 26 q 296 0 323 0 l 45 0 q 24 6 31 0 q 17 23 17 13 q 19 36 17 29 l 397 1026 q 432 1051 405 1051 l 647 1051 q 683 1026 674 1051 l 1057 36 m 624 397 l 553 627 l 538 682 l 525 627 l 454 397 l 624 397 m 647 1154 q 616 1123 647 1123 l 437 1123 q 405 1154 405 1123 l 405 1309 q 437 1340 405 1340 l 616 1340 q 647 1309 647 1340 l 647 1154 z "},"":{"ha":1078,"x_min":17,"x_max":1060,"o":"m 1057 36 q 1060 22 1060 29 q 1053 6 1060 12 q 1033 0 1046 0 l 780 0 q 745 26 753 0 l 709 142 l 368 142 l 332 26 q 296 0 323 0 l 45 0 q 24 6 31 0 q 17 23 17 13 q 19 36 17 29 l 397 1026 q 432 1051 405 1051 l 647 1051 q 683 1026 674 1051 l 1057 36 m 624 397 l 553 627 l 538 682 l 525 627 l 454 397 l 624 397 m 649 -271 q 618 -302 649 -302 l 438 -302 q 407 -271 407 -302 l 407 -116 q 438 -85 407 -85 l 618 -85 q 649 -116 649 -85 l 649 -271 z "},"":{"ha":1078,"x_min":17,"x_max":1060,"o":"m 1057 36 q 1060 22 1060 29 q 1053 6 1060 12 q 1033 0 1046 0 l 780 0 q 745 26 753 0 l 709 142 l 368 142 l 332 26 q 296 0 323 0 l 45 0 q 24 6 31 0 q 17 23 17 13 q 19 36 17 29 l 397 1026 q 432 1051 405 1051 l 647 1051 q 683 1026 674 1051 l 1057 36 m 624 397 l 553 627 l 538 682 l 525 627 l 454 397 l 624 397 m 647 1154 q 616 1123 647 1123 l 437 1123 q 405 1154 405 1123 l 405 1309 q 437 1340 405 1340 l 616 1340 q 647 1309 647 1340 l 647 1154 m 761 1417 q 730 1385 761 1385 l 341 1385 q 309 1417 309 1385 l 309 1521 q 341 1552 309 1552 l 730 1552 q 761 1521 761 1552 l 761 1417 z "},"":{"ha":1078,"x_min":17,"x_max":1060,"o":"m 1057 36 q 1060 22 1060 29 q 1053 6 1060 12 q 1033 0 1046 0 l 780 0 q 745 26 753 0 l 709 142 l 368 142 l 332 26 q 296 0 323 0 l 45 0 q 24 6 31 0 q 17 23 17 13 q 19 36 17 29 l 397 1026 q 432 1051 405 1051 l 647 1051 q 683 1026 674 1051 l 1057 36 m 624 397 l 553 627 l 538 682 l 525 627 l 454 397 l 624 397 m 634 1156 q 641 1136 641 1146 q 634 1123 641 1128 q 615 1118 627 1118 l 460 1118 q 422 1134 436 1118 l 281 1279 q 270 1300 270 1290 q 277 1312 270 1307 q 297 1317 284 1317 l 497 1317 q 535 1298 521 1317 l 634 1156 z "},"":{"ha":1078,"x_min":17,"x_max":1060,"o":"m 1057 36 q 1060 22 1060 29 q 1053 6 1060 12 q 1033 0 1046 0 l 780 0 q 745 26 753 0 l 709 142 l 368 142 l 332 26 q 296 0 323 0 l 45 0 q 24 6 31 0 q 17 23 17 13 q 19 36 17 29 l 397 1026 q 432 1051 405 1051 l 647 1051 q 683 1026 674 1051 l 1057 36 m 624 397 l 553 627 l 538 682 l 525 627 l 454 397 l 624 397 m 587 1146 q 573 1133 579 1136 q 553 1129 566 1129 q 520 1128 540 1128 q 480 1150 480 1128 q 484 1165 480 1155 q 493 1202 493 1184 q 470 1228 493 1228 q 450 1225 461 1228 q 436 1222 443 1222 q 408 1257 416 1222 q 405 1278 405 1269 q 409 1293 405 1287 q 423 1305 413 1299 q 522 1330 474 1330 q 609 1311 575 1330 q 642 1258 642 1292 q 629 1209 642 1233 q 587 1146 616 1184 z "},"":{"ha":1078,"x_min":17,"x_max":1060,"o":"m 1057 36 q 1060 22 1060 29 q 1053 6 1060 12 q 1033 0 1046 0 l 780 0 q 745 26 753 0 l 709 142 l 368 142 l 332 26 q 296 0 323 0 l 45 0 q 24 6 31 0 q 17 23 17 13 q 19 36 17 29 l 397 1026 q 432 1051 405 1051 l 647 1051 q 683 1026 674 1051 l 1057 36 m 624 397 l 553 627 l 538 682 l 525 627 l 454 397 l 624 397 m 523 1337 q 692 1288 633 1337 q 761 1155 751 1238 q 755 1132 763 1140 q 731 1124 747 1124 l 610 1124 q 588 1131 596 1124 q 577 1153 581 1138 q 523 1192 565 1192 q 470 1153 482 1192 q 459 1131 467 1138 q 438 1124 452 1124 l 316 1124 q 292 1130 300 1124 q 285 1147 284 1136 q 352 1285 293 1232 q 523 1337 412 1337 z "},"":{"ha":1078,"x_min":17,"x_max":1060,"o":"m 1057 36 q 1060 22 1060 29 q 1053 6 1060 12 q 1033 0 1046 0 l 780 0 q 745 26 753 0 l 709 142 l 368 142 l 332 26 q 296 0 323 0 l 45 0 q 24 6 31 0 q 17 23 17 13 q 19 36 17 29 l 397 1026 q 432 1051 405 1051 l 647 1051 q 683 1026 674 1051 l 1057 36 m 624 397 l 553 627 l 538 682 l 525 627 l 454 397 l 624 397 m 761 1154 q 730 1123 761 1123 l 341 1123 q 309 1154 309 1123 l 309 1259 q 341 1290 309 1290 l 730 1290 q 761 1259 761 1290 l 761 1154 z "},"":{"ha":1078,"x_min":17,"x_max":1093,"o":"m 1057 36 q 1060 22 1060 29 q 1053 6 1060 12 q 1033 0 1046 0 l 780 0 q 745 26 753 0 l 709 142 l 368 142 l 332 26 q 296 0 323 0 l 45 0 q 24 6 31 0 q 17 23 17 13 q 19 36 17 29 l 397 1026 q 432 1051 405 1051 l 647 1051 q 683 1026 674 1051 l 1057 36 m 624 397 l 553 627 l 538 682 l 525 627 l 454 397 l 624 397 m 860 -18 q 877 -4 868 -8 q 899 0 886 0 l 992 0 l 1033 0 q 997 -62 1006 -42 q 988 -100 988 -83 q 1001 -140 988 -124 q 1033 -155 1014 -155 q 1047 -155 1042 -155 q 1055 -154 1050 -154 q 1083 -181 1080 -154 l 1090 -237 q 1069 -276 1093 -266 q 1016 -288 1045 -284 q 944 -292 986 -292 q 833 -259 867 -292 q 799 -178 799 -227 q 816 -93 799 -131 q 860 -18 833 -55 z "},"":{"ha":1078,"x_min":17,"x_max":1060,"o":"m 1057 36 q 1060 22 1060 29 q 1053 6 1060 12 q 1033 0 1046 0 l 780 0 q 745 26 753 0 l 709 142 l 368 142 l 332 26 q 296 0 323 0 l 45 0 q 24 6 31 0 q 17 23 17 13 q 19 36 17 29 l 397 1026 q 432 1051 405 1051 l 647 1051 q 683 1026 674 1051 l 1057 36 m 624 397 l 553 627 l 538 682 l 525 627 l 454 397 l 624 397 m 526 1124 q 422 1159 461 1124 q 382 1253 382 1193 q 422 1350 382 1314 q 526 1385 461 1385 q 630 1350 590 1385 q 671 1253 671 1314 q 630 1159 671 1193 q 526 1124 590 1124 m 526 1211 q 559 1223 546 1211 q 572 1254 572 1234 q 559 1286 572 1274 q 526 1299 546 1299 q 493 1286 506 1299 q 480 1254 480 1274 q 493 1223 480 1234 q 526 1211 506 1211 z "},"":{"ha":1078,"x_min":17,"x_max":1060,"o":"m 1057 36 q 1060 22 1060 29 q 1053 6 1060 12 q 1033 0 1046 0 l 780 0 q 745 26 753 0 l 709 142 l 368 142 l 332 26 q 296 0 323 0 l 45 0 q 24 6 31 0 q 17 23 17 13 q 19 36 17 29 l 397 1026 q 432 1051 405 1051 l 647 1051 q 683 1026 674 1051 l 1057 36 m 624 397 l 553 627 l 538 682 l 525 627 l 454 397 l 624 397 m 517 1124 q 413 1159 453 1124 q 373 1253 373 1193 q 413 1350 373 1314 q 517 1385 453 1385 q 621 1350 581 1385 q 662 1253 662 1314 q 621 1159 662 1193 q 517 1124 581 1124 m 517 1211 q 550 1223 537 1211 q 563 1254 563 1234 q 550 1286 563 1274 q 517 1299 537 1299 q 484 1286 497 1299 q 471 1254 471 1274 q 484 1223 471 1234 q 517 1211 497 1211 m 719 1622 q 739 1617 732 1622 q 746 1604 746 1612 q 736 1584 746 1594 l 594 1439 q 577 1426 586 1430 q 556 1422 568 1422 l 401 1422 q 381 1428 388 1422 q 374 1442 374 1433 q 382 1461 374 1451 l 481 1602 q 520 1622 496 1622 l 719 1622 z "},"":{"ha":1078,"x_min":17,"x_max":1060,"o":"m 1057 36 q 1060 22 1060 29 q 1053 6 1060 12 q 1033 0 1046 0 l 780 0 q 745 26 753 0 l 709 142 l 368 142 l 332 26 q 296 0 323 0 l 45 0 q 24 6 31 0 q 17 23 17 13 q 19 36 17 29 l 397 1026 q 432 1051 405 1051 l 647 1051 q 683 1026 674 1051 l 1057 36 m 624 397 l 553 627 l 538 682 l 525 627 l 454 397 l 624 397 m 534 -328 q 420 -289 464 -328 q 376 -185 376 -251 q 420 -79 376 -118 q 534 -40 464 -40 q 649 -79 605 -40 q 692 -185 692 -118 q 648 -289 692 -251 q 534 -328 604 -328 m 534 -232 q 570 -219 556 -232 q 585 -184 585 -206 q 570 -149 585 -162 q 534 -135 556 -135 q 498 -149 512 -135 q 484 -184 484 -162 q 498 -219 484 -206 q 534 -232 512 -232 z "},"":{"ha":1078,"x_min":17,"x_max":1060,"o":"m 1057 36 q 1060 22 1060 29 q 1053 6 1060 12 q 1033 0 1046 0 l 780 0 q 745 26 753 0 l 709 142 l 368 142 l 332 26 q 296 0 323 0 l 45 0 q 24 6 31 0 q 17 23 17 13 q 19 36 17 29 l 397 1026 q 432 1051 405 1051 l 647 1051 q 683 1026 674 1051 l 1057 36 m 624 397 l 553 627 l 538 682 l 525 627 l 454 397 l 624 397 m 387 1142 q 361 1128 373 1128 q 343 1134 353 1128 l 286 1166 q 269 1192 269 1176 q 273 1209 269 1200 q 345 1305 307 1278 q 425 1332 382 1332 q 486 1325 458 1332 q 548 1305 514 1318 q 583 1292 570 1296 q 609 1288 597 1288 q 641 1305 624 1288 q 667 1319 655 1319 q 685 1313 674 1319 l 741 1281 q 758 1254 758 1270 q 753 1237 758 1246 q 682 1141 720 1168 q 603 1113 644 1113 q 543 1121 570 1113 q 479 1142 516 1128 q 444 1154 458 1150 q 419 1158 431 1158 q 387 1142 405 1158 z "},"":{"ha":1620,"x_min":17,"x_max":1583,"o":"m 1552 277 q 1583 246 1583 277 l 1583 31 q 1552 0 1583 0 l 833 0 q 809 8 818 0 q 801 31 801 16 l 801 131 l 438 131 l 370 19 q 332 -1 357 -1 l 45 -1 q 24 4 31 -1 q 17 19 17 10 q 24 37 17 28 l 711 1030 q 750 1049 724 1049 l 1540 1049 q 1572 1018 1572 1049 l 1572 803 q 1540 772 1572 772 l 1110 772 l 1110 656 l 1434 656 q 1458 648 1449 656 q 1466 625 1466 640 l 1466 429 q 1434 397 1466 397 l 1110 397 l 1110 277 l 1552 277 m 801 415 l 801 697 l 627 415 l 801 415 m 1361 1317 q 1381 1312 1374 1317 q 1388 1299 1388 1307 q 1378 1279 1388 1290 l 1237 1134 q 1219 1122 1228 1125 q 1198 1118 1210 1118 l 1043 1118 q 1023 1123 1030 1118 q 1016 1137 1016 1128 q 1024 1156 1016 1146 l 1123 1298 q 1162 1317 1138 1317 l 1361 1317 z "},"":{"ha":1620,"x_min":17,"x_max":1583,"o":"m 1552 277 q 1583 246 1583 277 l 1583 31 q 1552 0 1583 0 l 833 0 q 809 8 818 0 q 801 31 801 16 l 801 131 l 438 131 l 370 19 q 332 -1 357 -1 l 45 -1 q 24 4 31 -1 q 17 19 17 10 q 24 37 17 28 l 711 1030 q 750 1049 724 1049 l 1540 1049 q 1572 1018 1572 1049 l 1572 803 q 1540 772 1572 772 l 1110 772 l 1110 656 l 1434 656 q 1458 648 1449 656 q 1466 625 1466 640 l 1466 429 q 1434 397 1466 397 l 1110 397 l 1110 277 l 1552 277 m 801 415 l 801 697 l 627 415 l 801 415 m 1387 1154 q 1355 1123 1387 1123 l 966 1123 q 935 1154 935 1123 l 935 1259 q 966 1290 935 1290 l 1355 1290 q 1387 1259 1387 1290 l 1387 1154 z "},"":{"ha":976,"x_min":75,"x_max":929,"o":"m 106 0 q 75 31 75 0 l 75 1018 q 106 1049 75 1049 l 514 1049 q 708 1013 624 1049 q 837 911 792 977 q 883 757 883 845 q 868 676 883 716 q 828 606 853 636 q 773 564 803 576 q 854 508 818 546 q 909 419 889 470 q 929 313 929 367 q 884 149 929 220 q 755 39 839 78 q 558 0 671 0 l 106 0 m 486 654 q 549 674 526 654 q 572 724 572 693 q 551 768 572 752 q 494 783 529 783 l 384 783 l 384 654 l 486 654 m 529 256 q 594 281 570 256 q 618 347 618 305 q 606 388 618 369 q 572 420 594 408 q 521 432 550 432 l 384 432 l 384 256 l 529 256 m 516 1154 q 485 1123 516 1123 l 305 1123 q 274 1154 274 1123 l 274 1309 q 305 1340 274 1340 l 485 1340 q 516 1309 516 1340 l 516 1154 z "},"":{"ha":976,"x_min":75,"x_max":929,"o":"m 106 0 q 75 31 75 0 l 75 1018 q 106 1049 75 1049 l 514 1049 q 708 1013 624 1049 q 837 911 792 977 q 883 757 883 845 q 868 676 883 716 q 828 606 853 636 q 773 564 803 576 q 854 508 818 546 q 909 419 889 470 q 929 313 929 367 q 884 149 929 220 q 755 39 839 78 q 558 0 671 0 l 106 0 m 486 654 q 549 674 526 654 q 572 724 572 693 q 551 768 572 752 q 494 783 529 783 l 384 783 l 384 654 l 486 654 m 529 256 q 594 281 570 256 q 618 347 618 305 q 606 388 618 369 q 572 420 594 408 q 521 432 550 432 l 384 432 l 384 256 l 529 256 m 559 -271 q 528 -302 559 -302 l 349 -302 q 317 -271 317 -302 l 317 -116 q 349 -85 317 -85 l 528 -85 q 559 -116 559 -85 l 559 -271 z "},"":{"ha":976,"x_min":75,"x_max":929,"o":"m 106 0 q 75 31 75 0 l 75 1018 q 106 1049 75 1049 l 514 1049 q 708 1013 624 1049 q 837 911 792 977 q 883 757 883 845 q 868 676 883 716 q 828 606 853 636 q 773 564 803 576 q 854 508 818 546 q 909 419 889 470 q 929 313 929 367 q 884 149 929 220 q 755 39 839 78 q 558 0 671 0 l 106 0 m 486 654 q 549 674 526 654 q 572 724 572 693 q 551 768 572 752 q 494 783 529 783 l 384 783 l 384 654 l 486 654 m 529 256 q 594 281 570 256 q 618 347 618 305 q 606 388 618 369 q 572 420 594 408 q 521 432 550 432 l 384 432 l 384 256 l 529 256 m 676 -223 q 644 -253 676 -253 l 255 -253 q 224 -223 224 -253 l 224 -117 q 255 -86 224 -86 l 644 -86 q 676 -117 676 -86 l 676 -223 z "},"":{"ha":958,"x_min":37,"x_max":928,"o":"m 585 -19 q 307 54 432 -19 q 109 253 181 128 q 37 527 37 378 q 109 801 37 677 q 307 998 181 925 q 585 1070 432 1070 q 761 1042 677 1070 q 914 964 845 1015 q 927 940 927 953 q 920 920 927 930 l 777 733 q 753 720 768 720 q 733 727 744 720 q 661 761 700 748 q 585 774 623 774 q 469 741 523 774 q 383 652 415 709 q 350 526 350 595 q 383 399 350 457 q 470 309 416 342 q 585 276 523 276 q 662 286 630 276 q 735 325 694 296 q 756 332 745 332 q 780 319 770 332 l 919 131 q 928 109 928 119 q 916 89 928 98 q 762 9 847 37 q 585 -19 677 -19 m 800 1332 q 820 1327 813 1332 q 827 1314 827 1322 q 817 1294 827 1305 l 676 1149 q 659 1136 668 1140 q 638 1133 650 1133 l 482 1133 q 463 1138 470 1133 q 455 1152 455 1143 q 463 1171 455 1161 l 562 1313 q 601 1332 577 1332 l 800 1332 z "},"":{"ha":958,"x_min":37,"x_max":928,"o":"m 585 -19 q 307 54 432 -19 q 109 253 181 128 q 37 527 37 378 q 109 801 37 677 q 307 998 181 925 q 585 1070 432 1070 q 761 1042 677 1070 q 914 964 845 1015 q 927 940 927 953 q 920 920 927 930 l 777 733 q 753 720 768 720 q 733 727 744 720 q 661 761 700 748 q 585 774 623 774 q 469 741 523 774 q 383 652 415 709 q 350 526 350 595 q 383 399 350 457 q 470 309 416 342 q 585 276 523 276 q 662 286 630 276 q 735 325 694 296 q 756 332 745 332 q 780 319 770 332 l 919 131 q 928 109 928 119 q 916 89 928 98 q 762 9 847 37 q 585 -19 677 -19 m 374 1275 q 361 1299 361 1287 q 369 1319 361 1309 l 426 1393 q 450 1405 437 1405 q 470 1398 460 1405 l 591 1307 l 712 1398 q 732 1405 722 1405 q 756 1391 746 1405 l 812 1319 q 820 1299 820 1310 q 807 1275 820 1287 l 632 1139 q 591 1125 615 1125 q 550 1139 568 1125 l 374 1275 z "},"":{"ha":958,"x_min":37,"x_max":928,"o":"m 919 131 q 928 109 928 119 q 916 89 928 98 q 790 18 859 46 q 644 -16 721 -9 q 689 -107 670 -59 q 708 -190 708 -155 q 691 -258 708 -229 q 625 -307 674 -287 q 489 -333 577 -327 q 453 -304 456 -334 l 446 -237 q 475 -202 443 -209 q 517 -183 508 -195 q 527 -151 527 -172 q 507 -87 527 -131 q 463 -7 488 -42 q 243 97 340 20 q 92 286 146 174 q 37 527 37 399 q 109 801 37 677 q 307 998 181 925 q 585 1070 432 1070 q 761 1042 677 1070 q 914 964 845 1015 q 927 940 927 953 q 920 920 927 930 l 777 733 q 753 720 768 720 q 733 727 744 720 q 661 761 700 748 q 585 774 623 774 q 469 741 523 774 q 383 652 415 709 q 350 526 350 595 q 383 399 350 457 q 470 309 416 342 q 585 276 523 276 q 662 286 630 276 q 735 325 694 296 q 756 332 745 332 q 780 319 770 332 l 919 131 z "},"":{"ha":958,"x_min":37,"x_max":928,"o":"m 482 1133 q 463 1138 470 1133 q 455 1152 455 1143 q 463 1171 455 1161 l 562 1313 q 601 1332 577 1332 l 800 1332 q 820 1327 813 1332 q 827 1314 827 1322 q 817 1294 827 1305 l 676 1149 q 659 1136 668 1140 q 638 1133 650 1133 l 482 1133 m 919 131 q 928 109 928 119 q 916 89 928 98 q 790 18 859 46 q 644 -16 721 -9 q 689 -107 670 -59 q 708 -190 708 -155 q 691 -258 708 -229 q 625 -307 674 -287 q 489 -333 577 -327 q 453 -304 456 -334 l 446 -237 q 475 -202 443 -209 q 517 -183 508 -195 q 527 -151 527 -172 q 507 -87 527 -131 q 463 -7 488 -42 q 243 97 340 20 q 92 286 146 174 q 37 527 37 399 q 109 801 37 677 q 307 998 181 925 q 585 1070 432 1070 q 761 1042 677 1070 q 914 964 845 1015 q 927 940 927 953 q 920 920 927 930 l 777 733 q 753 720 768 720 q 733 727 744 720 q 661 761 700 748 q 585 774 623 774 q 469 741 523 774 q 383 652 415 709 q 350 526 350 595 q 383 399 350 457 q 470 309 416 342 q 585 276 523 276 q 662 286 630 276 q 735 325 694 296 q 756 332 745 332 q 780 319 770 332 l 919 131 z "},"":{"ha":958,"x_min":37,"x_max":928,"o":"m 585 -19 q 307 54 432 -19 q 109 253 181 128 q 37 527 37 378 q 109 801 37 677 q 307 998 181 925 q 585 1070 432 1070 q 761 1042 677 1070 q 914 964 845 1015 q 927 940 927 953 q 920 920 927 930 l 777 733 q 753 720 768 720 q 733 727 744 720 q 661 761 700 748 q 585 774 623 774 q 469 741 523 774 q 383 652 415 709 q 350 526 350 595 q 383 399 350 457 q 470 309 416 342 q 585 276 523 276 q 662 286 630 276 q 735 325 694 296 q 756 332 745 332 q 780 319 770 332 l 919 131 q 928 109 928 119 q 916 89 928 98 q 762 9 847 37 q 585 -19 677 -19 m 467 1134 q 447 1126 458 1126 q 423 1139 435 1126 l 367 1212 q 358 1232 358 1222 q 372 1256 358 1245 l 548 1393 q 589 1407 565 1407 q 630 1393 613 1407 l 805 1256 q 818 1232 818 1245 q 810 1212 818 1222 l 754 1139 q 731 1126 744 1126 q 710 1134 720 1126 l 588 1223 l 467 1134 z "},"":{"ha":958,"x_min":37,"x_max":928,"o":"m 585 -19 q 307 54 432 -19 q 109 253 181 128 q 37 527 37 378 q 109 801 37 677 q 307 998 181 925 q 585 1070 432 1070 q 761 1042 677 1070 q 914 964 845 1015 q 927 940 927 953 q 920 920 927 930 l 777 733 q 753 720 768 720 q 733 727 744 720 q 661 761 700 748 q 585 774 623 774 q 469 741 523 774 q 383 652 415 709 q 350 526 350 595 q 383 399 350 457 q 470 309 416 342 q 585 276 523 276 q 662 286 630 276 q 735 325 694 296 q 756 332 745 332 q 780 319 770 332 l 919 131 q 928 109 928 119 q 916 89 928 98 q 762 9 847 37 q 585 -19 677 -19 m 712 1169 q 681 1138 712 1138 l 502 1138 q 470 1169 470 1138 l 470 1324 q 502 1355 470 1355 l 681 1355 q 712 1324 712 1355 l 712 1169 z "},"":{"ha":1968,"x_min":75,"x_max":1930,"o":"m 106 0 q 75 31 75 0 l 75 1018 q 106 1049 75 1049 l 479 1049 q 760 981 632 1049 q 961 793 887 912 q 1035 526 1035 673 q 961 258 1035 378 q 761 69 888 137 q 482 0 634 0 l 106 0 m 492 296 q 612 324 559 296 q 693 405 664 352 q 722 526 722 457 q 693 645 722 593 q 612 725 664 697 q 492 753 559 753 l 383 753 l 383 296 l 492 296 m 1930 31 q 1922 8 1930 16 q 1899 0 1914 0 l 1106 0 q 1075 31 1075 0 l 1075 202 q 1088 242 1075 224 l 1488 771 l 1114 771 q 1091 779 1099 771 q 1083 802 1083 787 l 1083 1018 q 1091 1041 1083 1033 q 1114 1049 1099 1049 l 1868 1049 q 1899 1018 1899 1049 l 1899 862 q 1886 822 1899 839 l 1476 279 l 1899 279 q 1922 270 1914 279 q 1930 247 1930 262 l 1930 31 z "},"":{"ha":1968,"x_min":75,"x_max":1930,"o":"m 106 0 q 75 31 75 0 l 75 1018 q 106 1049 75 1049 l 479 1049 q 760 981 632 1049 q 961 793 887 912 q 1035 526 1035 673 q 961 258 1035 378 q 761 69 888 137 q 482 0 634 0 l 106 0 m 492 296 q 612 324 559 296 q 693 405 664 352 q 722 526 722 457 q 693 645 722 593 q 612 725 664 697 q 492 753 559 753 l 383 753 l 383 296 l 492 296 z "},"":{"ha":1092,"x_min":-30,"x_max":1054,"o":"m 94 1018 q 125 1049 94 1049 l 499 1049 q 779 981 652 1049 q 980 793 907 912 q 1054 526 1054 673 q 981 258 1054 378 q 780 69 907 137 q 501 0 653 0 l 125 0 q 94 31 94 0 l 94 411 l 1 411 q -22 419 -13 411 q -30 442 -30 427 l -30 618 q -22 641 -30 632 q 1 649 -13 649 l 94 649 l 94 1018 m 511 296 q 631 324 579 296 q 712 405 683 352 q 741 526 741 457 q 712 645 741 593 q 631 725 683 697 q 511 753 579 753 l 402 753 l 402 649 l 565 649 q 596 618 596 649 l 596 442 q 565 411 596 411 l 402 411 l 402 296 l 511 296 z "},"":{"ha":1092,"x_min":-30,"x_max":1054,"o":"m 94 1018 q 125 1049 94 1049 l 499 1049 q 779 981 652 1049 q 980 793 907 912 q 1054 526 1054 673 q 981 258 1054 378 q 780 69 907 137 q 501 0 653 0 l 125 0 q 94 31 94 0 l 94 411 l 1 411 q -22 419 -13 411 q -30 442 -30 427 l -30 618 q -22 641 -30 632 q 1 649 -13 649 l 94 649 l 94 1018 m 511 296 q 631 324 579 296 q 712 405 683 352 q 741 526 741 457 q 712 645 741 593 q 631 725 683 697 q 511 753 579 753 l 402 753 l 402 649 l 565 649 q 596 618 596 649 l 596 442 q 565 411 596 411 l 402 411 l 402 296 l 511 296 z "},"":{"ha":1072,"x_min":75,"x_max":1035,"o":"m 106 0 q 75 31 75 0 l 75 1018 q 106 1049 75 1049 l 479 1049 q 760 981 632 1049 q 961 793 887 912 q 1035 526 1035 673 q 961 258 1035 378 q 761 69 888 137 q 482 0 634 0 l 106 0 m 492 296 q 612 324 559 296 q 693 405 664 352 q 722 526 722 457 q 693 645 722 593 q 612 725 664 697 q 492 753 559 753 l 383 753 l 383 296 l 492 296 m 190 1260 q 177 1284 177 1272 q 185 1305 177 1294 l 242 1378 q 266 1390 253 1390 q 286 1383 276 1390 l 407 1293 l 529 1383 q 548 1390 538 1390 q 573 1376 562 1390 l 629 1305 q 636 1284 636 1295 q 624 1260 636 1272 l 449 1124 q 408 1110 432 1110 q 367 1124 384 1110 l 190 1260 z "},"":{"ha":1072,"x_min":75,"x_max":1035,"o":"m 106 0 q 75 31 75 0 l 75 1018 q 106 1049 75 1049 l 479 1049 q 760 981 632 1049 q 961 793 887 912 q 1035 526 1035 673 q 961 258 1035 378 q 761 69 888 137 q 482 0 634 0 l 106 0 m 492 296 q 612 324 559 296 q 693 405 664 352 q 722 526 722 457 q 693 645 722 593 q 612 725 664 697 q 492 753 559 753 l 383 753 l 383 296 l 492 296 m 423 -494 q 393 -507 408 -507 q 358 -491 376 -507 q 343 -460 343 -477 q 358 -426 343 -444 q 401 -370 388 -394 q 414 -326 414 -346 l 414 -320 l 353 -320 q 320 -309 332 -320 q 308 -276 308 -297 l 308 -158 q 353 -114 308 -114 l 489 -114 q 534 -158 534 -114 l 534 -279 q 503 -394 534 -340 q 423 -494 472 -448 z "},"":{"ha":1072,"x_min":75,"x_max":1035,"o":"m 106 0 q 75 31 75 0 l 75 1018 q 106 1049 75 1049 l 479 1049 q 760 981 632 1049 q 961 793 887 912 q 1035 526 1035 673 q 961 258 1035 378 q 761 69 888 137 q 482 0 634 0 l 106 0 m 492 296 q 612 324 559 296 q 693 405 664 352 q 722 526 722 457 q 693 645 722 593 q 612 725 664 697 q 492 753 559 753 l 383 753 l 383 296 l 492 296 m 274 -298 q 257 -302 265 -302 q 231 -284 240 -302 l 190 -212 q 185 -193 185 -202 q 202 -169 185 -178 l 367 -77 q 386 -69 376 -71 q 408 -67 396 -67 q 447 -78 429 -67 l 610 -169 q 626 -193 626 -178 q 621 -212 626 -202 l 581 -284 q 555 -302 572 -302 q 539 -298 547 -302 l 406 -233 l 274 -298 z "},"":{"ha":1092,"x_min":-30,"x_max":1054,"o":"m 94 1018 q 125 1049 94 1049 l 499 1049 q 779 981 652 1049 q 980 793 907 912 q 1054 526 1054 673 q 981 258 1054 378 q 780 69 907 137 q 501 0 653 0 l 125 0 q 94 31 94 0 l 94 411 l 1 411 q -22 419 -13 411 q -30 442 -30 427 l -30 618 q -22 641 -30 632 q 1 649 -13 649 l 94 649 l 94 1018 m 511 296 q 631 324 579 296 q 712 405 683 352 q 741 526 741 457 q 712 645 741 593 q 631 725 683 697 q 511 753 579 753 l 402 753 l 402 649 l 565 649 q 596 618 596 649 l 596 442 q 565 411 596 411 l 402 411 l 402 296 l 511 296 z "},"":{"ha":1072,"x_min":75,"x_max":1035,"o":"m 106 0 q 75 31 75 0 l 75 1018 q 106 1049 75 1049 l 479 1049 q 760 981 632 1049 q 961 793 887 912 q 1035 526 1035 673 q 961 258 1035 378 q 761 69 888 137 q 482 0 634 0 l 106 0 m 492 296 q 612 324 559 296 q 693 405 664 352 q 722 526 722 457 q 693 645 722 593 q 612 725 664 697 q 492 753 559 753 l 383 753 l 383 296 l 492 296 m 529 1154 q 497 1123 529 1123 l 318 1123 q 287 1154 287 1123 l 287 1309 q 318 1340 287 1340 l 497 1340 q 529 1309 529 1340 l 529 1154 z "},"":{"ha":1072,"x_min":75,"x_max":1035,"o":"m 106 0 q 75 31 75 0 l 75 1018 q 106 1049 75 1049 l 479 1049 q 760 981 632 1049 q 961 793 887 912 q 1035 526 1035 673 q 961 258 1035 378 q 761 69 888 137 q 482 0 634 0 l 106 0 m 492 296 q 612 324 559 296 q 693 405 664 352 q 722 526 722 457 q 693 645 722 593 q 612 725 664 697 q 492 753 559 753 l 383 753 l 383 296 l 492 296 m 534 -271 q 503 -302 534 -302 l 323 -302 q 292 -271 292 -302 l 292 -116 q 323 -85 292 -85 l 503 -85 q 534 -116 534 -85 l 534 -271 z "},"":{"ha":1072,"x_min":75,"x_max":1035,"o":"m 106 0 q 75 31 75 0 l 75 1018 q 106 1049 75 1049 l 479 1049 q 760 981 632 1049 q 961 793 887 912 q 1035 526 1035 673 q 961 258 1035 378 q 761 69 888 137 q 482 0 634 0 l 106 0 m 492 296 q 612 324 559 296 q 693 405 664 352 q 722 526 722 457 q 693 645 722 593 q 612 725 664 697 q 492 753 559 753 l 383 753 l 383 296 l 492 296 m 650 -223 q 619 -253 650 -253 l 230 -253 q 199 -223 199 -253 l 199 -117 q 230 -86 199 -86 l 619 -86 q 650 -117 650 -86 l 650 -223 z "},"":{"ha":1944,"x_min":75,"x_max":1894,"o":"m 106 0 q 75 31 75 0 l 75 1018 q 106 1049 75 1049 l 479 1049 q 760 981 632 1049 q 961 793 887 912 q 1035 526 1035 673 q 961 258 1035 378 q 761 69 888 137 q 482 0 634 0 l 106 0 m 492 296 q 612 324 559 296 q 693 405 664 352 q 722 526 722 457 q 693 645 722 593 q 612 725 664 697 q 492 753 559 753 l 383 753 l 383 296 l 492 296 m 1894 31 q 1863 0 1894 0 l 1153 0 q 1130 8 1138 0 q 1122 31 1122 16 l 1122 179 q 1135 219 1122 201 l 1475 642 l 1160 642 q 1136 650 1145 642 q 1128 674 1128 659 l 1128 876 q 1160 907 1128 907 l 1842 907 q 1874 876 1874 907 l 1874 738 q 1860 699 1874 715 l 1508 264 l 1863 264 q 1894 233 1894 264 l 1894 31 z "},"":{"ha":1944,"x_min":75,"x_max":1894,"o":"m 106 0 q 75 31 75 0 l 75 1018 q 106 1049 75 1049 l 479 1049 q 760 981 632 1049 q 961 793 887 912 q 1035 526 1035 673 q 961 258 1035 378 q 761 69 888 137 q 482 0 634 0 l 106 0 m 492 296 q 612 324 559 296 q 693 405 664 352 q 722 526 722 457 q 693 645 722 593 q 612 725 664 697 q 492 753 559 753 l 383 753 l 383 296 l 492 296 z "},"":{"ha":894,"x_min":75,"x_max":856,"o":"m 856 31 q 848 8 856 16 q 825 0 840 0 l 106 0 q 75 31 75 0 l 75 1018 q 106 1049 75 1049 l 814 1049 q 837 1041 829 1049 q 845 1018 845 1033 l 845 803 q 814 772 845 772 l 383 772 l 383 656 l 708 656 q 731 648 723 656 q 739 625 739 640 l 739 429 q 708 397 739 397 l 383 397 l 383 277 l 825 277 q 856 246 856 277 l 856 31 m 693 1317 q 713 1312 706 1317 q 720 1299 720 1307 q 709 1279 720 1290 l 568 1134 q 551 1122 560 1125 q 530 1118 542 1118 l 375 1118 q 355 1123 362 1118 q 348 1137 348 1128 q 355 1156 348 1146 l 455 1298 q 494 1317 470 1317 l 693 1317 z "},"":{"ha":894,"x_min":75,"x_max":856,"o":"m 856 31 q 848 8 856 16 q 825 0 840 0 l 106 0 q 75 31 75 0 l 75 1018 q 106 1049 75 1049 l 814 1049 q 837 1041 829 1049 q 845 1018 845 1033 l 845 803 q 814 772 845 772 l 383 772 l 383 656 l 708 656 q 731 648 723 656 q 739 625 739 640 l 739 429 q 708 397 739 397 l 383 397 l 383 277 l 825 277 q 856 246 856 277 l 856 31 m 482 1120 q 313 1170 373 1120 q 244 1302 254 1221 q 250 1325 242 1317 q 274 1334 258 1334 l 396 1334 q 417 1327 410 1334 q 429 1305 425 1319 q 482 1266 441 1266 q 535 1305 523 1266 q 547 1327 539 1319 q 568 1334 554 1334 l 689 1334 q 713 1328 705 1334 q 720 1310 721 1322 q 653 1172 713 1225 q 482 1120 594 1120 z "},"":{"ha":894,"x_min":75,"x_max":856,"o":"m 856 31 q 848 8 856 16 q 825 0 840 0 l 106 0 q 75 31 75 0 l 75 1018 q 106 1049 75 1049 l 814 1049 q 837 1041 829 1049 q 845 1018 845 1033 l 845 803 q 814 772 845 772 l 383 772 l 383 656 l 708 656 q 731 648 723 656 q 739 625 739 640 l 739 429 q 708 397 739 397 l 383 397 l 383 277 l 825 277 q 856 246 856 277 l 856 31 m 267 1260 q 253 1284 253 1272 q 261 1305 253 1294 l 318 1378 q 342 1390 329 1390 q 362 1383 352 1390 l 483 1293 l 605 1383 q 624 1390 615 1390 q 649 1376 638 1390 l 705 1305 q 712 1284 712 1295 q 700 1260 712 1272 l 525 1124 q 484 1110 508 1110 q 443 1124 460 1110 l 267 1260 z "},"":{"ha":894,"x_min":75,"x_max":856,"o":"m 825 277 q 856 246 856 277 l 856 31 q 848 8 856 16 q 825 0 840 0 l 571 0 q 616 -92 597 -43 q 635 -175 635 -140 q 618 -244 635 -215 q 553 -293 601 -273 q 417 -319 505 -313 q 381 -290 385 -320 l 373 -223 q 402 -188 370 -195 q 445 -169 435 -181 q 455 -137 455 -158 q 437 -77 455 -119 q 396 0 419 -35 l 106 0 q 75 31 75 0 l 75 1018 q 106 1049 75 1049 l 814 1049 q 837 1041 829 1049 q 845 1018 845 1033 l 845 803 q 814 772 845 772 l 383 772 l 383 656 l 708 656 q 731 648 723 656 q 739 625 739 640 l 739 429 q 708 397 739 397 l 383 397 l 383 277 l 825 277 z "},"":{"ha":894,"x_min":75,"x_max":856,"o":"m 482 1120 q 313 1170 373 1120 q 244 1302 254 1221 q 250 1325 242 1317 q 274 1334 258 1334 l 396 1334 q 417 1327 410 1334 q 429 1305 425 1319 q 482 1266 441 1266 q 535 1305 523 1266 q 547 1327 539 1319 q 568 1334 554 1334 l 689 1334 q 713 1328 705 1334 q 720 1310 721 1322 q 653 1172 713 1225 q 482 1120 594 1120 m 825 277 q 856 246 856 277 l 856 31 q 848 8 856 16 q 825 0 840 0 l 571 0 q 616 -92 597 -43 q 635 -175 635 -140 q 618 -244 635 -215 q 553 -293 601 -273 q 417 -319 505 -313 q 381 -290 385 -320 l 373 -223 q 402 -188 370 -195 q 445 -169 435 -181 q 455 -137 455 -158 q 437 -77 455 -119 q 396 0 419 -35 l 106 0 q 75 31 75 0 l 75 1018 q 106 1049 75 1049 l 814 1049 q 837 1041 829 1049 q 845 1018 845 1033 l 845 803 q 814 772 845 772 l 383 772 l 383 656 l 708 656 q 731 648 723 656 q 739 625 739 640 l 739 429 q 708 397 739 397 l 383 397 l 383 277 l 825 277 z "},"":{"ha":894,"x_min":75,"x_max":856,"o":"m 856 31 q 848 8 856 16 q 825 0 840 0 l 106 0 q 75 31 75 0 l 75 1018 q 106 1049 75 1049 l 814 1049 q 837 1041 829 1049 q 845 1018 845 1033 l 845 803 q 814 772 845 772 l 383 772 l 383 656 l 708 656 q 731 648 723 656 q 739 625 739 640 l 739 429 q 708 397 739 397 l 383 397 l 383 277 l 825 277 q 856 246 856 277 l 856 31 m 360 1119 q 340 1111 350 1111 q 316 1124 327 1111 l 259 1197 q 251 1217 251 1207 q 264 1241 251 1230 l 441 1378 q 482 1392 458 1392 q 523 1378 506 1392 l 697 1241 q 710 1217 710 1230 q 703 1197 710 1207 l 647 1124 q 624 1111 636 1111 q 603 1119 612 1111 l 481 1208 l 360 1119 z "},"":{"ha":923,"x_min":75,"x_max":856,"o":"m 856 31 q 848 8 856 16 q 825 0 840 0 l 106 0 q 75 31 75 0 l 75 1018 q 106 1049 75 1049 l 814 1049 q 837 1041 829 1049 q 845 1018 845 1033 l 845 803 q 814 772 845 772 l 383 772 l 383 656 l 708 656 q 731 648 723 656 q 739 625 739 640 l 739 429 q 708 397 739 397 l 383 397 l 383 277 l 825 277 q 856 246 856 277 l 856 31 z "},"":{"ha":894,"x_min":75,"x_max":856,"o":"m 856 31 q 848 8 856 16 q 825 0 840 0 l 106 0 q 75 31 75 0 l 75 1018 q 106 1049 75 1049 l 814 1049 q 837 1041 829 1049 q 845 1018 845 1033 l 845 803 q 814 772 845 772 l 383 772 l 383 656 l 708 656 q 731 648 723 656 q 739 625 739 640 l 739 429 q 708 397 739 397 l 383 397 l 383 277 l 825 277 q 856 246 856 277 l 856 31 m 344 -298 q 327 -302 335 -302 q 301 -284 311 -302 l 261 -212 q 255 -193 255 -202 q 272 -169 255 -178 l 437 -77 q 456 -69 447 -71 q 479 -67 466 -67 q 517 -78 500 -67 l 680 -169 q 697 -193 697 -178 q 691 -212 697 -202 l 651 -284 q 625 -302 642 -302 q 609 -298 617 -302 l 476 -233 l 344 -298 z "},"":{"ha":894,"x_min":75,"x_max":856,"o":"m 856 31 q 848 8 856 16 q 825 0 840 0 l 106 0 q 75 31 75 0 l 75 1018 q 106 1049 75 1049 l 814 1049 q 837 1041 829 1049 q 845 1018 845 1033 l 845 803 q 814 772 845 772 l 383 772 l 383 656 l 708 656 q 731 648 723 656 q 739 625 739 640 l 739 429 q 708 397 739 397 l 383 397 l 383 277 l 825 277 q 856 246 856 277 l 856 31 m 604 -271 q 573 -302 604 -302 l 394 -302 q 362 -271 362 -302 l 362 -116 q 394 -85 362 -85 l 573 -85 q 604 -116 604 -85 l 604 -271 m 360 1119 q 340 1111 350 1111 q 316 1124 327 1111 l 259 1197 q 251 1217 251 1207 q 264 1241 251 1230 l 441 1378 q 482 1392 458 1392 q 523 1378 506 1392 l 697 1241 q 710 1217 710 1230 q 703 1197 710 1207 l 647 1124 q 624 1111 636 1111 q 603 1119 612 1111 l 481 1208 l 360 1119 z "},"":{"ha":923,"x_min":75,"x_max":856,"o":"m 856 31 q 848 8 856 16 q 825 0 840 0 l 106 0 q 75 31 75 0 l 75 1018 q 106 1049 75 1049 l 814 1049 q 837 1041 829 1049 q 845 1018 845 1033 l 845 803 q 814 772 845 772 l 383 772 l 383 656 l 708 656 q 731 648 723 656 q 739 625 739 640 l 739 429 q 708 397 739 397 l 383 397 l 383 277 l 825 277 q 856 246 856 277 l 856 31 m 771 1276 q 788 1251 788 1267 q 783 1233 788 1243 l 742 1160 q 716 1142 733 1142 q 699 1147 708 1142 l 567 1212 l 434 1147 q 418 1142 426 1142 q 392 1160 401 1142 l 352 1234 q 346 1252 346 1244 q 363 1276 346 1267 l 448 1323 l 349 1322 q 311 1342 324 1322 l 249 1422 q 241 1442 241 1434 q 248 1455 241 1450 q 269 1461 255 1461 l 368 1461 q 391 1456 382 1461 q 405 1437 399 1450 l 451 1328 l 452 1325 l 526 1366 q 565 1378 544 1378 q 606 1368 588 1378 l 771 1276 z "},"":{"ha":894,"x_min":75,"x_max":856,"o":"m 856 31 q 848 8 856 16 q 825 0 840 0 l 106 0 q 75 31 75 0 l 75 1018 q 106 1049 75 1049 l 814 1049 q 837 1041 829 1049 q 845 1018 845 1033 l 845 803 q 814 772 845 772 l 383 772 l 383 656 l 708 656 q 731 648 723 656 q 739 625 739 640 l 739 429 q 708 397 739 397 l 383 397 l 383 277 l 825 277 q 856 246 856 277 l 856 31 m 717 1297 q 678 1278 701 1278 q 647 1282 657 1278 q 637 1295 637 1286 q 639 1305 637 1299 q 644 1331 644 1320 q 629 1350 644 1350 q 623 1349 625 1350 q 609 1348 612 1348 q 594 1352 600 1348 q 586 1368 588 1357 q 585 1381 585 1372 q 604 1409 585 1400 q 666 1423 635 1423 q 728 1410 704 1423 q 753 1372 753 1396 q 744 1338 753 1355 q 717 1297 736 1322 m 360 1101 q 343 1096 351 1096 q 317 1114 326 1096 l 276 1187 q 271 1205 271 1197 q 287 1230 271 1221 l 453 1322 q 472 1330 462 1328 q 494 1331 481 1331 q 532 1321 514 1331 l 696 1230 q 712 1205 712 1221 q 707 1187 712 1197 l 667 1114 q 641 1096 658 1096 q 625 1101 633 1096 l 492 1166 l 360 1101 z "},"":{"ha":894,"x_min":75,"x_max":856,"o":"m 856 31 q 848 8 856 16 q 825 0 840 0 l 106 0 q 75 31 75 0 l 75 1018 q 106 1049 75 1049 l 814 1049 q 837 1041 829 1049 q 845 1018 845 1033 l 845 803 q 814 772 845 772 l 383 772 l 383 656 l 708 656 q 731 648 723 656 q 739 625 739 640 l 739 429 q 708 397 739 397 l 383 397 l 383 277 l 825 277 q 856 246 856 277 l 856 31 m 408 1384 q 388 1375 399 1375 q 369 1381 380 1375 q 343 1400 351 1393 q 336 1416 336 1408 q 342 1433 336 1422 q 381 1481 361 1468 q 426 1495 402 1495 q 464 1490 447 1495 q 500 1478 481 1486 q 516 1473 505 1477 q 535 1470 528 1470 q 547 1472 540 1470 q 573 1484 563 1484 q 587 1480 579 1484 q 605 1470 595 1476 q 623 1443 623 1459 q 618 1426 623 1434 q 532 1364 583 1364 q 497 1368 513 1364 q 458 1380 480 1372 q 422 1390 432 1390 q 408 1384 416 1390 m 352 1099 q 335 1095 343 1095 q 308 1113 318 1095 l 268 1185 q 263 1204 263 1195 q 279 1228 263 1219 l 444 1319 q 463 1327 454 1325 q 485 1329 473 1329 q 524 1319 506 1329 l 688 1228 q 704 1204 704 1219 q 699 1185 704 1195 l 659 1113 q 632 1095 650 1095 q 617 1099 625 1095 l 484 1164 l 352 1099 z "},"":{"ha":894,"x_min":75,"x_max":856,"o":"m 856 31 q 848 8 856 16 q 825 0 840 0 l 106 0 q 75 31 75 0 l 75 1018 q 106 1049 75 1049 l 814 1049 q 837 1041 829 1049 q 845 1018 845 1033 l 845 803 q 814 772 845 772 l 383 772 l 383 656 l 708 656 q 731 648 723 656 q 739 625 739 640 l 739 429 q 708 397 739 397 l 383 397 l 383 277 l 825 277 q 856 246 856 277 l 856 31 m 745 1166 q 752 1147 752 1156 q 745 1133 752 1138 q 725 1128 739 1128 l 593 1128 q 554 1144 570 1128 l 434 1268 q 423 1288 423 1278 q 431 1301 423 1296 q 451 1306 438 1306 l 622 1306 q 660 1286 647 1306 l 745 1166 m 438 1166 q 445 1146 445 1156 q 438 1132 445 1137 q 417 1127 431 1127 l 285 1127 q 247 1144 264 1127 l 127 1267 q 116 1288 116 1278 q 124 1301 116 1296 q 143 1305 131 1305 l 314 1305 q 352 1286 338 1305 l 438 1166 z "},"":{"ha":894,"x_min":75,"x_max":856,"o":"m 856 31 q 848 8 856 16 q 825 0 840 0 l 106 0 q 75 31 75 0 l 75 1018 q 106 1049 75 1049 l 814 1049 q 837 1041 829 1049 q 845 1018 845 1033 l 845 803 q 814 772 845 772 l 383 772 l 383 656 l 708 656 q 731 648 723 656 q 739 625 739 640 l 739 429 q 708 397 739 397 l 383 397 l 383 277 l 825 277 q 856 246 856 277 l 856 31 m 411 1153 q 379 1122 411 1122 l 220 1122 q 189 1153 189 1122 l 189 1322 q 220 1354 189 1354 l 379 1354 q 411 1322 411 1354 l 411 1153 m 777 1153 q 769 1130 777 1138 q 746 1122 761 1122 l 586 1122 q 563 1130 571 1122 q 555 1153 555 1138 l 555 1322 q 563 1346 555 1337 q 586 1354 571 1354 l 746 1354 q 769 1346 761 1354 q 777 1322 777 1337 l 777 1153 z "},"":{"ha":894,"x_min":75,"x_max":856,"o":"m 856 31 q 848 8 856 16 q 825 0 840 0 l 106 0 q 75 31 75 0 l 75 1018 q 106 1049 75 1049 l 814 1049 q 837 1041 829 1049 q 845 1018 845 1033 l 845 803 q 814 772 845 772 l 383 772 l 383 656 l 708 656 q 731 648 723 656 q 739 625 739 640 l 739 429 q 708 397 739 397 l 383 397 l 383 277 l 825 277 q 856 246 856 277 l 856 31 m 605 1154 q 573 1123 605 1123 l 394 1123 q 363 1154 363 1123 l 363 1309 q 394 1340 363 1340 l 573 1340 q 605 1309 605 1340 l 605 1154 z "},"":{"ha":894,"x_min":75,"x_max":856,"o":"m 856 31 q 848 8 856 16 q 825 0 840 0 l 106 0 q 75 31 75 0 l 75 1018 q 106 1049 75 1049 l 814 1049 q 837 1041 829 1049 q 845 1018 845 1033 l 845 803 q 814 772 845 772 l 383 772 l 383 656 l 708 656 q 731 648 723 656 q 739 625 739 640 l 739 429 q 708 397 739 397 l 383 397 l 383 277 l 825 277 q 856 246 856 277 l 856 31 m 604 -271 q 573 -302 604 -302 l 394 -302 q 362 -271 362 -302 l 362 -116 q 394 -85 362 -85 l 573 -85 q 604 -116 604 -85 l 604 -271 z "},"":{"ha":894,"x_min":75,"x_max":856,"o":"m 856 31 q 848 8 856 16 q 825 0 840 0 l 106 0 q 75 31 75 0 l 75 1018 q 106 1049 75 1049 l 814 1049 q 837 1041 829 1049 q 845 1018 845 1033 l 845 803 q 814 772 845 772 l 383 772 l 383 656 l 708 656 q 731 648 723 656 q 739 625 739 640 l 739 429 q 708 397 739 397 l 383 397 l 383 277 l 825 277 q 856 246 856 277 l 856 31 m 591 1156 q 599 1136 599 1146 q 592 1123 599 1128 q 572 1118 585 1118 l 417 1118 q 379 1134 394 1118 l 238 1279 q 227 1300 227 1290 q 234 1312 227 1307 q 255 1317 242 1317 l 454 1317 q 492 1298 479 1317 l 591 1156 z "},"":{"ha":894,"x_min":75,"x_max":856,"o":"m 856 31 q 848 8 856 16 q 825 0 840 0 l 106 0 q 75 31 75 0 l 75 1018 q 106 1049 75 1049 l 814 1049 q 837 1041 829 1049 q 845 1018 845 1033 l 845 803 q 814 772 845 772 l 383 772 l 383 656 l 708 656 q 731 648 723 656 q 739 625 739 640 l 739 429 q 708 397 739 397 l 383 397 l 383 277 l 825 277 q 856 246 856 277 l 856 31 m 544 1146 q 530 1133 537 1136 q 510 1129 523 1129 q 478 1128 497 1128 q 438 1150 438 1128 q 441 1165 438 1155 q 450 1202 450 1184 q 428 1228 450 1228 q 407 1225 419 1228 q 394 1222 400 1222 q 365 1257 373 1222 q 362 1278 362 1269 q 366 1293 362 1287 q 381 1305 370 1299 q 479 1330 432 1330 q 566 1311 532 1330 q 600 1258 600 1292 q 587 1209 600 1233 q 544 1146 573 1184 z "},"":{"ha":894,"x_min":75,"x_max":856,"o":"m 856 31 q 848 8 856 16 q 825 0 840 0 l 106 0 q 75 31 75 0 l 75 1018 q 106 1049 75 1049 l 814 1049 q 837 1041 829 1049 q 845 1018 845 1033 l 845 803 q 814 772 845 772 l 383 772 l 383 656 l 708 656 q 731 648 723 656 q 739 625 739 640 l 739 429 q 708 397 739 397 l 383 397 l 383 277 l 825 277 q 856 246 856 277 l 856 31 m 481 1337 q 650 1288 591 1337 q 718 1155 709 1238 q 712 1132 721 1140 q 688 1124 704 1124 l 568 1124 q 546 1131 553 1124 q 535 1153 538 1138 q 481 1192 523 1192 q 428 1153 440 1192 q 417 1131 424 1138 q 395 1124 409 1124 l 273 1124 q 250 1130 258 1124 q 243 1147 242 1136 q 310 1285 250 1232 q 481 1337 370 1337 z "},"":{"ha":894,"x_min":75,"x_max":856,"o":"m 856 31 q 848 8 856 16 q 825 0 840 0 l 106 0 q 75 31 75 0 l 75 1018 q 106 1049 75 1049 l 814 1049 q 837 1041 829 1049 q 845 1018 845 1033 l 845 803 q 814 772 845 772 l 383 772 l 383 656 l 708 656 q 731 648 723 656 q 739 625 739 640 l 739 429 q 708 397 739 397 l 383 397 l 383 277 l 825 277 q 856 246 856 277 l 856 31 m 718 1154 q 687 1123 718 1123 l 298 1123 q 267 1154 267 1123 l 267 1259 q 298 1290 267 1290 l 687 1290 q 718 1259 718 1290 l 718 1154 z "},"":{"ha":894,"x_min":75,"x_max":856,"o":"m 856 31 q 848 8 856 16 q 825 0 840 0 l 106 0 q 75 31 75 0 l 75 1018 q 106 1049 75 1049 l 814 1049 q 837 1041 829 1049 q 845 1018 845 1033 l 845 803 q 814 772 845 772 l 383 772 l 383 656 l 708 656 q 731 648 723 656 q 739 625 739 640 l 739 429 q 708 397 739 397 l 383 397 l 383 277 l 825 277 q 856 246 856 277 l 856 31 m 718 1154 q 687 1123 718 1123 l 298 1123 q 267 1154 267 1123 l 267 1259 q 298 1290 267 1290 l 687 1290 q 718 1259 718 1290 l 718 1154 m 693 1526 q 713 1521 706 1526 q 720 1508 720 1516 q 709 1487 720 1498 l 568 1343 q 551 1330 560 1334 q 530 1326 542 1326 l 375 1326 q 355 1331 362 1326 q 348 1346 348 1337 q 355 1364 348 1355 l 455 1506 q 494 1526 470 1526 l 693 1526 z "},"":{"ha":894,"x_min":75,"x_max":856,"o":"m 856 31 q 848 8 856 16 q 825 0 840 0 l 106 0 q 75 31 75 0 l 75 1018 q 106 1049 75 1049 l 814 1049 q 837 1041 829 1049 q 845 1018 845 1033 l 845 803 q 814 772 845 772 l 383 772 l 383 656 l 708 656 q 731 648 723 656 q 739 625 739 640 l 739 429 q 708 397 739 397 l 383 397 l 383 277 l 825 277 q 856 246 856 277 l 856 31 m 718 1154 q 687 1123 718 1123 l 298 1123 q 267 1154 267 1123 l 267 1259 q 298 1290 267 1290 l 687 1290 q 718 1259 718 1290 l 718 1154 m 591 1364 q 599 1345 599 1355 q 592 1331 599 1337 q 572 1326 585 1326 l 417 1326 q 379 1343 394 1326 l 238 1487 q 227 1508 227 1499 q 234 1521 227 1516 q 255 1526 242 1526 l 454 1526 q 492 1506 479 1526 l 591 1364 z "},"":{"ha":894,"x_min":75,"x_max":885,"o":"m 856 31 q 848 8 856 16 q 825 0 840 0 l 106 0 q 75 31 75 0 l 75 1018 q 106 1049 75 1049 l 814 1049 q 837 1041 829 1049 q 845 1018 845 1033 l 845 803 q 814 772 845 772 l 383 772 l 383 656 l 708 656 q 731 648 723 656 q 739 625 739 640 l 739 429 q 708 397 739 397 l 383 397 l 383 277 l 825 277 q 856 246 856 277 l 856 31 m 652 -18 q 669 -4 660 -8 q 691 0 678 0 l 783 0 l 825 0 q 789 -62 797 -42 q 780 -100 780 -83 q 793 -140 780 -124 q 825 -155 806 -155 q 839 -155 833 -155 q 847 -154 842 -154 q 874 -181 871 -154 l 882 -237 q 860 -276 885 -266 q 807 -288 836 -284 q 736 -292 778 -292 q 625 -259 659 -292 q 591 -178 591 -227 q 607 -93 591 -131 q 652 -18 624 -55 z "},"":{"ha":894,"x_min":75,"x_max":856,"o":"m 856 31 q 848 8 856 16 q 825 0 840 0 l 106 0 q 75 31 75 0 l 75 1018 q 106 1049 75 1049 l 814 1049 q 837 1041 829 1049 q 845 1018 845 1033 l 845 803 q 814 772 845 772 l 383 772 l 383 656 l 708 656 q 731 648 723 656 q 739 625 739 640 l 739 429 q 708 397 739 397 l 383 397 l 383 277 l 825 277 q 856 246 856 277 l 856 31 m 344 1142 q 318 1128 330 1128 q 300 1134 311 1128 l 243 1166 q 226 1192 226 1176 q 231 1209 226 1200 q 302 1305 264 1278 q 382 1332 340 1332 q 443 1325 415 1332 q 506 1305 471 1318 q 541 1292 527 1296 q 566 1288 554 1288 q 598 1305 582 1288 q 624 1319 612 1319 q 642 1313 632 1319 l 698 1281 q 715 1254 715 1270 q 711 1237 715 1246 q 640 1141 677 1168 q 560 1113 602 1113 q 500 1121 527 1113 q 437 1142 473 1128 q 402 1154 415 1150 q 376 1158 388 1158 q 344 1142 363 1158 z "},"":{"ha":894,"x_min":75,"x_max":856,"o":"m 856 31 q 848 8 856 16 q 825 0 840 0 l 106 0 q 75 31 75 0 l 75 1018 q 106 1049 75 1049 l 814 1049 q 837 1041 829 1049 q 845 1018 845 1033 l 845 803 q 814 772 845 772 l 383 772 l 383 656 l 708 656 q 731 648 723 656 q 739 625 739 640 l 739 429 q 708 397 739 397 l 383 397 l 383 277 l 825 277 q 856 246 856 277 l 856 31 m 347 -239 q 321 -253 333 -253 q 303 -247 314 -253 l 246 -215 q 229 -189 229 -205 q 234 -172 229 -181 q 305 -75 267 -102 q 385 -48 343 -48 q 445 -55 418 -48 q 509 -76 472 -63 q 544 -88 530 -84 q 569 -93 557 -93 q 601 -76 585 -93 q 627 -62 615 -62 q 645 -68 635 -62 l 701 -100 q 718 -126 718 -111 q 714 -143 718 -134 q 643 -240 680 -213 q 563 -267 605 -267 q 503 -260 530 -267 q 440 -239 476 -252 q 405 -227 418 -231 q 379 -223 391 -223 q 347 -239 366 -223 z "},"":{"ha":822,"x_min":75,"x_max":800,"o":"m 383 31 q 352 0 383 0 l 106 0 q 75 31 75 0 l 75 1018 q 106 1049 75 1049 l 768 1049 q 792 1041 783 1049 q 800 1018 800 1033 l 800 802 q 792 779 800 787 q 768 771 783 771 l 383 771 l 383 592 l 663 592 q 694 561 694 592 l 694 364 q 663 332 694 332 l 383 332 l 383 31 m 561 1154 q 529 1122 561 1122 l 350 1122 q 319 1154 319 1122 l 319 1308 q 350 1340 319 1340 l 529 1340 q 561 1308 561 1340 l 561 1154 z "},"":{"ha":996,"x_min":37,"x_max":948,"o":"m 657 458 q 665 481 657 473 q 688 489 674 489 l 916 489 q 948 458 948 489 l 948 119 q 929 81 948 94 q 771 7 859 34 q 585 -19 682 -19 q 307 55 432 -19 q 109 253 181 128 q 37 526 37 378 q 109 801 37 677 q 307 998 181 925 q 585 1070 432 1070 q 762 1042 677 1070 q 915 963 846 1015 q 928 940 928 954 q 921 920 928 930 l 778 733 q 755 720 768 720 q 735 727 746 720 q 585 774 659 774 q 469 741 523 774 q 383 652 415 709 q 350 526 350 594 q 383 397 350 456 q 470 303 416 338 q 585 268 524 268 l 622 268 q 657 270 644 268 l 657 458 m 800 1317 q 820 1312 812 1317 q 827 1299 827 1307 q 816 1279 827 1290 l 675 1134 q 658 1122 667 1125 q 637 1118 649 1118 l 482 1118 q 462 1123 469 1118 q 455 1137 455 1128 q 462 1156 455 1146 l 562 1298 q 600 1317 576 1317 l 800 1317 z "},"":{"ha":996,"x_min":37,"x_max":948,"o":"m 657 458 q 665 481 657 473 q 688 489 674 489 l 916 489 q 948 458 948 489 l 948 119 q 929 81 948 94 q 771 7 859 34 q 585 -19 682 -19 q 307 55 432 -19 q 109 253 181 128 q 37 526 37 378 q 109 801 37 677 q 307 998 181 925 q 585 1070 432 1070 q 762 1042 677 1070 q 915 963 846 1015 q 928 940 928 954 q 921 920 928 930 l 778 733 q 755 720 768 720 q 735 727 746 720 q 585 774 659 774 q 469 741 523 774 q 383 652 415 709 q 350 526 350 594 q 383 397 350 456 q 470 303 416 338 q 585 268 524 268 l 622 268 q 657 270 644 268 l 657 458 m 588 1120 q 420 1170 479 1120 q 351 1302 361 1221 q 357 1325 349 1317 q 381 1334 365 1334 l 503 1334 q 524 1327 517 1334 q 535 1305 532 1319 q 588 1266 547 1266 q 642 1305 630 1266 q 653 1327 646 1319 q 675 1334 661 1334 l 796 1334 q 820 1328 812 1334 q 827 1310 827 1322 q 760 1172 820 1225 q 588 1120 700 1120 z "},"":{"ha":996,"x_min":37,"x_max":948,"o":"m 657 458 q 665 481 657 473 q 688 489 674 489 l 916 489 q 948 458 948 489 l 948 119 q 929 81 948 94 q 771 7 859 34 q 585 -19 682 -19 q 307 55 432 -19 q 109 253 181 128 q 37 526 37 378 q 109 801 37 677 q 307 998 181 925 q 585 1070 432 1070 q 762 1042 677 1070 q 915 963 846 1015 q 928 940 928 954 q 921 920 928 930 l 778 733 q 755 720 768 720 q 735 727 746 720 q 585 774 659 774 q 469 741 523 774 q 383 652 415 709 q 350 526 350 594 q 383 397 350 456 q 470 303 416 338 q 585 268 524 268 l 622 268 q 657 270 644 268 l 657 458 m 373 1260 q 360 1284 360 1272 q 368 1305 360 1294 l 425 1378 q 449 1390 436 1390 q 469 1383 459 1390 l 590 1293 l 712 1383 q 731 1390 721 1390 q 756 1376 745 1390 l 812 1305 q 819 1284 819 1295 q 806 1260 819 1272 l 632 1124 q 591 1110 615 1110 q 550 1124 567 1110 l 373 1260 z "},"":{"ha":996,"x_min":37,"x_max":948,"o":"m 657 458 q 665 481 657 473 q 688 489 674 489 l 916 489 q 948 458 948 489 l 948 119 q 929 81 948 94 q 771 7 859 34 q 585 -19 682 -19 q 307 55 432 -19 q 109 253 181 128 q 37 526 37 378 q 109 801 37 677 q 307 998 181 925 q 585 1070 432 1070 q 762 1042 677 1070 q 915 963 846 1015 q 928 940 928 954 q 921 920 928 930 l 778 733 q 755 720 768 720 q 735 727 746 720 q 585 774 659 774 q 469 741 523 774 q 383 652 415 709 q 350 526 350 594 q 383 397 350 456 q 470 303 416 338 q 585 268 524 268 l 622 268 q 657 270 644 268 l 657 458 m 467 1119 q 447 1111 457 1111 q 423 1124 434 1111 l 366 1197 q 358 1217 358 1207 q 371 1241 358 1230 l 547 1378 q 588 1392 565 1392 q 629 1378 612 1392 l 804 1241 q 817 1217 817 1230 q 809 1197 817 1207 l 753 1124 q 730 1111 743 1111 q 709 1119 719 1111 l 588 1208 l 467 1119 z "},"":{"ha":996,"x_min":37,"x_max":948,"o":"m 657 458 q 665 481 657 473 q 688 489 674 489 l 916 489 q 948 458 948 489 l 948 119 q 929 81 948 94 q 771 7 859 34 q 585 -19 682 -19 q 307 55 432 -19 q 109 253 181 128 q 37 526 37 378 q 109 801 37 677 q 307 998 181 925 q 585 1070 432 1070 q 762 1042 677 1070 q 915 963 846 1015 q 928 940 928 954 q 921 920 928 930 l 778 733 q 755 720 768 720 q 735 727 746 720 q 585 774 659 774 q 469 741 523 774 q 383 652 415 709 q 350 526 350 594 q 383 397 350 456 q 470 303 416 338 q 585 268 524 268 l 622 268 q 657 270 644 268 l 657 458 m 600 -494 q 570 -507 585 -507 q 536 -491 554 -507 q 520 -460 520 -477 q 536 -426 520 -444 q 579 -370 566 -394 q 592 -326 592 -346 l 592 -320 l 531 -320 q 498 -309 509 -320 q 486 -276 486 -297 l 486 -158 q 531 -114 486 -114 l 667 -114 q 712 -158 712 -114 l 712 -279 q 681 -394 712 -340 q 600 -494 650 -448 z "},"":{"ha":996,"x_min":37,"x_max":948,"o":"m 657 458 q 665 481 657 473 q 688 489 674 489 l 916 489 q 948 458 948 489 l 948 119 q 929 81 948 94 q 771 7 859 34 q 585 -19 682 -19 q 307 55 432 -19 q 109 253 181 128 q 37 526 37 378 q 109 801 37 677 q 307 998 181 925 q 585 1070 432 1070 q 762 1042 677 1070 q 915 963 846 1015 q 928 940 928 954 q 921 920 928 930 l 778 733 q 755 720 768 720 q 735 727 746 720 q 585 774 659 774 q 469 741 523 774 q 383 652 415 709 q 350 526 350 594 q 383 397 350 456 q 470 303 416 338 q 585 268 524 268 l 622 268 q 657 270 644 268 l 657 458 m 712 1154 q 680 1123 712 1123 l 501 1123 q 470 1154 470 1123 l 470 1309 q 501 1340 470 1340 l 680 1340 q 712 1309 712 1340 l 712 1154 z "},"":{"ha":996,"x_min":37,"x_max":948,"o":"m 657 458 q 665 481 657 473 q 688 489 674 489 l 916 489 q 948 458 948 489 l 948 119 q 929 81 948 94 q 771 7 859 34 q 585 -19 682 -19 q 307 55 432 -19 q 109 253 181 128 q 37 526 37 378 q 109 801 37 677 q 307 998 181 925 q 585 1070 432 1070 q 762 1042 677 1070 q 915 963 846 1015 q 928 940 928 954 q 921 920 928 930 l 778 733 q 755 720 768 720 q 735 727 746 720 q 585 774 659 774 q 469 741 523 774 q 383 652 415 709 q 350 526 350 594 q 383 397 350 456 q 470 303 416 338 q 585 268 524 268 l 622 268 q 657 270 644 268 l 657 458 m 825 1154 q 794 1123 825 1123 l 405 1123 q 373 1154 373 1123 l 373 1259 q 405 1290 373 1290 l 794 1290 q 825 1259 825 1290 l 825 1154 z "},"":{"ha":1085,"x_min":12,"x_max":1078,"o":"m 1047 965 q 1078 933 1078 965 l 1078 812 q 1070 789 1078 797 q 1047 780 1062 780 l 1010 780 l 1010 31 q 1002 8 1010 16 q 979 0 994 0 l 733 0 q 709 8 718 0 q 701 31 701 16 l 701 405 l 383 405 l 383 31 q 352 0 383 0 l 106 0 q 75 31 75 0 l 75 780 l 43 780 q 12 812 12 780 l 12 933 q 43 965 12 965 l 75 965 l 75 1018 q 106 1049 75 1049 l 352 1049 q 383 1018 383 1049 l 383 965 l 701 965 l 701 1018 q 709 1041 701 1033 q 733 1049 718 1049 l 979 1049 q 1002 1041 994 1049 q 1010 1018 1010 1033 l 1010 965 l 1047 965 m 701 700 l 701 780 l 383 780 l 383 700 l 701 700 z "},"":{"ha":1085,"x_min":75,"x_max":1010,"o":"m 383 31 q 352 0 383 0 l 106 0 q 75 31 75 0 l 75 1018 q 106 1049 75 1049 l 352 1049 q 383 1018 383 1049 l 383 700 l 701 700 l 701 1018 q 709 1041 701 1033 q 733 1049 718 1049 l 979 1049 q 1002 1041 994 1049 q 1010 1018 1010 1033 l 1010 31 q 1002 8 1010 16 q 979 0 994 0 l 733 0 q 709 8 718 0 q 701 31 701 16 l 701 405 l 383 405 l 383 31 m 549 -308 q 379 -255 438 -308 q 311 -110 320 -202 q 317 -86 309 -95 q 341 -78 326 -78 l 462 -78 q 495 -108 491 -78 q 512 -143 500 -132 q 549 -153 525 -153 q 586 -143 573 -153 q 603 -108 598 -133 q 613 -85 606 -93 q 635 -78 621 -78 l 756 -78 q 787 -105 787 -78 q 721 -254 780 -199 q 549 -308 662 -308 z "},"":{"ha":1085,"x_min":75,"x_max":1010,"o":"m 383 31 q 352 0 383 0 l 106 0 q 75 31 75 0 l 75 1018 q 106 1049 75 1049 l 352 1049 q 383 1018 383 1049 l 383 700 l 701 700 l 701 1018 q 709 1041 701 1033 q 733 1049 718 1049 l 979 1049 q 1002 1041 994 1049 q 1010 1018 1010 1033 l 1010 31 q 1002 8 1010 16 q 979 0 994 0 l 733 0 q 709 8 718 0 q 701 31 701 16 l 701 405 l 383 405 l 383 31 m 330 1260 q 317 1284 317 1272 q 325 1305 317 1294 l 382 1378 q 405 1390 393 1390 q 426 1383 416 1390 l 547 1293 l 668 1383 q 688 1390 678 1390 q 712 1376 702 1390 l 768 1305 q 776 1284 776 1295 q 763 1260 776 1272 l 588 1124 q 547 1110 571 1110 q 506 1124 523 1110 l 330 1260 z "},"":{"ha":1085,"x_min":75,"x_max":1010,"o":"m 979 1049 q 1002 1041 994 1049 q 1010 1018 1010 1033 l 1010 31 q 1002 8 1010 16 q 979 0 994 0 l 733 0 q 709 8 718 0 q 701 31 701 16 l 701 405 l 383 405 l 383 31 q 354 0 383 1 q 399 -92 379 -43 q 418 -175 418 -140 q 401 -244 418 -215 q 336 -293 384 -273 q 199 -319 287 -313 q 164 -290 167 -320 l 156 -223 q 185 -188 153 -195 q 228 -169 218 -181 q 237 -137 237 -158 q 220 -77 237 -119 q 178 0 202 -35 l 106 0 q 75 31 75 0 l 75 1018 q 106 1049 75 1049 l 352 1049 q 383 1018 383 1049 l 383 700 l 701 700 l 701 1018 q 709 1041 701 1033 q 733 1049 718 1049 l 979 1049 z "},"":{"ha":1085,"x_min":75,"x_max":1010,"o":"m 383 31 q 352 0 383 0 l 106 0 q 75 31 75 0 l 75 1018 q 106 1049 75 1049 l 352 1049 q 383 1018 383 1049 l 383 700 l 701 700 l 701 1018 q 709 1041 701 1033 q 733 1049 718 1049 l 979 1049 q 1002 1041 994 1049 q 1010 1018 1010 1033 l 1010 31 q 1002 8 1010 16 q 979 0 994 0 l 733 0 q 709 8 718 0 q 701 31 701 16 l 701 405 l 383 405 l 383 31 m 423 1119 q 403 1111 414 1111 q 379 1124 391 1111 l 323 1197 q 314 1217 314 1207 q 328 1241 314 1230 l 504 1378 q 545 1392 521 1392 q 586 1378 569 1392 l 761 1241 q 774 1217 774 1230 q 766 1197 774 1207 l 710 1124 q 687 1111 700 1111 q 666 1119 676 1111 l 544 1208 l 423 1119 z "},"":{"ha":1085,"x_min":75,"x_max":1010,"o":"m 383 31 q 352 0 383 0 l 106 0 q 75 31 75 0 l 75 1018 q 106 1049 75 1049 l 352 1049 q 383 1018 383 1049 l 383 700 l 701 700 l 701 1018 q 709 1041 701 1033 q 733 1049 718 1049 l 979 1049 q 1002 1041 994 1049 q 1010 1018 1010 1033 l 1010 31 q 1002 8 1010 16 q 979 0 994 0 l 733 0 q 709 8 718 0 q 701 31 701 16 l 701 405 l 383 405 l 383 31 m 474 1153 q 443 1122 474 1122 l 284 1122 q 252 1153 252 1122 l 252 1322 q 284 1354 252 1354 l 443 1354 q 474 1322 474 1354 l 474 1153 m 841 1153 q 833 1130 841 1138 q 809 1122 824 1122 l 650 1122 q 626 1130 635 1122 q 618 1153 618 1138 l 618 1322 q 626 1346 618 1337 q 650 1354 635 1354 l 809 1354 q 833 1346 824 1354 q 841 1322 841 1337 l 841 1153 z "},"":{"ha":1085,"x_min":75,"x_max":1010,"o":"m 383 31 q 352 0 383 0 l 106 0 q 75 31 75 0 l 75 1018 q 106 1049 75 1049 l 352 1049 q 383 1018 383 1049 l 383 700 l 701 700 l 701 1018 q 709 1041 701 1033 q 733 1049 718 1049 l 979 1049 q 1002 1041 994 1049 q 1010 1018 1010 1033 l 1010 31 q 1002 8 1010 16 q 979 0 994 0 l 733 0 q 709 8 718 0 q 701 31 701 16 l 701 405 l 383 405 l 383 31 m 668 1154 q 637 1123 668 1123 l 458 1123 q 426 1154 426 1123 l 426 1309 q 458 1340 426 1340 l 637 1340 q 668 1309 668 1340 l 668 1154 z "},"":{"ha":1085,"x_min":75,"x_max":1010,"o":"m 383 31 q 352 0 383 0 l 106 0 q 75 31 75 0 l 75 1018 q 106 1049 75 1049 l 352 1049 q 383 1018 383 1049 l 383 700 l 701 700 l 701 1018 q 709 1041 701 1033 q 733 1049 718 1049 l 979 1049 q 1002 1041 994 1049 q 1010 1018 1010 1033 l 1010 31 q 1002 8 1010 16 q 979 0 994 0 l 733 0 q 709 8 718 0 q 701 31 701 16 l 701 405 l 383 405 l 383 31 m 668 -271 q 637 -302 668 -302 l 458 -302 q 426 -271 426 -302 l 426 -116 q 458 -85 426 -85 l 637 -85 q 668 -116 668 -85 l 668 -271 z "},"":{"ha":1154,"x_min":75,"x_max":1094,"o":"m 383 31 q 352 0 383 0 l 106 0 q 75 31 75 0 l 75 1018 q 106 1049 75 1049 l 352 1049 q 383 1018 383 1049 l 383 31 m 727 -23 q 600 -4 667 -23 q 474 57 534 14 q 461 80 461 67 q 469 102 461 90 l 587 303 q 609 317 595 317 q 630 308 618 317 q 724 273 688 273 q 786 355 786 273 l 786 1018 q 816 1049 786 1049 l 1063 1049 q 1086 1041 1078 1049 q 1094 1018 1094 1033 l 1094 334 q 1050 144 1094 225 q 922 20 1005 63 q 727 -23 839 -23 z "},"":{"ha":458,"x_min":75,"x_max":455,"o":"m 383 31 q 352 0 383 0 l 106 0 q 75 31 75 0 l 75 1018 q 106 1049 75 1049 l 352 1049 q 383 1018 383 1049 l 383 31 m 429 1317 q 448 1312 441 1317 q 455 1299 455 1307 q 445 1279 455 1290 l 304 1134 q 287 1122 296 1125 q 266 1118 278 1118 l 111 1118 q 91 1123 98 1118 q 84 1137 84 1128 q 91 1156 84 1146 l 190 1298 q 229 1317 205 1317 l 429 1317 z "},"":{"ha":458,"x_min":-22,"x_max":456,"o":"m 383 31 q 352 0 383 0 l 106 0 q 75 31 75 0 l 75 1018 q 106 1049 75 1049 l 352 1049 q 383 1018 383 1049 l 383 31 m 217 1120 q 49 1170 108 1120 q -20 1302 -10 1221 q -14 1325 -22 1317 q 10 1334 -6 1334 l 131 1334 q 153 1327 146 1334 q 164 1305 161 1319 q 217 1266 176 1266 q 271 1305 259 1266 q 282 1327 275 1319 q 304 1334 290 1334 l 425 1334 q 448 1328 441 1334 q 455 1310 456 1322 q 389 1172 449 1225 q 217 1120 329 1120 z "},"":{"ha":458,"x_min":-11,"x_max":448,"o":"m 383 31 q 352 0 383 0 l 106 0 q 75 31 75 0 l 75 1018 q 106 1049 75 1049 l 352 1049 q 383 1018 383 1049 l 383 31 m 2 1260 q -11 1284 -11 1272 q -3 1305 -11 1294 l 54 1378 q 78 1390 65 1390 q 98 1383 88 1390 l 219 1293 l 341 1383 q 360 1390 350 1390 q 385 1376 374 1390 l 441 1305 q 448 1284 448 1295 q 435 1260 448 1272 l 261 1124 q 220 1110 243 1110 q 178 1124 196 1110 l 2 1260 z "},"":{"ha":458,"x_min":-13,"x_max":446,"o":"m 383 31 q 352 0 383 0 l 106 0 q 75 31 75 0 l 75 1018 q 106 1049 75 1049 l 352 1049 q 383 1018 383 1049 l 383 31 m 96 1119 q 75 1111 86 1111 q 52 1124 63 1111 l -5 1197 q -13 1217 -13 1207 q 0 1241 -13 1230 l 176 1378 q 217 1392 193 1392 q 258 1378 241 1392 l 433 1241 q 446 1217 446 1230 q 438 1197 446 1207 l 382 1124 q 359 1111 372 1111 q 338 1119 348 1111 l 217 1208 l 96 1119 z "},"":{"ha":458,"x_min":-148,"x_max":488,"o":"m 383 31 q 352 0 383 0 l 106 0 q 75 31 75 0 l 75 1018 q 106 1049 75 1049 l 352 1049 q 383 1018 383 1049 l 383 31 m 481 1166 q 488 1147 488 1156 q 481 1133 488 1138 q 461 1128 474 1128 l 329 1128 q 290 1144 305 1128 l 170 1268 q 159 1288 159 1278 q 167 1301 159 1296 q 187 1306 174 1306 l 358 1306 q 396 1286 382 1306 l 481 1166 m 173 1166 q 181 1146 181 1156 q 174 1132 181 1137 q 153 1127 167 1127 l 21 1127 q -17 1144 0 1127 l -137 1267 q -148 1288 -148 1278 q -141 1301 -148 1296 q -121 1305 -134 1305 l 50 1305 q 88 1286 74 1305 l 173 1166 z "},"":{"ha":458,"x_min":-75,"x_max":513,"o":"m 383 31 q 352 0 383 0 l 106 0 q 75 31 75 0 l 75 1018 q 106 1049 75 1049 l 352 1049 q 383 1018 383 1049 l 383 31 m 146 1153 q 115 1122 146 1122 l -44 1122 q -75 1153 -75 1122 l -75 1322 q -44 1354 -75 1354 l 115 1354 q 146 1322 146 1354 l 146 1153 m 513 1153 q 505 1130 513 1138 q 482 1122 497 1122 l 322 1122 q 299 1130 307 1122 q 290 1153 290 1138 l 290 1322 q 299 1346 290 1337 q 322 1354 307 1354 l 482 1354 q 505 1346 497 1354 q 513 1322 513 1337 l 513 1153 z "},"":{"ha":458,"x_min":-75,"x_max":513,"o":"m 383 31 q 352 0 383 0 l 106 0 q 75 31 75 0 l 75 1018 q 106 1049 75 1049 l 352 1049 q 383 1018 383 1049 l 383 31 m 146 1153 q 115 1122 146 1122 l -44 1122 q -75 1153 -75 1122 l -75 1322 q -44 1354 -75 1354 l 115 1354 q 146 1322 146 1354 l 146 1153 m 513 1153 q 505 1130 513 1138 q 482 1122 497 1122 l 322 1122 q 299 1130 307 1122 q 290 1153 290 1138 l 290 1322 q 299 1346 290 1337 q 322 1354 307 1354 l 482 1354 q 505 1346 497 1354 q 513 1322 513 1337 l 513 1153 m 429 1607 q 448 1602 441 1607 q 455 1589 455 1597 q 445 1569 455 1579 l 304 1424 q 287 1411 296 1415 q 266 1408 278 1408 l 111 1408 q 91 1413 98 1408 q 84 1427 84 1418 q 91 1446 84 1436 l 190 1588 q 229 1607 205 1607 l 429 1607 z "},"":{"ha":458,"x_min":75,"x_max":383,"o":"m 383 31 q 352 0 383 0 l 106 0 q 75 31 75 0 l 75 1018 q 106 1049 75 1049 l 352 1049 q 383 1018 383 1049 l 383 31 m 341 1154 q 309 1123 341 1123 l 130 1123 q 99 1154 99 1123 l 99 1309 q 130 1340 99 1340 l 309 1340 q 341 1309 341 1340 l 341 1154 z "},"":{"ha":458,"x_min":75,"x_max":383,"o":"m 383 31 q 352 0 383 0 l 106 0 q 75 31 75 0 l 75 1018 q 106 1049 75 1049 l 352 1049 q 383 1018 383 1049 l 383 31 m 351 -271 q 320 -302 351 -302 l 140 -302 q 109 -271 109 -302 l 109 -116 q 140 -85 109 -85 l 320 -85 q 351 -116 351 -85 l 351 -271 z "},"":{"ha":458,"x_min":-37,"x_max":383,"o":"m 383 31 q 352 0 383 0 l 106 0 q 75 31 75 0 l 75 1018 q 106 1049 75 1049 l 352 1049 q 383 1018 383 1049 l 383 31 m 327 1156 q 335 1136 335 1146 q 327 1123 335 1128 q 308 1118 320 1118 l 153 1118 q 115 1134 129 1118 l -26 1279 q -37 1300 -37 1290 q -30 1312 -37 1307 q -10 1317 -22 1317 l 190 1317 q 228 1298 214 1317 l 327 1156 z "},"":{"ha":458,"x_min":75,"x_max":383,"o":"m 383 31 q 352 0 383 0 l 106 0 q 75 31 75 0 l 75 1018 q 106 1049 75 1049 l 352 1049 q 383 1018 383 1049 l 383 31 m 280 1146 q 266 1133 273 1136 q 246 1129 259 1129 q 214 1128 233 1128 q 173 1150 173 1128 q 177 1165 173 1155 q 186 1202 186 1184 q 164 1228 186 1228 q 143 1225 155 1228 q 129 1222 136 1222 q 101 1257 109 1222 q 98 1278 98 1269 q 102 1293 98 1287 q 116 1305 106 1299 q 215 1330 167 1330 q 302 1311 268 1330 q 335 1258 335 1292 q 322 1209 335 1233 q 280 1146 309 1184 z "},"":{"ha":458,"x_min":-22,"x_max":456,"o":"m 383 31 q 352 0 383 0 l 106 0 q 75 31 75 0 l 75 1018 q 106 1049 75 1049 l 352 1049 q 383 1018 383 1049 l 383 31 m 217 1337 q 385 1288 326 1337 q 454 1155 444 1238 q 448 1132 456 1140 q 424 1124 440 1124 l 303 1124 q 282 1131 289 1124 q 270 1153 274 1138 q 217 1192 258 1192 q 164 1153 175 1192 q 152 1131 160 1138 q 131 1124 145 1124 l 9 1124 q -15 1130 -7 1124 q -22 1147 -22 1136 q 46 1285 -14 1232 q 217 1337 105 1337 z "},"":{"ha":458,"x_min":2,"x_max":454,"o":"m 383 31 q 352 0 383 0 l 106 0 q 75 31 75 0 l 75 1018 q 106 1049 75 1049 l 352 1049 q 383 1018 383 1049 l 383 31 m 454 1154 q 423 1123 454 1123 l 34 1123 q 2 1154 2 1123 l 2 1259 q 34 1290 2 1290 l 423 1290 q 454 1259 454 1290 l 454 1154 z "},"":{"ha":458,"x_min":75,"x_max":411,"o":"m 383 31 q 352 0 383 0 l 106 0 q 75 31 75 0 l 75 1018 q 106 1049 75 1049 l 352 1049 q 383 1018 383 1049 l 383 31 m 178 -18 q 196 -4 187 -8 q 217 0 205 0 l 310 0 l 352 0 q 315 -62 324 -42 q 306 -100 306 -83 q 319 -140 306 -124 q 352 -155 332 -155 q 365 -155 360 -155 q 373 -154 368 -154 q 401 -181 398 -154 l 408 -237 q 387 -276 411 -266 q 334 -288 363 -284 q 262 -292 305 -292 q 151 -259 185 -292 q 117 -178 117 -227 q 134 -93 117 -131 q 178 -18 151 -55 z "},"":{"ha":458,"x_min":-38,"x_max":451,"o":"m 383 31 q 352 0 383 0 l 106 0 q 75 31 75 0 l 75 1018 q 106 1049 75 1049 l 352 1049 q 383 1018 383 1049 l 383 31 m 80 1142 q 54 1128 66 1128 q 36 1134 46 1128 l -21 1166 q -38 1192 -38 1176 q -34 1209 -38 1200 q 38 1305 0 1278 q 118 1332 75 1332 q 179 1325 151 1332 q 241 1305 207 1318 q 276 1292 263 1296 q 302 1288 290 1288 q 334 1305 317 1288 q 360 1319 348 1319 q 378 1313 367 1319 l 434 1281 q 451 1254 451 1270 q 447 1237 451 1246 q 375 1141 413 1168 q 296 1113 338 1113 q 236 1121 263 1113 q 172 1142 209 1128 q 137 1154 151 1150 q 112 1158 124 1158 q 80 1142 99 1158 z "},"":{"ha":458,"x_min":-24,"x_max":465,"o":"m 383 31 q 352 0 383 0 l 106 0 q 75 31 75 0 l 75 1018 q 106 1049 75 1049 l 352 1049 q 383 1018 383 1049 l 383 31 m 94 -239 q 68 -253 80 -253 q 50 -247 60 -253 l -7 -215 q -24 -189 -24 -205 q -19 -172 -24 -181 q 52 -75 14 -102 q 132 -48 90 -48 q 192 -55 165 -48 q 255 -76 219 -63 q 290 -88 277 -84 q 316 -93 304 -93 q 348 -76 332 -93 q 374 -62 362 -62 q 392 -68 382 -62 l 448 -100 q 465 -126 465 -111 q 461 -143 465 -134 q 389 -240 427 -213 q 310 -267 352 -267 q 250 -260 277 -267 q 187 -239 223 -252 q 152 -227 165 -231 q 126 -223 138 -223 q 94 -239 113 -223 z "},"":{"ha":696,"x_min":4,"x_max":706,"o":"m 269 -23 q 143 -4 209 -23 q 16 57 76 14 q 4 80 4 67 q 11 102 4 90 l 129 303 q 151 317 137 317 q 172 308 161 317 q 266 273 231 273 q 328 355 328 273 l 328 1018 q 358 1049 328 1049 l 605 1049 q 628 1041 620 1049 q 636 1018 636 1033 l 636 334 q 592 144 636 225 q 464 20 547 63 q 269 -23 382 -23 m 356 1119 q 336 1111 346 1111 q 312 1124 323 1111 l 255 1197 q 247 1217 247 1207 q 261 1241 247 1230 l 437 1378 q 478 1392 454 1392 q 519 1378 502 1392 l 694 1241 q 706 1217 706 1230 q 699 1197 706 1207 l 643 1124 q 620 1111 632 1111 q 599 1119 609 1111 l 477 1208 l 356 1119 z "},"":{"ha":1066,"x_min":75,"x_max":1048,"o":"m 1042 37 q 1048 19 1048 28 q 1041 5 1048 10 q 1021 0 1033 0 l 723 0 q 701 5 710 0 q 685 21 692 10 l 475 376 l 383 264 l 383 31 q 352 0 383 0 l 106 0 q 75 31 75 0 l 75 1018 q 106 1049 75 1049 l 352 1049 q 383 1018 383 1049 l 383 683 l 649 1031 q 687 1049 662 1049 l 989 1049 q 1009 1044 1002 1049 q 1016 1031 1016 1039 q 1007 1011 1016 1022 l 675 612 l 1042 37 m 739 1317 q 759 1312 752 1317 q 766 1299 766 1307 q 756 1279 766 1290 l 615 1134 q 597 1122 606 1125 q 576 1118 588 1118 l 421 1118 q 401 1123 408 1118 q 394 1137 394 1128 q 402 1156 394 1146 l 501 1298 q 540 1317 516 1317 l 739 1317 z "},"":{"ha":1066,"x_min":75,"x_max":1048,"o":"m 1042 37 q 1048 19 1048 28 q 1041 5 1048 10 q 1021 0 1033 0 l 723 0 q 701 5 710 0 q 685 21 692 10 l 475 376 l 383 264 l 383 31 q 352 0 383 0 l 106 0 q 75 31 75 0 l 75 1018 q 106 1049 75 1049 l 352 1049 q 383 1018 383 1049 l 383 683 l 649 1031 q 687 1049 662 1049 l 989 1049 q 1009 1044 1002 1049 q 1016 1031 1016 1039 q 1007 1011 1016 1022 l 675 612 l 1042 37 m 313 1260 q 299 1284 299 1272 q 308 1305 299 1294 l 364 1378 q 388 1390 376 1390 q 408 1383 399 1390 l 529 1293 l 651 1383 q 671 1390 661 1390 q 695 1376 685 1390 l 751 1305 q 759 1284 759 1295 q 746 1260 759 1272 l 571 1124 q 530 1110 554 1110 q 489 1124 506 1110 l 313 1260 z "},"":{"ha":1066,"x_min":75,"x_max":1048,"o":"m 1042 37 q 1048 19 1048 28 q 1041 5 1048 10 q 1021 0 1033 0 l 723 0 q 701 5 710 0 q 685 21 692 10 l 475 376 l 383 264 l 383 31 q 352 0 383 0 l 106 0 q 75 31 75 0 l 75 1018 q 106 1049 75 1049 l 352 1049 q 383 1018 383 1049 l 383 683 l 649 1031 q 687 1049 662 1049 l 989 1049 q 1009 1044 1002 1049 q 1016 1031 1016 1039 q 1007 1011 1016 1022 l 675 612 l 1042 37 m 544 -494 q 514 -507 529 -507 q 480 -491 498 -507 q 464 -460 464 -477 q 480 -426 464 -444 q 523 -370 510 -394 q 536 -326 536 -346 l 536 -320 l 475 -320 q 442 -309 453 -320 q 430 -276 430 -297 l 430 -158 q 475 -114 430 -114 l 611 -114 q 656 -158 656 -114 l 656 -279 q 625 -394 656 -340 q 544 -494 594 -448 z "},"":{"ha":1066,"x_min":75,"x_max":1048,"o":"m 1042 37 q 1048 19 1048 28 q 1041 5 1048 10 q 1021 0 1033 0 l 723 0 q 701 5 710 0 q 685 21 692 10 l 475 376 l 383 264 l 383 31 q 352 0 383 0 l 106 0 q 75 31 75 0 l 75 1018 q 106 1049 75 1049 l 352 1049 q 383 1018 383 1049 l 383 683 l 649 1031 q 687 1049 662 1049 l 989 1049 q 1009 1044 1002 1049 q 1016 1031 1016 1039 q 1007 1011 1016 1022 l 675 612 l 1042 37 m 656 -271 q 624 -302 656 -302 l 445 -302 q 414 -271 414 -302 l 414 -116 q 445 -85 414 -85 l 624 -85 q 656 -116 656 -85 l 656 -271 z "},"":{"ha":1066,"x_min":75,"x_max":1048,"o":"m 1042 37 q 1048 19 1048 28 q 1041 5 1048 10 q 1021 0 1033 0 l 723 0 q 701 5 710 0 q 685 21 692 10 l 475 376 l 383 264 l 383 31 q 352 0 383 0 l 106 0 q 75 31 75 0 l 75 1018 q 106 1049 75 1049 l 352 1049 q 383 1018 383 1049 l 383 683 l 649 1031 q 687 1049 662 1049 l 989 1049 q 1009 1044 1002 1049 q 1016 1031 1016 1039 q 1007 1011 1016 1022 l 675 612 l 1042 37 m 772 -223 q 741 -253 772 -253 l 352 -253 q 320 -223 320 -253 l 320 -117 q 352 -86 320 -86 l 741 -86 q 772 -117 772 -86 l 772 -223 z "},"":{"ha":1499,"x_min":75,"x_max":1439,"o":"m 788 31 q 780 8 788 16 q 756 0 771 0 l 106 0 q 75 31 75 0 l 75 1018 q 106 1049 75 1049 l 352 1049 q 383 1018 383 1049 l 383 295 l 756 295 q 780 287 771 295 q 788 264 788 279 l 788 31 m 1072 -23 q 945 -4 1012 -23 q 819 57 879 14 q 806 80 806 67 q 814 102 806 90 l 932 303 q 954 317 940 317 q 975 308 963 317 q 1069 273 1033 273 q 1131 355 1131 273 l 1131 1018 q 1161 1049 1131 1049 l 1408 1049 q 1431 1041 1422 1049 q 1439 1018 1439 1033 l 1439 334 q 1394 144 1439 225 q 1267 20 1350 63 q 1072 -23 1184 -23 z "},"":{"ha":803,"x_min":75,"x_max":788,"o":"m 788 31 q 780 8 788 16 q 756 0 771 0 l 106 0 q 75 31 75 0 l 75 1018 q 106 1049 75 1049 l 352 1049 q 383 1018 383 1049 l 383 295 l 756 295 q 780 287 771 295 q 788 264 788 279 l 788 31 m 427 1317 q 447 1312 440 1317 q 454 1299 454 1307 q 444 1279 454 1290 l 302 1134 q 285 1122 294 1125 q 264 1118 276 1118 l 109 1118 q 89 1123 96 1118 q 82 1137 82 1128 q 90 1156 82 1146 l 189 1298 q 228 1317 204 1317 l 427 1317 z "},"":{"ha":803,"x_min":75,"x_max":788,"o":"m 788 31 q 780 8 788 16 q 756 0 771 0 l 106 0 q 75 31 75 0 l 75 1018 q 106 1049 75 1049 l 352 1049 q 383 1018 383 1049 l 383 295 l 756 295 q 780 287 771 295 q 788 264 788 279 l 788 31 m 730 774 q 721 752 730 759 q 697 744 712 744 l 583 744 q 560 752 568 744 q 551 774 552 760 l 535 1017 q 542 1041 534 1033 q 565 1049 550 1049 l 718 1049 q 741 1041 733 1049 q 747 1017 749 1032 l 730 774 z "},"":{"ha":803,"x_min":75,"x_max":788,"o":"m 788 31 q 780 8 788 16 q 756 0 771 0 l 106 0 q 75 31 75 0 l 75 1018 q 106 1049 75 1049 l 352 1049 q 383 1018 383 1049 l 383 295 l 756 295 q 780 287 771 295 q 788 264 788 279 l 788 31 m 234 -298 q 217 -302 225 -302 q 190 -284 200 -302 l 150 -212 q 145 -193 145 -202 q 161 -169 145 -178 l 326 -77 q 346 -69 336 -71 q 368 -67 355 -67 q 406 -78 389 -67 l 570 -169 q 586 -193 586 -178 q 581 -212 586 -202 l 541 -284 q 514 -302 532 -302 q 499 -298 506 -302 l 366 -233 l 234 -298 z "},"":{"ha":803,"x_min":75,"x_max":788,"o":"m 788 31 q 780 8 788 16 q 756 0 771 0 l 106 0 q 75 31 75 0 l 75 1018 q 106 1049 75 1049 l 352 1049 q 383 1018 383 1049 l 383 295 l 756 295 q 780 287 771 295 q 788 264 788 279 l 788 31 m 382 -494 q 352 -507 367 -507 q 318 -491 336 -507 q 302 -460 302 -477 q 318 -426 302 -444 q 361 -370 348 -394 q 374 -326 374 -346 l 374 -320 l 313 -320 q 280 -309 291 -320 q 268 -276 268 -297 l 268 -158 q 313 -114 268 -114 l 449 -114 q 494 -158 494 -114 l 494 -279 q 463 -394 494 -340 q 382 -494 432 -448 z "},"":{"ha":1081,"x_min":75,"x_max":1055,"o":"m 788 31 q 780 8 788 16 q 756 0 771 0 l 106 0 q 75 31 75 0 l 75 1018 q 106 1049 75 1049 l 352 1049 q 383 1018 383 1049 l 383 295 l 756 295 q 780 287 771 295 q 788 264 788 279 l 788 31 m 1055 234 q 1032 211 1055 211 l 852 211 q 830 234 830 211 l 830 393 q 852 415 830 415 l 1032 415 q 1055 393 1055 415 l 1055 234 z "},"":{"ha":803,"x_min":75,"x_max":788,"o":"m 788 31 q 780 8 788 16 q 756 0 771 0 l 106 0 q 75 31 75 0 l 75 1018 q 106 1049 75 1049 l 352 1049 q 383 1018 383 1049 l 383 295 l 756 295 q 780 287 771 295 q 788 264 788 279 l 788 31 m 494 -271 q 462 -302 494 -302 l 283 -302 q 252 -271 252 -302 l 252 -116 q 283 -85 252 -85 l 462 -85 q 494 -116 494 -85 l 494 -271 z "},"":{"ha":803,"x_min":1,"x_max":788,"o":"m 788 31 q 780 8 788 16 q 756 0 771 0 l 106 0 q 75 31 75 0 l 75 1018 q 106 1049 75 1049 l 352 1049 q 383 1018 383 1049 l 383 295 l 756 295 q 780 287 771 295 q 788 264 788 279 l 788 31 m 494 -271 q 462 -302 494 -302 l 283 -302 q 252 -271 252 -302 l 252 -116 q 283 -85 252 -85 l 462 -85 q 494 -116 494 -85 l 494 -271 m 453 1154 q 421 1123 453 1123 l 32 1123 q 1 1154 1 1123 l 1 1259 q 32 1290 1 1290 l 421 1290 q 453 1259 453 1290 l 453 1154 z "},"":{"ha":1285,"x_min":75,"x_max":1187,"o":"m 788 31 q 780 8 788 16 q 756 0 771 0 l 106 0 q 75 31 75 0 l 75 1018 q 106 1049 75 1049 l 352 1049 q 383 1018 383 1049 l 383 295 l 756 295 q 780 287 771 295 q 788 264 788 279 l 788 31 m 925 994 q 902 1002 910 994 q 894 1025 894 1010 l 894 1228 q 902 1251 894 1243 q 925 1259 910 1259 l 1156 1259 q 1179 1251 1171 1259 q 1187 1228 1187 1243 l 1187 1025 q 1179 1002 1187 1010 q 1156 994 1171 994 l 925 994 m 820 -290 q 797 -282 805 -290 q 789 -258 789 -273 l 789 -58 q 793 -35 789 -43 q 805 -27 797 -27 q 876 -4 856 -27 q 895 68 895 18 l 895 876 q 927 907 895 907 l 1154 907 q 1184 876 1184 907 l 1184 67 q 1091 -198 1184 -106 q 820 -290 997 -290 z "},"":{"ha":803,"x_min":75,"x_max":788,"o":"m 788 31 q 780 8 788 16 q 756 0 771 0 l 106 0 q 75 31 75 0 l 75 1018 q 106 1049 75 1049 l 352 1049 q 383 1018 383 1049 l 383 295 l 756 295 q 780 287 771 295 q 788 264 788 279 l 788 31 m 610 -223 q 579 -253 610 -253 l 190 -253 q 158 -223 158 -253 l 158 -117 q 190 -86 158 -86 l 579 -86 q 610 -117 610 -86 l 610 -223 z "},"":{"ha":803,"x_min":-85,"x_max":788,"o":"m 756 295 q 780 287 771 295 q 788 264 788 279 l 788 31 q 780 8 788 16 q 756 0 771 0 l 106 0 q 75 31 75 0 l 75 379 l -7 341 q -24 337 -16 337 q -50 355 -41 337 l -81 421 q -85 437 -85 430 q -66 462 -85 453 l 75 526 l 75 1018 q 106 1049 75 1049 l 352 1049 q 383 1018 383 1049 l 383 665 l 483 711 q 500 715 491 715 q 525 697 517 715 l 557 631 q 561 615 561 622 q 541 590 561 599 l 383 518 l 383 295 l 756 295 z "}}}
